STARTFONT 2.1
COMMENT
COMMENT Converted from OpenType font "Times New Roman.ttf" by "otf2bdf 3.0".
COMMENT
FONT -FreeType-Times New Roman-Medium-R-Normal--39-280-100-100-P-190-ISO10646-1
SIZE 28 100 100
FONTBOUNDINGBOX 71 53 -19 -14
STARTPROPERTIES 19
FOUNDRY "FreeType"
FAMILY_NAME "Times New Roman"
WEIGHT_NAME "Medium"
SLANT "R"
SETWIDTH_NAME "Normal"
ADD_STYLE_NAME ""
PIXEL_SIZE 39
POINT_SIZE 280
RESOLUTION_X 100
RESOLUTION_Y 100
SPACING "P"
AVERAGE_WIDTH 190
CHARSET_REGISTRY "ISO10646"
CHARSET_ENCODING "1"
FONT_ASCENT 34
FONT_DESCENT 8
COPYRIGHT "© 2006 The Monotype Corporation. All Rights Reserved."
_OTF_FONTFILE "Times New Roman.ttf"
_OTF_PSNAME "TimesNewRomanPSMT"
ENDPROPERTIES
CHARS 2790
STARTCHAR 0020
ENCODING 32
SWIDTH 257 0
DWIDTH 10 0
BBX 0 0 0 0
BITMAP
ENDCHAR
STARTCHAR 0021
ENCODING 33
SWIDTH 334 0
DWIDTH 13 0
BBX 5 26 4 0
BITMAP
70
70
F8
F8
F8
70
70
70
70
70
70
70
70
70
20
20
20
20
20
20
00
00
00
70
F8
70
ENDCHAR
STARTCHAR 0022
ENCODING 34
SWIDTH 411 0
DWIDTH 16 0
BBX 10 11 3 15
BITMAP
E1C0
E1C0
E3C0
E1C0
E1C0
E1C0
E1C0
C1C0
4180
4080
4080
ENDCHAR
STARTCHAR 0023
ENCODING 35
SWIDTH 514 0
DWIDTH 20 0
BBX 18 27 1 0
BITMAP
010100
030300
030300
030300
020200
020200
060600
060600
060600
FFFFC0
FFFFC0
0C0C00
0C0C00
0C0C00
080800
080800
181800
FFFFC0
FFFFC0
101000
101000
303000
303000
203000
202000
602000
606000
ENDCHAR
STARTCHAR 0024
ENCODING 36
SWIDTH 514 0
DWIDTH 20 0
BBX 16 30 2 -2
BITMAP
0100
0100
07E0
393C
710C
6104
E104
E104
E104
F100
7900
7F00
3F00
1FC0
07E0
03F0
01F8
017C
011E
010E
010E
810F
810E
810E
C10E
E11C
F938
1FC0
0100
0100
ENDCHAR
STARTCHAR 0025
ENCODING 37
SWIDTH 822 0
DWIDTH 32 0
BBX 30 26 1 0
BITMAP
0F000180
39800100
30C00300
70E00600
70E00400
E0E00C00
E0E01800
E0E03000
E0E02000
70E06000
70E0C000
30C18000
398101E0
0F030730
00060E38
00040E18
000C0C1C
00181C1C
00301C1C
00201C1C
00601C1C
00C01C1C
00800E1C
01800E38
03000630
060001E0
ENDCHAR
STARTCHAR 0026
ENCODING 38
SWIDTH 771 0
DWIDTH 30 0
BBX 28 26 1 0
BITMAP
001F0000
00718000
00E0C000
01C0C000
01C0E000
01C0C000
01C0C000
01E18000
01E70000
00FE1FE0
00F80F80
00F80700
03F80600
0E3C0C00
1C3E0C00
381E1800
381F1800
780FB000
7007E000
F007E000
F803E010
7803F010
7C06FC30
7E1C7FE0
3FF83FC0
0FC00F80
ENDCHAR
STARTCHAR 0027
ENCODING 39
SWIDTH 180 0
DWIDTH 7 0
BBX 3 11 2 15
BITMAP
E0
E0
E0
E0
E0
E0
E0
E0
40
40
40
ENDCHAR
STARTCHAR 0028
ENCODING 40
SWIDTH 334 0
DWIDTH 13 0
BBX 10 34 2 -8
BITMAP
0040
0180
0300
0600
0C00
1C00
1800
3800
7000
7000
7000
F000
F000
E000
E000
E000
E000
E000
E000
E000
E000
F000
F000
7000
7000
3000
3800
1800
1C00
0C00
0600
0300
0180
0040
ENDCHAR
STARTCHAR 0029
ENCODING 41
SWIDTH 334 0
DWIDTH 13 0
BBX 10 34 1 -8
BITMAP
8000
6000
3000
1800
0C00
0E00
0600
0700
0300
0380
0380
03C0
03C0
01C0
01C0
01C0
01C0
01C0
01C0
01C0
01C0
03C0
03C0
0380
0380
0300
0700
0600
0E00
0C00
1800
3000
6000
8000
ENDCHAR
STARTCHAR 002A
ENCODING 42
SWIDTH 514 0
DWIDTH 20 0
BBX 14 15 3 12
BITMAP
0300
0700
0700
E318
F33C
FA78
1EE0
0300
3EE0
FA78
F33C
E318
0700
0700
0300
ENDCHAR
STARTCHAR 002B
ENCODING 43
SWIDTH 565 0
DWIDTH 22 0
BBX 20 20 1 3
BITMAP
006000
006000
006000
006000
006000
006000
006000
006000
006000
FFFFF0
FFFFF0
006000
006000
006000
006000
006000
006000
006000
006000
006000
ENDCHAR
STARTCHAR 002C
ENCODING 44
SWIDTH 257 0
DWIDTH 10 0
BBX 6 9 2 -6
BITMAP
70
F8
7C
0C
0C
08
18
20
C0
ENDCHAR
STARTCHAR 002D
ENCODING 45
SWIDTH 334 0
DWIDTH 13 0
BBX 9 3 2 7
BITMAP
FF80
FF80
FF80
ENDCHAR
STARTCHAR 002E
ENCODING 46
SWIDTH 257 0
DWIDTH 10 0
BBX 4 3 3 0
BITMAP
E0
F0
E0
ENDCHAR
STARTCHAR 002F
ENCODING 47
SWIDTH 282 0
DWIDTH 11 0
BBX 11 27 0 0
BITMAP
0060
0040
0040
00C0
0080
0180
0180
0100
0300
0300
0200
0600
0600
0400
0C00
0C00
0800
1800
1800
1000
3000
3000
2000
6000
4000
4000
C000
ENDCHAR
STARTCHAR 0030
ENCODING 48
SWIDTH 514 0
DWIDTH 20 0
BBX 17 26 1 0
BITMAP
01E000
063800
0C1C00
1C0E00
380E00
380700
780700
780700
700780
700780
700780
F00780
F00780
F00780
F00780
700780
700780
700780
700700
780700
380700
380E00
1C0E00
0C1C00
063800
03E000
ENDCHAR
STARTCHAR 0031
ENCODING 49
SWIDTH 514 0
DWIDTH 20 0
BBX 10 26 5 0
BITMAP
0C00
7C00
BC00
1C00
1C00
1C00
1C00
1C00
1C00
1C00
1C00
1C00
1C00
1C00
1C00
1C00
1C00
1C00
1C00
1C00
1C00
1C00
1E00
1E00
1E00
FFC0
ENDCHAR
STARTCHAR 0032
ENCODING 50
SWIDTH 514 0
DWIDTH 20 0
BBX 17 26 1 0
BITMAP
07E000
1FF800
3FFC00
307C00
601E00
401E00
800E00
000E00
000E00
000E00
000C00
001C00
001800
003800
003000
006000
00C000
008000
010000
020000
040000
080080
100100
3FFF00
7FFF00
FFFE00
ENDCHAR
STARTCHAR 0033
ENCODING 51
SWIDTH 514 0
DWIDTH 20 0
BBX 14 26 2 0
BITMAP
0FC0
1FE0
3FF0
60F8
8078
0038
0038
0030
0070
0060
00C0
03E0
0FF0
01F8
007C
003C
001C
001C
001C
001C
001C
0018
0010
E030
F840
7F80
ENDCHAR
STARTCHAR 0034
ENCODING 52
SWIDTH 514 0
DWIDTH 20 0
BBX 17 26 1 0
BITMAP
001C00
001C00
003C00
007C00
00DC00
00DC00
019C00
031C00
021C00
061C00
0C1C00
081C00
181C00
301C00
601C00
601C00
C01C00
FFFF80
FFFF80
001C00
001C00
001C00
001C00
001C00
001C00
001C00
ENDCHAR
STARTCHAR 0035
ENCODING 53
SWIDTH 514 0
DWIDTH 20 0
BBX 15 26 2 0
BITMAP
07FE
07FC
0FFC
0800
1800
1800
3000
3E00
7F80
7FE0
07F0
01F8
0078
003C
001C
001C
000E
000C
000C
000C
000C
0018
0030
F060
FFC0
7E00
ENDCHAR
STARTCHAR 0036
ENCODING 54
SWIDTH 514 0
DWIDTH 20 0
BBX 16 26 2 0
BITMAP
001E
00F8
01C0
0380
0F00
0E00
1C00
3800
7800
7800
73F0
FC38
F01C
F01E
E00F
E00F
E00F
E007
E007
F007
700E
700E
380C
381C
0E30
07E0
ENDCHAR
STARTCHAR 0037
ENCODING 55
SWIDTH 514 0
DWIDTH 20 0
BBX 17 26 1 0
BITMAP
1FFF80
3FFF80
3FFF00
700300
400700
800600
000600
000E00
000C00
000C00
001800
001800
001800
003000
003000
003000
006000
006000
006000
00C000
00C000
00C000
018000
018000
018000
030000
ENDCHAR
STARTCHAR 0038
ENCODING 56
SWIDTH 514 0
DWIDTH 20 0
BBX 15 26 2 0
BITMAP
07E0
1C38
301C
700C
600E
600E
700E
700C
781C
3C38
3E70
1FC0
0FC0
07E0
0DF0
18F8
307C
703E
601E
E00E
E00E
6006
700E
380C
1C38
07E0
ENDCHAR
STARTCHAR 0039
ENCODING 57
SWIDTH 514 0
DWIDTH 20 0
BBX 16 26 2 0
BITMAP
07C0
1870
3038
701C
601C
E00E
E00E
E00F
E00F
E00F
E00F
F00F
F00F
780E
3C3E
0FDE
001E
003C
0038
0078
00F0
00E0
01C0
0780
1E00
F800
ENDCHAR
STARTCHAR 003A
ENCODING 58
SWIDTH 282 0
DWIDTH 11 0
BBX 5 18 3 0
BITMAP
70
F8
70
00
00
00
00
00
00
00
00
00
00
00
00
70
F8
70
ENDCHAR
STARTCHAR 003B
ENCODING 59
SWIDTH 282 0
DWIDTH 11 0
BBX 5 24 3 -6
BITMAP
70
F0
70
00
00
00
00
00
00
00
00
00
00
00
00
F0
F8
F8
08
08
18
10
60
80
ENDCHAR
STARTCHAR 003C
ENCODING 60
SWIDTH 565 0
DWIDTH 22 0
BBX 20 19 1 4
BITMAP
000010
000070
0001E0
000F00
003C00
00F000
078000
1E0000
780000
E00000
780000
1E0000
07C000
00F000
003C00
000F00
0001E0
000070
000010
ENDCHAR
STARTCHAR 003D
ENCODING 61
SWIDTH 565 0
DWIDTH 22 0
BBX 20 9 1 9
BITMAP
FFFFF0
FFFFF0
000000
000000
000000
000000
000000
FFFFF0
FFFFF0
ENDCHAR
STARTCHAR 003E
ENCODING 62
SWIDTH 565 0
DWIDTH 22 0
BBX 20 19 1 4
BITMAP
800000
E00000
780000
0F0000
03C000
00F000
003E00
000780
0001E0
000070
0001E0
000780
001E00
00F000
03C000
1F0000
780000
E00000
800000
ENDCHAR
STARTCHAR 003F
ENCODING 63
SWIDTH 437 0
DWIDTH 17 0
BBX 14 26 2 0
BITMAP
0FC0
30E0
6070
C038
C038
E03C
E03C
E03C
6038
0038
0078
0070
00E0
00C0
0180
0180
0100
0200
0200
0200
0200
0000
0000
0700
0F80
0700
ENDCHAR
STARTCHAR 0040
ENCODING 64
SWIDTH 925 0
DWIDTH 36 0
BBX 33 36 2 -9
BITMAP
0003FC0000
001C038000
006000C000
01C0003000
0300001000
0600000800
0C00000C00
1800000400
1800F18600
30039B0200
30060F0200
600E0F0200
601C0F0200
60380E0200
C0380E0200
C0700E0200
C0700E0200
C0E01C0200
C0E01C0600
C0E01C0400
C0E03C0400
C1C0780800
C1C0780800
C0E0B81000
40E3382000
60FE38C080
60781F0100
3000000300
3000000200
1800000400
0C00000800
0600001000
0300002000
01C000C000
0078070000
000FF80000
ENDCHAR
STARTCHAR 0041
ENCODING 65
SWIDTH 720 0
DWIDTH 28 0
BBX 28 26 0 0
BITMAP
00060000
00060000
00060000
000F0000
000F0000
001F8000
001F8000
0033C000
0033C000
0061C000
0061E000
0041E000
00C0F000
00C0F000
01807000
01807800
03FFF800
03003C00
02003C00
06001E00
04001E00
0C000E00
0C000F00
18000F80
3C000FC0
FF003FF0
ENDCHAR
STARTCHAR 0042
ENCODING 66
SWIDTH 668 0
DWIDTH 26 0
BBX 23 26 1 0
BITMAP
FFFF00
3E03E0
1E00F0
1E0078
1E0078
1E003C
1E003C
1E003C
1E0078
1E0078
1E00F0
1E03E0
1FFF80
1E03F0
1E00F8
1E007C
1E003C
1E003E
1E003E
1E003E
1E003E
1E003C
1E007C
1E00F8
3E01F0
FFFF80
ENDCHAR
STARTCHAR 0043
ENCODING 67
SWIDTH 668 0
DWIDTH 26 0
BBX 23 26 1 0
BITMAP
003FC4
01E07E
03801E
0F000E
0E0006
1C0006
3C0002
380002
780002
780000
780000
F80000
F80000
F80000
F80000
780000
780000
780000
7C0000
3C0002
3E0002
1F0004
0F8008
07E030
01FFE0
007F80
ENDCHAR
STARTCHAR 0044
ENCODING 68
SWIDTH 720 0
DWIDTH 28 0
BBX 26 26 1 0
BITMAP
FFFF0000
3E03E000
1E00F800
1E003C00
1E001E00
1E001F00
1E000F00
1E000F80
1E000780
1E000780
1E000780
1E0007C0
1E0007C0
1E0007C0
1E0007C0
1E000780
1E000780
1E000780
1E000F80
1E000F00
1E001E00
1E001E00
1E003C00
1E00F800
3E03E000
FFFF0000
ENDCHAR
STARTCHAR 0045
ENCODING 69
SWIDTH 617 0
DWIDTH 24 0
BBX 22 26 1 0
BITMAP
FFFFF0
1E0070
1E0030
1E0010
1E0010
1E0010
1E0000
1E0000
1E0040
1E0040
1E00C0
1E01C0
1FFFC0
1E01C0
1E00C0
1E0040
1E0040
1E0000
1E0000
1E0004
1E0008
1E0008
1E0018
1E0038
3F0070
FFFFF0
ENDCHAR
STARTCHAR 0046
ENCODING 70
SWIDTH 565 0
DWIDTH 22 0
BBX 19 26 1 0
BITMAP
FFFFE0
3E00E0
1E0060
1E0020
1E0020
1E0020
1E0000
1E0000
1E0100
1E0100
1E0300
1E0300
1FFF00
1E0300
1E0100
1E0100
1E0100
1E0000
1E0000
1E0000
1E0000
1E0000
1E0000
1E0000
3F0000
FFE000
ENDCHAR
STARTCHAR 0047
ENCODING 71
SWIDTH 720 0
DWIDTH 28 0
BBX 27 26 1 0
BITMAP
003FE200
00E07E00
03801E00
07000600
0E000600
1E000200
3C000200
3C000100
78000000
78000000
78000000
F8000000
F8007FE0
F8001F80
F8000F00
78000F00
78000F00
78000F00
7C000F00
3C000F00
1E000F00
1F000F00
0F000F00
03C00F00
01F03E00
003FE000
ENDCHAR
STARTCHAR 0048
ENCODING 72
SWIDTH 720 0
DWIDTH 28 0
BBX 26 26 1 0
BITMAP
FFE1FFC0
3F003F00
1E001E00
1E001E00
1E001E00
1E001E00
1E001E00
1E001E00
1E001E00
1E001E00
1E001E00
1E001E00
1FFFFE00
1E001E00
1E001E00
1E001E00
1E001E00
1E001E00
1E001E00
1E001E00
1E001E00
1E001E00
1E001E00
1E001E00
3F003F00
FFE1FFC0
ENDCHAR
STARTCHAR 0049
ENCODING 73
SWIDTH 334 0
DWIDTH 13 0
BBX 11 26 1 0
BITMAP
FFE0
1F00
1F00
0E00
0E00
0E00
0E00
0E00
0E00
0E00
0E00
0E00
0E00
0E00
0E00
0E00
0E00
0E00
0E00
0E00
0E00
0E00
0E00
1F00
1F00
FFE0
ENDCHAR
STARTCHAR 004A
ENCODING 74
SWIDTH 385 0
DWIDTH 15 0
BBX 14 26 1 0
BITMAP
1FFC
03E0
03C0
01C0
01C0
01C0
01C0
01C0
01C0
01C0
01C0
01C0
01C0
01C0
01C0
01C0
01C0
01C0
01C0
01C0
01C0
E1C0
E180
F380
F300
7C00
ENDCHAR
STARTCHAR 004B
ENCODING 75
SWIDTH 720 0
DWIDTH 28 0
BBX 27 26 1 0
BITMAP
FFE1FF00
3F007C00
1E007000
1E00E000
1E00C000
1E018000
1E030000
1E060000
1E1C0000
1E380000
1E700000
1EE00000
1FE00000
1EF00000
1E780000
1E3C0000
1E1E0000
1E0F0000
1E078000
1E03C000
1E01F000
1E00F800
1E007C00
1E007E00
3F007F80
FFE1FFE0
ENDCHAR
STARTCHAR 004C
ENCODING 76
SWIDTH 617 0
DWIDTH 24 0
BBX 22 26 1 0
BITMAP
FFE000
1F0000
1E0000
1E0000
1E0000
1E0000
1E0000
1E0000
1E0000
1E0000
1E0000
1E0000
1E0000
1E0000
1E0000
1E0000
1E0000
1E0000
1E0000
1E0004
1E0004
1E0008
1E0008
1E0018
3F0070
FFFFF0
ENDCHAR
STARTCHAR 004D
ENCODING 77
SWIDTH 900 0
DWIDTH 35 0
BBX 33 26 1 0
BITMAP
FE00007F80
3F00007C00
1F0000F800
1F8000F800
1F8000B800
1B8001B800
1BC0013800
19C0033800
19E0033800
19E0063800
18F0063800
18F00C3800
18780C3800
1878083800
1838183800
183C103800
181C303800
181E203800
180E603800
180F603800
180F403800
1807C03800
1807807800
1803807800
3C03007C00
FF8103FF80
ENDCHAR
STARTCHAR 004E
ENCODING 78
SWIDTH 720 0
DWIDTH 28 0
BBX 29 26 -1 0
BITMAP
FF000FF8
1F8003C0
07800180
03C00180
03E00180
02F00180
02F80180
02780180
023C0180
021E0180
020F0180
020F0180
02078180
0203C180
0201E180
0200F180
0200F180
02007980
02003D80
02001F80
02000F80
02000F80
06000780
06000380
07000180
3FE00080
ENDCHAR
STARTCHAR 004F
ENCODING 79
SWIDTH 720 0
DWIDTH 28 0
BBX 26 26 1 0
BITMAP
003F8000
01C0E000
07003800
0E001C00
1E001E00
1C000E00
3C000F00
78000780
78000780
78000780
78000780
F80007C0
F80007C0
F80007C0
F80007C0
78000780
78000780
78000780
78000780
3C000F00
3C000E00
1E001E00
0E001C00
07003800
01C0E000
007F8000
ENDCHAR
STARTCHAR 0050
ENCODING 80
SWIDTH 565 0
DWIDTH 22 0
BBX 19 26 1 0
BITMAP
FFFC00
3E0F00
1E0780
1E03C0
1E03E0
1E01E0
1E01E0
1E01E0
1E01E0
1E01E0
1E03C0
1E07C0
1E0F80
1FFE00
1E0000
1E0000
1E0000
1E0000
1E0000
1E0000
1E0000
1E0000
1E0000
1E0000
3F0000
FFE000
ENDCHAR
STARTCHAR 0051
ENCODING 81
SWIDTH 720 0
DWIDTH 28 0
BBX 26 33 1 -7
BITMAP
003F8000
01C0E000
03007800
0E001C00
1E001E00
1C000E00
3C000F00
78000780
78000780
78000780
78000780
F80007C0
F80007C0
F80007C0
F80007C0
78000780
78000780
78000780
78000780
3C000F00
3C000F00
1E001E00
0F001C00
07803800
03C0E000
00FFC000
003F8000
001F8000
0007C000
0003E000
0000F800
00003E00
000003C0
ENDCHAR
STARTCHAR 0052
ENCODING 82
SWIDTH 668 0
DWIDTH 26 0
BBX 25 26 1 0
BITMAP
FFFC0000
3F0F8000
1E03C000
1E01E000
1E01E000
1E01F000
1E00F000
1E01F000
1E01F000
1E01E000
1E03E000
1E07C000
1E0F8000
1FFC0000
1E3C0000
1E1E0000
1E0E0000
1E0F0000
1E078000
1E03C000
1E03C000
1E01E000
1E00F000
1E007800
3F007E00
FFE03F80
ENDCHAR
STARTCHAR 0053
ENCODING 83
SWIDTH 565 0
DWIDTH 22 0
BBX 18 26 2 0
BITMAP
07F100
1C3F00
300F00
700700
700300
F00300
F00100
780100
7C0100
7E0000
3F8000
1FE000
07F800
03FC00
00FF00
003F00
000F80
800780
4003C0
4003C0
400380
600380
600380
700700
7C0E00
47F800
ENDCHAR
STARTCHAR 0054
ENCODING 84
SWIDTH 617 0
DWIDTH 24 0
BBX 22 26 1 0
BITMAP
FFFFFC
E0781C
C0780C
807804
807804
007800
007800
007800
007800
007800
007800
007800
007800
007800
007800
007800
007800
007800
007800
007800
007800
007800
007800
007800
00FC00
07FF00
ENDCHAR
STARTCHAR 0055
ENCODING 85
SWIDTH 720 0
DWIDTH 28 0
BBX 28 26 0 0
BITMAP
FFE01FF0
1F800780
0F000300
0F000300
0F000300
0F000300
0F000300
0F000300
0F000300
0F000300
0F000300
0F000300
0F000300
0F000300
0F000300
0F000300
0F000300
0F000300
0F000300
0F000300
0F000200
07000600
07800400
03C01C00
00E07000
003FC000
ENDCHAR
STARTCHAR 0056
ENCODING 86
SWIDTH 720 0
DWIDTH 28 0
BBX 28 26 0 0
BITMAP
FFE00FF0
3F8007C0
0F000380
0F000300
07000300
07800200
07800600
03C00600
03C00400
01E00C00
01E00800
00E01800
00F01800
00703000
00783000
00782000
003C6000
003C4000
001CC000
001EC000
000E8000
000F8000
00070000
00070000
00060000
00020000
ENDCHAR
STARTCHAR 0057
ENCODING 87
SWIDTH 951 0
DWIDTH 37 0
BBX 36 26 1 0
BITMAP
FF8FFC0FF0
3E03F003C0
3E01E00180
1E01E00100
1E00E00300
0E00F00300
0F00F00200
0F00700600
0700F80600
0780F80400
0780BC0C00
0381BC0800
03C19C1800
01C11E1800
01E31E1000
01E30E3000
00E20F3000
00F60F2000
00F6076000
007407E000
007C07C000
007803C000
003803C000
0038018000
0010018000
0010010000
ENDCHAR
STARTCHAR 0058
ENCODING 88
SWIDTH 720 0
DWIDTH 28 0
BBX 28 26 0 0
BITMAP
7FF83FE0
1FE00F80
07C00700
03C00C00
01E00C00
01F01800
00F03000
00786000
007CC000
003CC000
001F8000
000F0000
000F0000
000F8000
000FC000
001BC000
0031E000
0060F000
0060F000
00C07800
01803C00
03003E00
06001E00
0E001F00
3E001FC0
FF807FF0
ENDCHAR
STARTCHAR 0059
ENCODING 89
SWIDTH 720 0
DWIDTH 28 0
BBX 28 26 0 0
BITMAP
FFE01FF0
3F800780
0F000700
07800600
07800C00
03C00C00
01E01800
01E01800
00F03000
00786000
00386000
003CC000
001D8000
000F8000
000F0000
000F0000
000F0000
000F0000
000F0000
000F0000
000F0000
000F0000
000F0000
000F0000
001F8000
00FFE000
ENDCHAR
STARTCHAR 005A
ENCODING 90
SWIDTH 617 0
DWIDTH 24 0
BBX 22 26 1 0
BITMAP
3FFFF8
3800F0
3001F0
2003E0
2003C0
2007C0
000F80
000F00
001F00
003E00
003C00
007C00
00F800
00F000
01F000
03E000
03C000
07C000
0F8000
0F0004
1F0004
3E0008
3C0008
780018
F80038
FFFFF8
ENDCHAR
STARTCHAR 005B
ENCODING 91
SWIDTH 334 0
DWIDTH 13 0
BBX 9 34 3 -8
BITMAP
FF80
E000
E000
E000
E000
E000
E000
E000
E000
E000
E000
E000
E000
E000
E000
E000
E000
E000
E000
E000
E000
E000
E000
E000
E000
E000
E000
E000
E000
E000
E000
E000
E000
FF80
ENDCHAR
STARTCHAR 005C
ENCODING 92
SWIDTH 282 0
DWIDTH 11 0
BBX 11 27 0 0
BITMAP
C000
4000
4000
6000
2000
2000
3000
1000
1800
1800
0800
0C00
0C00
0400
0600
0600
0200
0300
0300
0100
0180
0180
0080
00C0
0040
0040
0060
ENDCHAR
STARTCHAR 005D
ENCODING 93
SWIDTH 334 0
DWIDTH 13 0
BBX 9 34 1 -8
BITMAP
FF80
0380
0380
0380
0380
0380
0380
0380
0380
0380
0380
0380
0380
0380
0380
0380
0380
0380
0380
0380
0380
0380
0380
0380
0380
0380
0380
0380
0380
0380
0380
0380
0380
FF80
ENDCHAR
STARTCHAR 005E
ENCODING 94
SWIDTH 462 0
DWIDTH 18 0
BBX 16 14 1 12
BITMAP
0080
0180
03C0
0360
0660
0430
0C30
0818
1808
300C
3006
6006
4003
C001
ENDCHAR
STARTCHAR 005F
ENCODING 95
SWIDTH 514 0
DWIDTH 20 0
BBX 20 2 0 -8
BITMAP
FFFFF0
FFFFF0
ENDCHAR
STARTCHAR 0060
ENCODING 96
SWIDTH 334 0
DWIDTH 13 0
BBX 5 6 3 20
BITMAP
F0
70
30
18
18
08
ENDCHAR
STARTCHAR 0061
ENCODING 97
SWIDTH 437 0
DWIDTH 17 0
BBX 16 18 1 0
BITMAP
0FE0
1870
3038
7038
7038
7038
0078
03B8
0E38
1838
3038
7038
F038
F038
F078
78F9
7F3E
1E1C
ENDCHAR
STARTCHAR 0062
ENCODING 98
SWIDTH 514 0
DWIDTH 20 0
BBX 18 27 0 0
BITMAP
0C0000
7C0000
FC0000
1C0000
1C0000
1C0000
1C0000
1C0000
1C0000
1C7C00
1DFE00
1F0F00
1E0780
1C03C0
1C03C0
1C01C0
1C01C0
1C01C0
1C01C0
1C01C0
1C01C0
1C0380
1C0380
1C0300
1E0600
0F0C00
03F000
ENDCHAR
STARTCHAR 0063
ENCODING 99
SWIDTH 437 0
DWIDTH 17 0
BBX 15 18 1 0
BITMAP
03E0
0C38
183C
301C
701E
701C
6000
E000
E000
F000
F000
7002
7802
7C04
3E1C
3FF8
1FF0
07C0
ENDCHAR
STARTCHAR 0064
ENCODING 100
SWIDTH 514 0
DWIDTH 20 0
BBX 19 27 1 0
BITMAP
000300
001F00
003F00
000F00
000F00
000700
000700
000700
000700
03E700
0E3F00
1C1F00
380F00
300F00
700700
700700
F00700
F00700
F00700
F00700
F00700
780700
780700
3C0F00
3E1FE0
1FF780
07C600
ENDCHAR
STARTCHAR 0065
ENCODING 101
SWIDTH 437 0
DWIDTH 17 0
BBX 15 18 1 0
BITMAP
03E0
0C78
103C
301C
601E
601E
7FFE
6000
E000
E000
7000
7002
7802
7C06
3E0C
1FF8
0FF0
07E0
ENDCHAR
STARTCHAR 0066
ENCODING 102
SWIDTH 334 0
DWIDTH 13 0
BBX 16 27 1 0
BITMAP
00FC
011E
020F
0607
0E00
0E00
0E00
0E00
0E00
FFF0
0E00
0E00
0E00
0E00
0E00
0E00
0E00
0E00
0E00
0E00
0E00
0E00
0E00
0E00
0E00
1F00
7FE0
ENDCHAR
STARTCHAR 0067
ENCODING 103
SWIDTH 514 0
DWIDTH 20 0
BBX 18 26 1 -8
BITMAP
03F000
0E3FC0
1C1E00
381E00
380E00
380E00
380E00
380E00
380E00
1C1C00
0E3800
07E000
080000
100000
380000
3FFE00
3FFF80
1FFF80
1001C0
3000C0
600080
E00080
F00100
FC0600
3FFC00
0FE000
ENDCHAR
STARTCHAR 0068
ENCODING 104
SWIDTH 514 0
DWIDTH 20 0
BBX 19 27 0 0
BITMAP
0C0000
3C0000
FC0000
1C0000
1C0000
1C0000
1C0000
1C0000
1C0000
1C3C00
1CFE00
1D8F00
1E0700
1C0700
1C0780
1C0780
1C0780
1C0780
1C0780
1C0780
1C0780
1C0780
1C0780
1C0780
1C0780
1E0780
7F9FE0
ENDCHAR
STARTCHAR 0069
ENCODING 105
SWIDTH 282 0
DWIDTH 11 0
BBX 9 27 1 0
BITMAP
1C00
1E00
1C00
0000
0000
0000
0000
0000
0000
0C00
7C00
FC00
1C00
1C00
1C00
1C00
1C00
1C00
1C00
1C00
1C00
1C00
1C00
1C00
1C00
3E00
FF80
ENDCHAR
STARTCHAR 006A
ENCODING 106
SWIDTH 282 0
DWIDTH 11 0
BBX 11 35 -3 -8
BITMAP
01C0
01E0
01C0
0000
0000
0000
0000
0000
0000
00C0
03C0
0FC0
01C0
01C0
01C0
01C0
01C0
01C0
01C0
01C0
01C0
01C0
01C0
01C0
01C0
01C0
01C0
01C0
01C0
01C0
01C0
0180
E180
F300
7C00
ENDCHAR
STARTCHAR 006B
ENCODING 107
SWIDTH 514 0
DWIDTH 20 0
BBX 20 27 0 0
BITMAP
0C0000
3C0000
FC0000
1C0000
1C0000
1C0000
1C0000
1C0000
1C0000
1C1FE0
1C0700
1C0C00
1C1800
1C3000
1C6000
1CC000
1FC000
1DE000
1CF000
1C7000
1C7800
1C3C00
1C1C00
1C1E00
1C0F00
1E0F80
FF9FF0
ENDCHAR
STARTCHAR 006C
ENCODING 108
SWIDTH 282 0
DWIDTH 11 0
BBX 9 27 1 0
BITMAP
0C00
7C00
FC00
1C00
1C00
1C00
1C00
1C00
1C00
1C00
1C00
1C00
1C00
1C00
1C00
1C00
1C00
1C00
1C00
1C00
1C00
1C00
1C00
1C00
1C00
3E00
FF80
ENDCHAR
STARTCHAR 006D
ENCODING 109
SWIDTH 771 0
DWIDTH 30 0
BBX 30 18 0 0
BITMAP
0C3E0780
3C7F1FC0
FD8FB1E0
1E07C0E0
1C0380E0
1C0380F0
1C0380F0
1C0380F0
1C0380F0
1C0380F0
1C0380F0
1C0380F0
1C0380F0
1C0380F0
1C0380F0
1C0380F0
1E07C0F0
7F9FF3FC
ENDCHAR
STARTCHAR 006E
ENCODING 110
SWIDTH 514 0
DWIDTH 20 0
BBX 19 18 0 0
BITMAP
0C3C00
3CFE00
FD8F00
1E0700
1C0780
1C0780
1C0380
1C0380
1C0380
1C0380
1C0380
1C0380
1C0380
1C0380
1C0780
1C0780
3E0780
7F9FE0
ENDCHAR
STARTCHAR 006F
ENCODING 111
SWIDTH 514 0
DWIDTH 20 0
BBX 17 18 1 0
BITMAP
03F000
0C3C00
181E00
380F00
700700
700780
700780
F00780
F00380
F00380
F00380
700380
780700
780700
3C0600
1C0E00
0E1800
03E000
ENDCHAR
STARTCHAR 0070
ENCODING 112
SWIDTH 514 0
DWIDTH 20 0
BBX 18 26 0 -8
BITMAP
0C7C00
7CFF00
FD0F00
1E0780
1C03C0
1C03C0
1C03C0
1C01C0
1C01C0
1C01C0
1C01C0
1C01C0
1C0180
1C0380
1C0300
1E0700
1F0E00
1DF800
1C0000
1C0000
1C0000
1C0000
1C0000
1C0000
3E0000
FF8000
ENDCHAR
STARTCHAR 0071
ENCODING 113
SWIDTH 514 0
DWIDTH 20 0
BBX 19 26 1 -8
BITMAP
03F300
0E1F00
180F00
380F00
300F00
700700
700700
F00700
F00700
F00700
F00700
F00700
700700
780700
780F00
3E1700
1FE700
078700
000700
000700
000700
000700
000F00
000F00
000F00
003FE0
ENDCHAR
STARTCHAR 0072
ENCODING 114
SWIDTH 334 0
DWIDTH 13 0
BBX 13 18 0 0
BITMAP
0C78
3CF8
FD38
1E00
1C00
1C00
1C00
1C00
1C00
1C00
1C00
1C00
1C00
1C00
1C00
1C00
1E00
FF80
ENDCHAR
STARTCHAR 0073
ENCODING 115
SWIDTH 385 0
DWIDTH 15 0
BBX 12 18 2 0
BITMAP
1E20
61E0
C0E0
C060
C060
E020
F800
7E00
3F80
0FC0
03E0
00F0
8070
8070
C070
C060
F0C0
9F00
ENDCHAR
STARTCHAR 0074
ENCODING 116
SWIDTH 282 0
DWIDTH 11 0
BBX 11 24 0 0
BITMAP
0400
0400
0400
0C00
1C00
3C00
FFC0
1C00
1C00
1C00
1C00
1C00
1C00
1C00
1C00
1C00
1C00
1C00
1C00
1C00
1C00
1E20
0FC0
0780
ENDCHAR
STARTCHAR 0075
ENCODING 117
SWIDTH 514 0
DWIDTH 20 0
BBX 19 18 0 0
BITMAP
FC1F80
3C0780
1C0780
1C0780
1C0780
1C0780
1C0780
1C0780
1C0780
1C0780
1C0780
1C0780
1C0780
1C0780
1E0F80
0E17E0
0FE7C0
07C700
ENDCHAR
STARTCHAR 0076
ENCODING 118
SWIDTH 514 0
DWIDTH 20 0
BBX 19 18 0 0
BITMAP
FF87E0
3E01C0
1C0180
1E0180
0E0100
0F0300
070200
070600
078400
038400
03CC00
01C800
01D800
00F000
00F000
006000
006000
006000
ENDCHAR
STARTCHAR 0077
ENCODING 119
SWIDTH 720 0
DWIDTH 28 0
BBX 28 18 0 0
BITMAP
FF3FC3F0
3C0F00E0
1C0700C0
1C070080
1E078180
0E038100
0E078100
0705C300
070DC200
0789E600
0398E400
0390E400
01F07C00
01E07800
01E07800
00C03800
00C03000
00C01000
ENDCHAR
STARTCHAR 0078
ENCODING 120
SWIDTH 514 0
DWIDTH 20 0
BBX 18 18 1 0
BITMAP
FF3F00
7E1E00
3C0C00
1E1800
0F3000
072000
07C000
03C000
01C000
03E000
02F000
047000
0C7800
183C00
101E00
301E00
701F00
F83FC0
ENDCHAR
STARTCHAR 0079
ENCODING 121
SWIDTH 514 0
DWIDTH 20 0
BBX 19 26 0 -8
BITMAP
FF03E0
3E01C0
1C0180
1E0180
0E0100
0E0300
070300
070600
038600
038400
03CC00
01CC00
01F800
00F800
00F000
007000
007000
002000
006000
004000
00C000
00C000
008000
390000
7E0000
3C0000
ENDCHAR
STARTCHAR 007A
ENCODING 122
SWIDTH 437 0
DWIDTH 17 0
BBX 16 18 1 0
BITMAP
7FFF
601E
403C
403C
0078
00F0
01E0
01E0
03C0
0780
0780
0F00
1E00
1C02
3C02
7802
F006
FFFE
ENDCHAR
STARTCHAR 007B
ENCODING 123
SWIDTH 488 0
DWIDTH 19 0
BBX 11 34 5 -8
BITMAP
0060
0180
0300
0600
0E00
0E00
0E00
0E00
0E00
0E00
0F00
0600
0600
0C00
0C00
3000
C000
3000
0800
0C00
0600
0600
0700
0F00
0E00
0E00
0E00
0E00
0E00
0E00
0600
0300
01C0
0060
ENDCHAR
STARTCHAR 007C
ENCODING 124
SWIDTH 205 0
DWIDTH 8 0
BBX 2 36 3 -9
BITMAP
C0
C0
C0
C0
C0
C0
C0
C0
C0
C0
C0
C0
C0
C0
C0
C0
C0
C0
C0
C0
C0
C0
C0
C0
C0
C0
C0
C0
C0
C0
C0
C0
C0
C0
C0
C0
ENDCHAR
STARTCHAR 007D
ENCODING 125
SWIDTH 488 0
DWIDTH 19 0
BBX 11 34 3 -8
BITMAP
E000
3000
0C00
0C00
0600
0600
0F00
0F00
0E00
0E00
0E00
0E00
0E00
0600
0300
0180
0060
0180
0300
0600
0E00
0E00
0E00
0E00
0E00
0E00
0F00
0700
0600
0600
0C00
1C00
3000
C000
ENDCHAR
STARTCHAR 007E
ENCODING 126
SWIDTH 540 0
DWIDTH 21 0
BBX 21 5 0 8
BITMAP
1F0008
3FE010
61FC30
403FE0
8007C0
ENDCHAR
STARTCHAR 00A0
ENCODING 160
SWIDTH 257 0
DWIDTH 10 0
BBX 0 0 0 0
BITMAP
ENDCHAR
STARTCHAR 00A1
ENCODING 161
SWIDTH 334 0
DWIDTH 13 0
BBX 5 27 4 -8
BITMAP
70
F8
70
00
00
00
20
20
20
20
20
20
70
70
70
70
70
70
70
70
70
70
F8
F8
F8
70
70
ENDCHAR
STARTCHAR 00A2
ENCODING 162
SWIDTH 514 0
DWIDTH 20 0
BBX 15 33 2 -7
BITMAP
000C
0008
0008
0018
0010
0010
0030
0020
03F0
0C78
185C
30DE
709E
708C
7180
7100
F100
F300
7200
7202
7E02
7C04
3E1C
1FF8
0FF0
1FC0
1000
1000
3000
2000
2000
6000
4000
ENDCHAR
STARTCHAR 00A3
ENCODING 163
SWIDTH 514 0
DWIDTH 20 0
BBX 18 26 1 0
BITMAP
007C00
018700
030700
070000
070000
060000
0E0000
0E0000
0F0000
0F0000
0F0000
070000
7FF800
7FF800
070000
070000
070000
070000
070000
060000
060040
7E0080
C7C180
8FFF00
C8FF00
703C00
ENDCHAR
STARTCHAR 00A4
ENCODING 164
SWIDTH 514 0
DWIDTH 20 0
BBX 18 20 1 2
BITMAP
800080
C3E1C0
6FF980
3C1F00
300700
600300
600180
400180
C00180
C00080
C00080
C00180
400180
600180
600300
300700
3C1F00
6FF980
C3F1C0
800080
ENDCHAR
STARTCHAR 00A5
ENCODING 165
SWIDTH 514 0
DWIDTH 20 0
BBX 19 26 0 0
BITMAP
FF07E0
3E01C0
1C0180
1E0100
0E0300
0F0200
0F0600
070600
078C00
038C00
03D800
01D800
01F000
FFFFE0
00E000
00E000
00E000
00E000
FFFFE0
00E000
00E000
00E000
00E000
00F000
01F000
07FE00
ENDCHAR
STARTCHAR 00A6
ENCODING 166
SWIDTH 205 0
DWIDTH 8 0
BBX 2 36 3 -9
BITMAP
C0
C0
C0
C0
C0
C0
C0
C0
C0
C0
C0
C0
C0
C0
C0
00
00
00
00
00
00
00
C0
C0
C0
C0
C0
C0
C0
C0
C0
C0
C0
C0
C0
C0
ENDCHAR
STARTCHAR 00A7
ENCODING 167
SWIDTH 514 0
DWIDTH 20 0
BBX 14 34 3 -8
BITMAP
07C0
1860
1070
3070
3070
3070
3800
3C00
1E00
1F00
0F80
17C0
21E0
40F0
C078
C038
C018
E01C
E008
7008
7818
3E10
1F20
0FC0
07C0
01E0
00E0
0070
3070
7030
3020
3060
18C0
0F80
ENDCHAR
STARTCHAR 00A8
ENCODING 168
SWIDTH 334 0
DWIDTH 13 0
BBX 11 3 1 21
BITMAP
71C0
F1E0
71C0
ENDCHAR
STARTCHAR 00A9
ENCODING 169
SWIDTH 771 0
DWIDTH 30 0
BBX 27 26 1 0
BITMAP
003F8000
00C07000
03000C00
04000600
08000100
101F8980
207078C0
20C01840
41801840
43800820
43800020
C7000020
C7000020
C7000020
C7000020
47800020
43800020
43800840
21C01040
207060C0
101F8180
08000100
0C000600
03000C00
01C07000
003F8000
ENDCHAR
STARTCHAR 00AA
ENCODING 170
SWIDTH 282 0
DWIDTH 11 0
BBX 11 12 0 14
BITMAP
3E00
6380
6380
4380
0380
1F80
3380
6380
E380
E380
E3A0
7DC0
ENDCHAR
STARTCHAR 00AB
ENCODING 171
SWIDTH 514 0
DWIDTH 20 0
BBX 16 18 2 0
BITMAP
0201
0603
0406
0C0E
181C
3818
7038
F070
E0F0
E0F0
F070
7038
3818
181C
0C0C
0406
0603
0201
ENDCHAR
STARTCHAR 00AC
ENCODING 172
SWIDTH 565 0
DWIDTH 22 0
BBX 20 8 1 9
BITMAP
FFFFF0
FFFFF0
000010
000010
000010
000010
000010
000010
ENDCHAR
STARTCHAR 00AD
ENCODING 173
SWIDTH 334 0
DWIDTH 13 0
BBX 9 3 2 7
BITMAP
FF80
FF80
FF80
ENDCHAR
STARTCHAR 00AE
ENCODING 174
SWIDTH 771 0
DWIDTH 30 0
BBX 27 26 1 0
BITMAP
003F8000
00C07000
03000C00
04000600
08000100
13FF8180
20E3C0C0
20E0E040
40E0E040
40E0E020
40E0E020
C0E0E020
C0E3C020
C0FF0020
C0E70020
40E38020
40E38020
40E1C040
20E0E040
20E070C0
13F87980
08000100
0C000600
03000C00
01C07000
003F8000
ENDCHAR
STARTCHAR 00AF
ENCODING 175
SWIDTH 514 0
DWIDTH 20 0
BBX 20 2 0 28
BITMAP
FFFFF0
FFFFF0
ENDCHAR
STARTCHAR 00B0
ENCODING 176
SWIDTH 411 0
DWIDTH 16 0
BBX 12 12 2 14
BITMAP
1F00
3FC0
70C0
C060
C020
C030
8030
C020
C060
70C0
3FC0
1F00
ENDCHAR
STARTCHAR 00B1
ENCODING 177
SWIDTH 540 0
DWIDTH 21 0
BBX 21 20 0 3
BITMAP
002000
002000
002000
002000
002000
002000
002000
002000
002000
FFFFF8
FFFFF8
002000
002000
002000
002000
002000
002000
002000
FFFFF8
FFFFF8
ENDCHAR
STARTCHAR 00B2
ENCODING 178
SWIDTH 308 0
DWIDTH 12 0
BBX 11 14 0 12
BITMAP
1F00
3F80
63C0
41C0
00C0
01C0
0180
0300
0200
0400
0800
1020
7FC0
FFC0
ENDCHAR
STARTCHAR 00B3
ENCODING 179
SWIDTH 308 0
DWIDTH 12 0
BBX 9 14 1 12
BITMAP
3E00
7F00
C700
0300
0300
0600
3E00
0700
0380
0180
0180
0100
E200
FC00
ENDCHAR
STARTCHAR 00B4
ENCODING 180
SWIDTH 334 0
DWIDTH 13 0
BBX 5 6 5 20
BITMAP
78
70
60
C0
C0
80
ENDCHAR
STARTCHAR 00B5
ENCODING 181
SWIDTH 565 0
DWIDTH 22 0
BBX 18 26 3 -8
BITMAP
701C00
701C00
701C00
701C00
701C00
701C00
701C00
701C00
701C00
701C00
701C00
701C00
701C00
701C00
703C00
78DE40
7F8F80
5E0F00
400000
C00000
C00000
E00000
E00000
E00000
E00000
C00000
ENDCHAR
STARTCHAR 00B6
ENCODING 182
SWIDTH 462 0
DWIDTH 18 0
BBX 18 34 0 -8
BITMAP
07FFC0
1FC200
7FC200
7FC200
FFC200
FFC200
FFC200
FFC200
FFC200
FFC200
7FC200
7FC200
3FC200
07C200
004200
004200
004200
004200
004200
004200
004200
004200
004200
004200
004200
004200
004200
004200
004200
004200
004200
004200
004200
004200
ENDCHAR
STARTCHAR 00B7
ENCODING 183
SWIDTH 334 0
DWIDTH 13 0
BBX 5 3 4 11
BITMAP
70
F8
70
ENDCHAR
STARTCHAR 00B8
ENCODING 184
SWIDTH 334 0
DWIDTH 13 0
BBX 5 8 4 -8
BITMAP
10
20
30
78
38
18
38
F0
ENDCHAR
STARTCHAR 00B9
ENCODING 185
SWIDTH 308 0
DWIDTH 12 0
BBX 6 14 3 12
BITMAP
30
F0
30
30
30
30
30
30
30
30
30
30
30
FC
ENDCHAR
STARTCHAR 00BA
ENCODING 186
SWIDTH 308 0
DWIDTH 12 0
BBX 11 12 1 14
BITMAP
1E00
6380
61C0
C1C0
C0C0
C0E0
C0E0
E0C0
E0C0
E080
7180
1E00
ENDCHAR
STARTCHAR 00BB
ENCODING 187
SWIDTH 514 0
DWIDTH 20 0
BBX 17 18 1 0
BITMAP
C04000
602000
203000
301800
181C00
1C0C00
0E0E00
0F0700
070780
070780
0F0700
0E0E00
1C0C00
181C00
301800
603000
602000
C04000
ENDCHAR
STARTCHAR 00BC
ENCODING 188
SWIDTH 745 0
DWIDTH 29 0
BBX 26 26 3 0
BITMAP
70000800
F0001800
30003000
30006000
30006000
3000C000
30018000
30010000
30030000
30060000
30040000
300C0000
30180300
FC100700
00300F00
00601F00
00401700
00C03700
01806700
01004700
03008700
06018700
0C01FFC0
0C000700
18000700
30000700
ENDCHAR
STARTCHAR 00BD
ENCODING 189
SWIDTH 745 0
DWIDTH 29 0
BBX 25 27 3 -1
BITMAP
70001800
F0003000
30002000
30006000
3000C000
30008000
30018000
30030000
30020000
30060000
300C0000
30080000
30180000
FC303C00
0020FF00
00608700
00C10300
01800300
01000300
03000200
06000600
04000C00
0C001800
18003000
10006080
3000FF80
0001FF80
ENDCHAR
STARTCHAR 00BE
ENCODING 190
SWIDTH 745 0
DWIDTH 29 0
BBX 28 26 1 0
BITMAP
3E000600
7F000400
87000C00
03001800
03001000
0E003000
3E006000
07004000
0380C000
01818000
01830000
03020000
C20600C0
FC0C01C0
000803C0
001807C0
003005C0
00200DC0
006019C0
00C031C0
008021C0
018061C0
03007FF0
020001C0
060001C0
0C0001C0
ENDCHAR
STARTCHAR 00BF
ENCODING 191
SWIDTH 437 0
DWIDTH 17 0
BBX 14 27 2 -8
BITMAP
0700
0F80
0700
0000
0000
0200
0200
0200
0200
0600
0400
0C00
1800
1800
3800
7000
7000
F000
E038
E038
E03C
E01C
E018
F018
7010
3C20
0FC0
ENDCHAR
STARTCHAR 00C0
ENCODING 192
SWIDTH 720 0
DWIDTH 28 0
BBX 28 34 0 0
BITMAP
003C0000
001E0000
000E0000
00060000
00030000
00010000
00000000
00000000
00060000
00060000
00060000
000F0000
000F0000
001F8000
001F8000
0033C000
0033C000
0061C000
0061E000
0041E000
00C0F000
00C0F000
01807000
01807800
03FFF800
03003C00
02003C00
06001E00
04001E00
0C000E00
0C000F00
18000F80
3C000FC0
FF003FF0
ENDCHAR
STARTCHAR 00C1
ENCODING 193
SWIDTH 720 0
DWIDTH 28 0
BBX 28 34 0 0
BITMAP
0003C000
00078000
00070000
00060000
000C0000
00080000
00000000
00000000
00060000
00060000
00060000
000F0000
000F0000
001F8000
001F8000
0033C000
0033C000
0061C000
0061E000
0041E000
00C0F000
00C0F000
01807000
01807800
03FFF800
03003C00
02003C00
06001E00
04001E00
0C000E00
0C000F00
18000F80
3C000FC0
FF003FF0
ENDCHAR
STARTCHAR 00C2
ENCODING 194
SWIDTH 720 0
DWIDTH 28 0
BBX 28 34 0 0
BITMAP
000F0000
001F8000
001B8000
0030C000
00204000
00402000
00000000
00000000
00060000
00060000
00060000
000F0000
000F0000
001F8000
001F8000
0033C000
0033C000
0061C000
0061E000
0041E000
00C0F000
00C0F000
01807000
01807800
03FFF800
03003C00
02003C00
06001E00
04001E00
0C000E00
0C000F00
18000F80
3C000FC0
FF003FF0
ENDCHAR
STARTCHAR 00C3
ENCODING 195
SWIDTH 720 0
DWIDTH 28 0
BBX 28 33 0 0
BITMAP
00381000
007E1000
008F1000
0087E000
0081C000
00000000
00000000
00060000
00060000
00060000
000F0000
000F0000
001F8000
001F8000
0033C000
0033C000
0061C000
0061E000
0041E000
00C0F000
00C0F000
01807000
01807800
03FFF800
03003C00
02003C00
06001E00
04001E00
0C000E00
0C000F00
18000F80
3C000FC0
FF003FF0
ENDCHAR
STARTCHAR 00C4
ENCODING 196
SWIDTH 720 0
DWIDTH 28 0
BBX 28 31 0 0
BITMAP
0070E000
0079E000
0070E000
00000000
00000000
00060000
00060000
00060000
000F0000
000F0000
001F8000
001F8000
0033C000
0033C000
0061C000
0061E000
0041E000
00C0F000
00C0F000
01807000
01807800
03FFF800
03003C00
02003C00
06001E00
04001E00
0C000E00
0C000F00
18000F80
3C000FC0
FF003FF0
ENDCHAR
STARTCHAR 00C5
ENCODING 197
SWIDTH 720 0
DWIDTH 28 0
BBX 28 31 0 0
BITMAP
000F0000
00118000
0030C000
0030C000
00118000
000F0000
00060000
00060000
000F0000
000F0000
001F8000
001F8000
0033C000
0033C000
0061C000
0061E000
0041E000
00C0F000
00C0F000
01807000
01807800
03FFF800
03003C00
02003C00
06001E00
04001E00
0C000E00
0C000F00
18000F80
3C000FC0
FF003FF0
ENDCHAR
STARTCHAR 00C6
ENCODING 198
SWIDTH 900 0
DWIDTH 35 0
BBX 33 26 0 0
BITMAP
003FFFFE00
0007F00600
0006F00200
0006F00200
0004F00200
000CF00100
0008F00000
0018F00000
0010F00800
0030F00800
0060F00800
0060F01800
00C0FFF800
00C0F01800
0180F00800
01FFF00800
0300F00800
0300F00000
0600F00000
0400F00080
0C00F00080
0800F00080
1800F00180
1800F00300
7801F00700
FF0FFFFF00
ENDCHAR
STARTCHAR 00C7
ENCODING 199
SWIDTH 668 0
DWIDTH 26 0
BBX 23 34 1 -8
BITMAP
003FC4
01E07E
03801E
0F000E
0E0006
1C0006
3C0002
380002
780002
780000
780000
F80000
F80000
F80000
F80000
780000
780000
780000
7C0000
3C0002
3E0002
1F0004
0F8008
07E030
01FFE0
007F80
000800
001800
001C00
003E00
000E00
000E00
001C00
007800
ENDCHAR
STARTCHAR 00C8
ENCODING 200
SWIDTH 617 0
DWIDTH 24 0
BBX 22 34 1 0
BITMAP
01E000
00E000
007000
003000
001800
000800
000000
000000
FFFFF0
1E0070
1E0030
1E0010
1E0010
1E0010
1E0000
1E0000
1E0040
1E0040
1E00C0
1E01C0
1FFFC0
1E01C0
1E00C0
1E0040
1E0040
1E0000
1E0000
1E0004
1E0008
1E0008
1E0018
1E0038
3F0070
FFFFF0
ENDCHAR
STARTCHAR 00C9
ENCODING 201
SWIDTH 617 0
DWIDTH 24 0
BBX 22 34 1 0
BITMAP
001E00
003C00
003800
003000
006000
004000
000000
000000
FFFFF0
1E0070
1E0030
1E0010
1E0010
1E0010
1E0000
1E0000
1E0040
1E0040
1E00C0
1E01C0
1FFFC0
1E01C0
1E00C0
1E0040
1E0040
1E0000
1E0000
1E0004
1E0008
1E0008
1E0018
1E0038
3F0070
FFFFF0
ENDCHAR
STARTCHAR 00CA
ENCODING 202
SWIDTH 617 0
DWIDTH 24 0
BBX 22 34 1 0
BITMAP
007800
00FC00
00DC00
018E00
010200
020100
000000
000000
FFFFF0
1E0070
1E0030
1E0010
1E0010
1E0010
1E0000
1E0000
1E0040
1E0040
1E00C0
1E01C0
1FFFC0
1E01C0
1E00C0
1E0040
1E0040
1E0000
1E0000
1E0004
1E0008
1E0008
1E0018
1E0038
3F0070
FFFFF0
ENDCHAR
STARTCHAR 00CB
ENCODING 203
SWIDTH 617 0
DWIDTH 24 0
BBX 22 31 1 0
BITMAP
038700
03CF00
038700
000000
000000
FFFFF0
1E0070
1E0030
1E0010
1E0010
1E0010
1E0000
1E0000
1E0040
1E0040
1E00C0
1E01C0
1FFFC0
1E01C0
1E00C0
1E0040
1E0040
1E0000
1E0000
1E0004
1E0008
1E0008
1E0018
1E0038
3F0070
FFFFF0
ENDCHAR
STARTCHAR 00CC
ENCODING 204
SWIDTH 334 0
DWIDTH 13 0
BBX 11 34 1 0
BITMAP
3C00
1C00
0C00
0600
0600
0200
0000
0000
FFE0
1F00
1F00
0E00
0E00
0E00
0E00
0E00
0E00
0E00
0E00
0E00
0E00
0E00
0E00
0E00
0E00
0E00
0E00
0E00
0E00
0E00
0E00
1F00
1F00
FFE0
ENDCHAR
STARTCHAR 00CD
ENCODING 205
SWIDTH 334 0
DWIDTH 13 0
BBX 11 34 1 0
BITMAP
0780
0700
0600
0C00
0C00
0800
0000
0000
FFE0
1F00
1F00
0E00
0E00
0E00
0E00
0E00
0E00
0E00
0E00
0E00
0E00
0E00
0E00
0E00
0E00
0E00
0E00
0E00
0E00
0E00
0E00
1F00
1F00
FFE0
ENDCHAR
STARTCHAR 00CE
ENCODING 206
SWIDTH 334 0
DWIDTH 13 0
BBX 11 34 1 0
BITMAP
1F00
1F00
3B80
2180
40C0
8020
0000
0000
FFE0
1F00
1F00
0E00
0E00
0E00
0E00
0E00
0E00
0E00
0E00
0E00
0E00
0E00
0E00
0E00
0E00
0E00
0E00
0E00
0E00
0E00
0E00
1F00
1F00
FFE0
ENDCHAR
STARTCHAR 00CF
ENCODING 207
SWIDTH 334 0
DWIDTH 13 0
BBX 11 31 1 0
BITMAP
71C0
F1E0
71C0
0000
0000
FFE0
1F00
1F00
0E00
0E00
0E00
0E00
0E00
0E00
0E00
0E00
0E00
0E00
0E00
0E00
0E00
0E00
0E00
0E00
0E00
0E00
0E00
0E00
1F00
1F00
FFE0
ENDCHAR
STARTCHAR 00D0
ENCODING 208
SWIDTH 720 0
DWIDTH 28 0
BBX 26 26 1 0
BITMAP
FFFF0000
3F03E000
1E00F800
1E003C00
1E001E00
1E001F00
1E000F00
1E000F80
1E000780
1E000780
1E000780
1E0007C0
FFFE07C0
1E0007C0
1E0007C0
1E000780
1E000780
1E000780
1E000F80
1E000F00
1E001E00
1E001E00
1E003C00
1E00F800
3E03E000
FFFF0000
ENDCHAR
STARTCHAR 00D1
ENCODING 209
SWIDTH 720 0
DWIDTH 28 0
BBX 29 33 -1 0
BITMAP
001C0800
003F0800
00478800
0043F000
0040E000
00000000
00000000
FF000FF8
1F8003C0
07800180
03C00180
03E00180
02F00180
02F80180
02780180
023C0180
021E0180
020F0180
020F0180
02078180
0203C180
0201E180
0200F180
0200F180
02007980
02003D80
02001F80
02000F80
02000F80
06000780
06000380
07000180
3FE00080
ENDCHAR
STARTCHAR 00D2
ENCODING 210
SWIDTH 720 0
DWIDTH 28 0
BBX 26 34 1 0
BITMAP
00780000
00380000
001C0000
000C0000
00060000
00020000
00000000
00000000
003F8000
01C0E000
07003800
0E001C00
1E001E00
1C000E00
3C000F00
78000780
78000780
78000780
78000780
F80007C0
F80007C0
F80007C0
F80007C0
78000780
78000780
78000780
78000780
3C000F00
3C000E00
1E001E00
0E001C00
07003800
01C0E000
007F8000
ENDCHAR
STARTCHAR 00D3
ENCODING 211
SWIDTH 720 0
DWIDTH 28 0
BBX 26 34 1 0
BITMAP
00078000
000F0000
000E0000
000C0000
00180000
00100000
00000000
00000000
003F8000
01C0E000
07003800
0E001C00
1E001E00
1C000E00
3C000F00
78000780
78000780
78000780
78000780
F80007C0
F80007C0
F80007C0
F80007C0
78000780
78000780
78000780
78000780
3C000F00
3C000E00
1E001E00
0E001C00
07003800
01C0E000
007F8000
ENDCHAR
STARTCHAR 00D4
ENCODING 212
SWIDTH 720 0
DWIDTH 28 0
BBX 26 34 1 0
BITMAP
001E0000
003F0000
00370000
00638000
00C08000
00804000
00000000
00000000
003F8000
01C0E000
07003800
0E001C00
1E001E00
1C000E00
3C000F00
78000780
78000780
78000780
78000780
F80007C0
F80007C0
F80007C0
F80007C0
78000780
78000780
78000780
78000780
3C000F00
3C000E00
1E001E00
0E001C00
07003800
01C0E000
007F8000
ENDCHAR
STARTCHAR 00D5
ENCODING 213
SWIDTH 720 0
DWIDTH 28 0
BBX 26 33 1 0
BITMAP
00702000
00FC2000
011E2000
010FC000
01038000
00000000
00000000
003F8000
01C0E000
07003800
0E001C00
1E001E00
1C000E00
3C000F00
78000780
78000780
78000780
78000780
F80007C0
F80007C0
F80007C0
F80007C0
78000780
78000780
78000780
78000780
3C000F00
3C000E00
1E001E00
0E001C00
07003800
01C0E000
007F8000
ENDCHAR
STARTCHAR 00D6
ENCODING 214
SWIDTH 720 0
DWIDTH 28 0
BBX 26 31 1 0
BITMAP
00E1C000
00F3C000
00E1C000
00000000
00000000
003F8000
01C0E000
07003800
0E001C00
1E001E00
1C000E00
3C000F00
78000780
78000780
78000780
78000780
F80007C0
F80007C0
F80007C0
F80007C0
78000780
78000780
78000780
78000780
3C000F00
3C000E00
1E001E00
0E001C00
07003800
01C0E000
007F8000
ENDCHAR
STARTCHAR 00D7
ENCODING 215
SWIDTH 565 0
DWIDTH 22 0
BBX 16 16 3 5
BITMAP
4002
E007
700E
381C
1C38
0E70
07E0
03C0
03C0
07E0
0E70
1C38
381C
700E
E007
4002
ENDCHAR
STARTCHAR 00D8
ENCODING 216
SWIDTH 720 0
DWIDTH 28 0
BBX 26 26 1 0
BITMAP
007F8100
01C0E300
03007E00
0E003C00
1E001E00
1C001F00
3C002F00
78006780
7800C780
78018780
780307C0
F80207C0
F80407C0
F80C07C0
F81807C0
78300780
78600780
78400780
78800700
3D800F00
3F000E00
1E001E00
0F001C00
0F803000
11C0E000
203F0000
ENDCHAR
STARTCHAR 00D9
ENCODING 217
SWIDTH 720 0
DWIDTH 28 0
BBX 28 34 0 0
BITMAP
001E0000
000E0000
00070000
00030000
00010000
00008000
00000000
00000000
FFE01FF0
1F800780
0F000300
0F000300
0F000300
0F000300
0F000300
0F000300
0F000300
0F000300
0F000300
0F000300
0F000300
0F000300
0F000300
0F000300
0F000300
0F000300
0F000300
0F000300
0F000200
07000600
07800400
03C01C00
00E07000
003FC000
ENDCHAR
STARTCHAR 00DA
ENCODING 218
SWIDTH 720 0
DWIDTH 28 0
BBX 28 34 0 0
BITMAP
0003C000
00038000
00070000
00060000
00040000
00080000
00000000
00000000
FFE01FF0
1F800780
0F000300
0F000300
0F000300
0F000300
0F000300
0F000300
0F000300
0F000300
0F000300
0F000300
0F000300
0F000300
0F000300
0F000300
0F000300
0F000300
0F000300
0F000300
0F000200
07000600
07800400
03C01C00
00E07000
003FC000
ENDCHAR
STARTCHAR 00DB
ENCODING 219
SWIDTH 720 0
DWIDTH 28 0
BBX 28 34 0 0
BITMAP
00078000
000FC000
000DC000
0018E000
00302000
00201000
00000000
00000000
FFE01FF0
1F800780
0F000300
0F000300
0F000300
0F000300
0F000300
0F000300
0F000300
0F000300
0F000300
0F000300
0F000300
0F000300
0F000300
0F000300
0F000300
0F000300
0F000300
0F000300
0F000200
07000600
07800400
03C01C00
00E07000
003FC000
ENDCHAR
STARTCHAR 00DC
ENCODING 220
SWIDTH 720 0
DWIDTH 28 0
BBX 28 31 0 0
BITMAP
00387000
007CF000
00387000
00000000
00000000
FFE01FF0
1F800780
0F000300
0F000300
0F000300
0F000300
0F000300
0F000300
0F000300
0F000300
0F000300
0F000300
0F000300
0F000300
0F000300
0F000300
0F000300
0F000300
0F000300
0F000300
0F000200
07000600
07800400
03C01C00
00E07000
003FC000
ENDCHAR
STARTCHAR 00DD
ENCODING 221
SWIDTH 720 0
DWIDTH 28 0
BBX 28 34 0 0
BITMAP
0001E000
0003C000
00038000
00030000
00060000
00040000
00000000
00000000
FFE01FF0
3F800780
0F000700
07800600
07800C00
03C00C00
01E01800
01E01800
00F03000
00786000
00386000
003CC000
001D8000
000F8000
000F0000
000F0000
000F0000
000F0000
000F0000
000F0000
000F0000
000F0000
000F0000
000F0000
001F8000
00FFE000
ENDCHAR
STARTCHAR 00DE
ENCODING 222
SWIDTH 565 0
DWIDTH 22 0
BBX 19 26 1 0
BITMAP
FFE000
3F0000
1E0000
1E0000
1E0000
1E0000
1FFC00
1E0F00
1E0780
1E03C0
1E03E0
1E01E0
1E01E0
1E01E0
1E01E0
1E03E0
1E03C0
1E0780
1E1F00
1FFC00
1E0000
1E0000
1E0000
1E0000
3F0000
FFE000
ENDCHAR
STARTCHAR 00DF
ENCODING 223
SWIDTH 514 0
DWIDTH 20 0
BBX 17 27 1 0
BITMAP
03F000
0E1C00
0C0E00
1C0E00
1C0E00
380F00
380F00
380F00
380E00
380E00
381800
38F800
383E00
380F00
380700
380780
380780
380380
380380
380380
380380
380380
380380
380300
39C700
39C600
F8F800
ENDCHAR
STARTCHAR 00E0
ENCODING 224
SWIDTH 437 0
DWIDTH 17 0
BBX 16 26 1 0
BITMAP
0F00
0780
0380
0180
00C0
0040
0000
0000
0FE0
1870
3038
7038
7038
7038
0078
03B8
0E38
1838
3038
7038
F038
F038
F078
78F9
7F3E
1E1C
ENDCHAR
STARTCHAR 00E1
ENCODING 225
SWIDTH 437 0
DWIDTH 17 0
BBX 16 26 1 0
BITMAP
00F0
01E0
01C0
0180
0300
0200
0000
0000
0FE0
1870
3038
7038
7038
7038
0078
03B8
0E38
1838
3038
7038
F038
F038
F078
78F9
7F3E
1E1C
ENDCHAR
STARTCHAR 00E2
ENCODING 226
SWIDTH 437 0
DWIDTH 17 0
BBX 16 26 1 0
BITMAP
03C0
07C0
0EE0
0C70
1810
1008
0000
0000
0FE0
1870
3038
7038
7038
7038
0078
03B8
0E38
1838
3038
7038
F038
F038
F078
78F9
7F3E
1E1C
ENDCHAR
STARTCHAR 00E3
ENCODING 227
SWIDTH 437 0
DWIDTH 17 0
BBX 16 25 1 0
BITMAP
0E04
3F84
27C8
21F8
40F0
0000
0000
0FE0
1870
3038
7038
7038
7038
0078
03B8
0E38
1838
3038
7038
F038
F038
F078
78F9
7F3E
1E1C
ENDCHAR
STARTCHAR 00E4
ENCODING 228
SWIDTH 437 0
DWIDTH 17 0
BBX 16 23 1 0
BITMAP
1C38
3C78
1C38
0000
0000
0FE0
1870
3038
7038
7038
7038
0078
03B8
0E38
1838
3038
7038
F038
F038
F078
78F9
7F3E
1E1C
ENDCHAR
STARTCHAR 00E5
ENCODING 229
SWIDTH 437 0
DWIDTH 17 0
BBX 16 26 1 0
BITMAP
03C0
0460
0820
0820
0460
03C0
0000
0000
0FE0
1870
3038
7038
7038
7038
0078
03B8
0E38
1838
3038
7038
F038
F038
F078
78F9
7F3E
1E1C
ENDCHAR
STARTCHAR 00E6
ENCODING 230
SWIDTH 668 0
DWIDTH 26 0
BBX 24 18 1 0
BITMAP
0FE1F0
38763C
307C1E
70380E
70380F
30380F
00FFFF
033800
0C3800
183800
703800
703801
F03C03
F03C02
F03F0E
78CFFC
7F87F8
1E03E0
ENDCHAR
STARTCHAR 00E7
ENCODING 231
SWIDTH 437 0
DWIDTH 17 0
BBX 15 26 1 -8
BITMAP
03E0
0C38
183C
301C
701E
701C
6000
E000
E000
F000
F000
7002
7802
7C04
3E1C
3FF8
1FF0
07C0
0080
0100
0180
03C0
00E0
00C0
01C0
0780
ENDCHAR
STARTCHAR 00E8
ENCODING 232
SWIDTH 437 0
DWIDTH 17 0
BBX 15 26 1 0
BITMAP
0780
0380
01C0
00C0
0040
0020
0000
0000
03E0
0C78
103C
301C
601E
601E
7FFE
6000
E000
E000
7000
7002
7802
7C06
3E0C
1FF8
0FF0
07E0
ENDCHAR
STARTCHAR 00E9
ENCODING 233
SWIDTH 437 0
DWIDTH 17 0
BBX 15 26 1 0
BITMAP
00F0
01E0
01C0
0180
0300
0200
0000
0000
03E0
0C78
103C
301C
601E
601E
7FFE
6000
E000
E000
7000
7002
7802
7C06
3E0C
1FF8
0FF0
07E0
ENDCHAR
STARTCHAR 00EA
ENCODING 234
SWIDTH 437 0
DWIDTH 17 0
BBX 15 26 1 0
BITMAP
03C0
03E0
0670
0430
0818
100C
0000
0000
03E0
0C78
103C
301C
601E
601E
7FFE
6000
E000
E000
7000
7002
7802
7C06
3E0C
1FF8
0FF0
07E0
ENDCHAR
STARTCHAR 00EB
ENCODING 235
SWIDTH 437 0
DWIDTH 17 0
BBX 15 23 1 0
BITMAP
0E38
1E3C
0E38
0000
0000
03E0
0C78
103C
301C
601E
601E
7FFE
6000
E000
E000
7000
7002
7802
7C06
3E0C
1FF8
0FF0
07E0
ENDCHAR
STARTCHAR 00EC
ENCODING 236
SWIDTH 282 0
DWIDTH 11 0
BBX 9 26 1 0
BITMAP
7800
3800
1C00
0C00
0400
0200
0000
0000
0C00
7C00
FC00
1C00
1C00
1C00
1C00
1C00
1C00
1C00
1C00
1C00
1C00
1C00
1C00
1C00
3E00
FF80
ENDCHAR
STARTCHAR 00ED
ENCODING 237
SWIDTH 282 0
DWIDTH 11 0
BBX 9 26 1 0
BITMAP
0F00
0E00
1C00
1800
1000
2000
0000
0000
0C00
7C00
FC00
1C00
1C00
1C00
1C00
1C00
1C00
1C00
1C00
1C00
1C00
1C00
1C00
1C00
3E00
FF80
ENDCHAR
STARTCHAR 00EE
ENCODING 238
SWIDTH 282 0
DWIDTH 11 0
BBX 11 26 0 0
BITMAP
0F00
1F00
3B80
3180
40C0
8020
0000
0000
0600
3E00
7E00
0E00
0E00
0E00
0E00
0E00
0E00
0E00
0E00
0E00
0E00
0E00
0E00
0E00
1F00
7FC0
ENDCHAR
STARTCHAR 00EF
ENCODING 239
SWIDTH 282 0
DWIDTH 11 0
BBX 11 23 0 0
BITMAP
71C0
F1E0
71C0
0000
0000
0600
3E00
7E00
0E00
0E00
0E00
0E00
0E00
0E00
0E00
0E00
0E00
0E00
0E00
0E00
0E00
1F00
7FC0
ENDCHAR
STARTCHAR 00F0
ENCODING 240
SWIDTH 514 0
DWIDTH 20 0
BBX 17 27 1 0
BITMAP
080400
0E1800
03E000
01C000
07E000
0C7000
103800
003C00
001C00
03FE00
0C3E00
181F00
300F00
700F00
700780
700780
F00780
F00780
F00380
F00380
700780
780700
780700
380600
1C0C00
0F1800
03E000
ENDCHAR
STARTCHAR 00F1
ENCODING 241
SWIDTH 514 0
DWIDTH 20 0
BBX 19 25 0 0
BITMAP
038100
0FE100
09F200
087E00
103C00
000000
000000
0C3C00
3CFE00
FD8F00
1E0700
1C0780
1C0780
1C0380
1C0380
1C0380
1C0380
1C0380
1C0380
1C0380
1C0380
1C0780
1C0780
3E0780
7F9FE0
ENDCHAR
STARTCHAR 00F2
ENCODING 242
SWIDTH 514 0
DWIDTH 20 0
BBX 17 26 1 0
BITMAP
078000
038000
01C000
00C000
006000
002000
000000
000000
03F000
0C3C00
181E00
380F00
700700
700780
700780
F00780
F00380
F00380
F00380
700380
780700
780700
3C0600
1C0E00
0E1800
03E000
ENDCHAR
STARTCHAR 00F3
ENCODING 243
SWIDTH 514 0
DWIDTH 20 0
BBX 17 26 1 0
BITMAP
00F000
00E000
00C000
01C000
018000
010000
000000
000000
03F000
0C3C00
181E00
380F00
700700
700780
700780
F00780
F00380
F00380
F00380
700380
780700
780700
3C0600
1C0E00
0E1800
03E000
ENDCHAR
STARTCHAR 00F4
ENCODING 244
SWIDTH 514 0
DWIDTH 20 0
BBX 17 26 1 0
BITMAP
01E000
03F000
037000
063800
0C0800
080400
000000
000000
03F000
0C3C00
181E00
380F00
700700
700780
700780
F00780
F00380
F00380
F00380
700380
780700
780700
3C0600
1C0E00
0E1800
03E000
ENDCHAR
STARTCHAR 00F5
ENCODING 245
SWIDTH 514 0
DWIDTH 20 0
BBX 17 25 1 0
BITMAP
070200
1FC200
13E400
10FC00
207800
000000
000000
03F000
0C3C00
181E00
380F00
700700
700780
700780
F00780
F00380
F00380
F00380
700380
780700
780700
3C0600
1C0E00
0E1800
03E000
ENDCHAR
STARTCHAR 00F6
ENCODING 246
SWIDTH 514 0
DWIDTH 20 0
BBX 17 23 1 0
BITMAP
0E1C00
1E3C00
0E1C00
000000
000000
03F000
0C3C00
181E00
380F00
700700
700780
700780
F00780
F00380
F00380
F00380
700380
780700
780700
3C0600
1C0E00
0E1800
03E000
ENDCHAR
STARTCHAR 00F7
ENCODING 247
SWIDTH 540 0
DWIDTH 21 0
BBX 21 16 0 5
BITMAP
007000
007000
007000
000000
000000
000000
000000
FFFFF8
FFFFF8
000000
000000
000000
000000
007000
007000
007000
ENDCHAR
STARTCHAR 00F8
ENCODING 248
SWIDTH 514 0
DWIDTH 20 0
BBX 17 20 1 -1
BITMAP
000080
03F080
0C3D00
181E00
380F00
300F00
701F80
703780
706780
F0C380
F18380
710380
720380
7C0300
7C0700
3C0600
3C0E00
6E1800
C3F000
800000
ENDCHAR
STARTCHAR 00F9
ENCODING 249
SWIDTH 514 0
DWIDTH 20 0
BBX 19 26 0 0
BITMAP
03C000
01E000
00E000
006000
003000
001000
000000
000000
FC1F80
3C0780
1C0780
1C0780
1C0780
1C0780
1C0780
1C0780
1C0780
1C0780
1C0780
1C0780
1C0780
1C0780
1E0F80
0E17E0
0FE7C0
07C700
ENDCHAR
STARTCHAR 00FA
ENCODING 250
SWIDTH 514 0
DWIDTH 20 0
BBX 19 26 0 0
BITMAP
007800
007000
00E000
00C000
008000
010000
000000
000000
FC1F80
3C0780
1C0780
1C0780
1C0780
1C0780
1C0780
1C0780
1C0780
1C0780
1C0780
1C0780
1C0780
1C0780
1E0F80
0E17E0
0FE7C0
07C700
ENDCHAR
STARTCHAR 00FB
ENCODING 251
SWIDTH 514 0
DWIDTH 20 0
BBX 19 26 0 0
BITMAP
00F000
01F000
01B800
031C00
060400
040200
000000
000000
FC1F80
3C0780
1C0780
1C0780
1C0780
1C0780
1C0780
1C0780
1C0780
1C0780
1C0780
1C0780
1C0780
1C0780
1E0F80
0E17E0
0FE7C0
07C700
ENDCHAR
STARTCHAR 00FC
ENCODING 252
SWIDTH 514 0
DWIDTH 20 0
BBX 19 23 0 0
BITMAP
070E00
0F1E00
070E00
000000
000000
FC1F80
3C0780
1C0780
1C0780
1C0780
1C0780
1C0780
1C0780
1C0780
1C0780
1C0780
1C0780
1C0780
1C0780
1E0F80
0E17E0
0FE7C0
07C700
ENDCHAR
STARTCHAR 00FD
ENCODING 253
SWIDTH 514 0
DWIDTH 20 0
BBX 19 34 0 -8
BITMAP
003800
007800
007000
006000
00C000
008000
000000
000000
FF03E0
3E01C0
1C0180
1E0180
0E0100
0E0300
070300
070600
038600
038400
03CC00
01CC00
01F800
00F800
00F000
007000
007000
002000
006000
004000
00C000
00C000
008000
390000
7E0000
3C0000
ENDCHAR
STARTCHAR 00FE
ENCODING 254
SWIDTH 514 0
DWIDTH 20 0
BBX 18 35 0 -8
BITMAP
0C0000
7C0000
FC0000
1C0000
1C0000
1C0000
1C0000
1C0000
1C0000
1C7C00
1CFF00
1D0F00
1E0780
1C03C0
1C03C0
1C03C0
1C01C0
1C01C0
1C01C0
1C01C0
1C01C0
1C0180
1C0380
1C0300
1E0700
1F0E00
1DF800
1C0000
1C0000
1C0000
1C0000
1C0000
1C0000
3E0000
FF8000
ENDCHAR
STARTCHAR 00FF
ENCODING 255
SWIDTH 514 0
DWIDTH 20 0
BBX 19 31 0 -8
BITMAP
038E00
078F00
038E00
000000
000000
FF03E0
3E01C0
1C0180
1E0180
0E0100
0E0300
070300
070600
038600
038400
03CC00
01CC00
01F800
00F800
00F000
007000
007000
002000
006000
004000
00C000
00C000
008000
390000
7E0000
3C0000
ENDCHAR
STARTCHAR 0100
ENCODING 256
SWIDTH 720 0
DWIDTH 28 0
BBX 28 30 0 0
BITMAP
00FFF000
00FFF000
00000000
00000000
00060000
00060000
00060000
000F0000
000F0000
001F8000
001F8000
0033C000
0033C000
0061C000
0061E000
0041E000
00C0F000
00C0F000
01807000
01807800
03FFF800
03003C00
02003C00
06001E00
04001E00
0C000E00
0C000F00
18000F80
3C000FC0
FF003FF0
ENDCHAR
STARTCHAR 0101
ENCODING 257
SWIDTH 437 0
DWIDTH 17 0
BBX 16 23 1 0
BITMAP
3FFC
3FFC
0000
0000
0000
0FE0
1870
3038
7038
7038
7038
0078
03B8
0E38
1838
3038
7038
F038
F038
F078
78F9
7F3E
1E1C
ENDCHAR
STARTCHAR 0102
ENCODING 258
SWIDTH 720 0
DWIDTH 28 0
BBX 28 33 0 0
BITMAP
00402000
00606000
007FE000
003FC000
000F0000
00000000
00000000
00060000
00060000
00060000
000F0000
000F0000
001F8000
001F8000
0033C000
0033C000
0061C000
0061E000
0041E000
00C0F000
00C0F000
01807000
01807800
03FFF800
03003C00
02003C00
06001E00
04001E00
0C000E00
0C000F00
18000F80
3C000FC0
FF003FF0
ENDCHAR
STARTCHAR 0103
ENCODING 259
SWIDTH 437 0
DWIDTH 17 0
BBX 16 25 1 0
BITMAP
2008
3818
1FF0
0FE0
07C0
0000
0000
0FE0
1870
3038
7038
7038
7038
0078
03B8
0E38
1838
3038
7038
F038
F038
F078
78F9
7F3E
1E1C
ENDCHAR
STARTCHAR 0104
ENCODING 260
SWIDTH 720 0
DWIDTH 28 0
BBX 28 34 0 -8
BITMAP
00060000
00060000
00060000
000F0000
000F0000
001F8000
001F8000
0033C000
0033C000
0061C000
0061E000
0041E000
00C0F000
00C0F000
01807000
01807800
03FFF800
03003C00
02003C00
06001E00
04001E00
0C000E00
0C000F00
18000F80
3C000FC0
FF003FF0
00000200
00000400
00000C00
00001800
00001800
00001800
00001C00
00000F80
ENDCHAR
STARTCHAR 0105
ENCODING 261
SWIDTH 437 0
DWIDTH 17 0
BBX 16 26 1 -8
BITMAP
0FE0
1870
3038
7038
7038
7038
0078
03B8
0E38
1838
3038
7038
F038
F038
F078
78F9
7F3E
1E1C
0008
0010
0030
0060
0060
0060
0070
003E
ENDCHAR
STARTCHAR 0106
ENCODING 262
SWIDTH 668 0
DWIDTH 26 0
BBX 23 34 1 0
BITMAP
000780
000700
000600
000C00
000800
001000
000000
000000
003FC4
01E07E
03801E
0F000E
0E0006
1C0006
3C0002
380002
780002
780000
780000
F80000
F80000
F80000
F80000
780000
780000
780000
7C0000
3C0002
3E0002
1F0004
0F8008
07E030
01FFE0
007F80
ENDCHAR
STARTCHAR 0107
ENCODING 263
SWIDTH 437 0
DWIDTH 17 0
BBX 15 26 1 0
BITMAP
00F0
00E0
01C0
0180
0100
0200
0000
0000
03E0
0C38
183C
301C
701E
701C
6000
E000
E000
F000
F000
7002
7802
7C04
3E1C
3FF8
1FF0
07C0
ENDCHAR
STARTCHAR 0108
ENCODING 264
SWIDTH 668 0
DWIDTH 26 0
BBX 23 34 1 0
BITMAP
001E00
003E00
007700
006300
008180
010040
000000
000000
003FC4
01E07E
03801E
0F000E
0E0006
1C0006
3C0002
380002
780002
780000
780000
F80000
F80000
F80000
F80000
780000
780000
780000
7C0000
3C0002
3E0002
1F0004
0F8008
07E030
01FFE0
007F80
ENDCHAR
STARTCHAR 0109
ENCODING 265
SWIDTH 437 0
DWIDTH 17 0
BBX 15 26 1 0
BITMAP
03C0
07C0
0EE0
0C70
1830
2008
0000
0000
03E0
0C38
183C
301C
701E
701C
6000
E000
E000
F000
F000
7002
7802
7C04
3E1C
3FF8
1FF0
07C0
ENDCHAR
STARTCHAR 010A
ENCODING 266
SWIDTH 668 0
DWIDTH 26 0
BBX 23 31 1 0
BITMAP
001C00
001E00
001C00
000000
000000
003FC4
01E07E
03801E
0F000E
0E0006
1C0006
3C0002
380002
780002
780000
780000
F80000
F80000
F80000
F80000
780000
780000
780000
7C0000
3C0002
3E0002
1F0004
0F8008
07E030
01FFE0
007F80
ENDCHAR
STARTCHAR 010B
ENCODING 267
SWIDTH 437 0
DWIDTH 17 0
BBX 15 24 1 0
BITMAP
0380
03C0
0380
0000
0000
0000
03E0
0C38
183C
301C
701E
701C
6000
E000
E000
F000
F000
7002
7802
7C04
3E1C
3FF8
1FF0
07C0
ENDCHAR
STARTCHAR 010C
ENCODING 268
SWIDTH 668 0
DWIDTH 26 0
BBX 23 34 1 0
BITMAP
008040
006040
003180
003B80
001F00
001F00
000000
000000
003FC4
01E07E
03801E
0F000E
0E0006
1C0006
3C0002
380002
780002
780000
780000
F80000
F80000
F80000
F80000
780000
780000
780000
7C0000
3C0002
3E0002
1F0004
0F8008
07E030
01FFE0
007F80
ENDCHAR
STARTCHAR 010D
ENCODING 269
SWIDTH 437 0
DWIDTH 17 0
BBX 15 26 1 0
BITMAP
1008
0C08
0630
0770
03E0
03C0
0000
0000
03E0
0C38
183C
301C
701E
701C
6000
E000
E000
F000
F000
7002
7802
7C04
3E1C
3FF8
1FF0
07C0
ENDCHAR
STARTCHAR 010E
ENCODING 270
SWIDTH 720 0
DWIDTH 28 0
BBX 26 34 1 0
BITMAP
01008000
00810000
00C30000
00760000
007E0000
003C0000
00000000
00000000
FFFF0000
3E03E000
1E00F800
1E003C00
1E001E00
1E001F00
1E000F00
1E000F80
1E000780
1E000780
1E000780
1E0007C0
1E0007C0
1E0007C0
1E0007C0
1E000780
1E000780
1E000780
1E000F80
1E000F00
1E001E00
1E001E00
1E003C00
1E00F800
3E03E000
FFFF0000
ENDCHAR
STARTCHAR 010F
ENCODING 271
SWIDTH 642 0
DWIDTH 25 0
BBX 24 27 1 0
BITMAP
00031C
001F3E
003F1F
000F03
000F03
000702
000706
00070C
000710
03E700
0E3F00
1C1F00
380F00
300F00
700700
700700
F00700
F00700
F00700
F00700
F00700
780700
780700
3C0F00
3E1FE0
1FF780
07C600
ENDCHAR
STARTCHAR 0110
ENCODING 272
SWIDTH 720 0
DWIDTH 28 0
BBX 26 26 1 0
BITMAP
FFFF0000
3F03E000
1E00F800
1E003C00
1E001E00
1E001F00
1E000F00
1E000F80
1E000780
1E000780
1E000780
1E0007C0
FFFE07C0
1E0007C0
1E0007C0
1E000780
1E000780
1E000780
1E000F80
1E000F00
1E001E00
1E001E00
1E003C00
1E00F800
3E03E000
FFFF0000
ENDCHAR
STARTCHAR 0111
ENCODING 273
SWIDTH 514 0
DWIDTH 20 0
BBX 18 27 1 0
BITMAP
000600
003E00
007E00
000E00
000E00
000E00
03FFC0
000E00
000E00
07EE00
0C3E00
181E00
301E00
700E00
600E00
E00E00
E00E00
E00E00
E00E00
E00E00
F00E00
F00E00
F80E00
780E00
3E3FC0
1FEF80
0F8C00
ENDCHAR
STARTCHAR 0112
ENCODING 274
SWIDTH 617 0
DWIDTH 24 0
BBX 22 30 1 0
BITMAP
07FF80
07FF80
000000
000000
FFFFF0
1E0070
1E0030
1E0010
1E0010
1E0010
1E0000
1E0000
1E0040
1E0040
1E00C0
1E01C0
1FFFC0
1E01C0
1E00C0
1E0040
1E0040
1E0000
1E0000
1E0004
1E0008
1E0008
1E0018
1E0038
3F0070
FFFFF0
ENDCHAR
STARTCHAR 0113
ENCODING 275
SWIDTH 437 0
DWIDTH 17 0
BBX 15 23 1 0
BITMAP
3FFC
3FFC
0000
0000
0000
03E0
0C78
103C
301C
601E
601E
7FFE
6000
E000
E000
7000
7002
7802
7C06
3E0C
1FF8
0FF0
07E0
ENDCHAR
STARTCHAR 0114
ENCODING 276
SWIDTH 617 0
DWIDTH 24 0
BBX 22 33 1 0
BITMAP
040100
030300
03FF00
01FE00
007800
000000
000000
FFFFF0
1E0070
1E0030
1E0010
1E0010
1E0010
1E0000
1E0000
1E0040
1E0040
1E00C0
1E01C0
1FFFC0
1E01C0
1E00C0
1E0040
1E0040
1E0000
1E0000
1E0004
1E0008
1E0008
1E0018
1E0038
3F0070
FFFFF0
ENDCHAR
STARTCHAR 0115
ENCODING 277
SWIDTH 437 0
DWIDTH 17 0
BBX 15 25 1 0
BITMAP
2008
1818
1FF0
0FF0
07C0
0000
0000
03E0
0C78
103C
301C
601E
601E
7FFE
6000
E000
E000
7000
7002
7802
7C06
3E0C
1FF8
0FF0
07E0
ENDCHAR
STARTCHAR 0116
ENCODING 278
SWIDTH 617 0
DWIDTH 24 0
BBX 22 31 1 0
BITMAP
007000
007800
007000
000000
000000
FFFFF0
1E0070
1E0030
1E0010
1E0010
1E0010
1E0000
1E0000
1E0040
1E0040
1E00C0
1E01C0
1FFFC0
1E01C0
1E00C0
1E0040
1E0040
1E0000
1E0000
1E0004
1E0008
1E0008
1E0018
1E0038
3F0070
FFFFF0
ENDCHAR
STARTCHAR 0117
ENCODING 279
SWIDTH 437 0
DWIDTH 17 0
BBX 15 24 1 0
BITMAP
0380
03C0
0380
0000
0000
0000
03E0
0C78
103C
301C
601E
601E
7FFE
6000
E000
E000
7000
7002
7802
7C06
3E0C
1FF8
0FF0
07E0
ENDCHAR
STARTCHAR 0118
ENCODING 280
SWIDTH 617 0
DWIDTH 24 0
BBX 22 34 1 -8
BITMAP
FFFFF0
1E0070
1E0030
1E0010
1E0010
1E0010
1E0000
1E0000
1E0040
1E0040
1E00C0
1E01C0
1FFFC0
1E01C0
1E00C0
1E0040
1E0040
1E0000
1E0000
1E0004
1E0008
1E0008
1E0018
1E0038
3F0070
FFFFF0
0000C0
000180
000300
000300
000700
000700
000300
0003E0
ENDCHAR
STARTCHAR 0119
ENCODING 281
SWIDTH 437 0
DWIDTH 17 0
BBX 15 26 1 -8
BITMAP
03E0
0C78
103C
301C
601E
601E
7FFE
6000
E000
E000
7000
7002
7802
7C06
3E0C
1FF8
0FF0
07F0
0060
00C0
0180
0180
0380
0380
0180
01F0
ENDCHAR
STARTCHAR 011A
ENCODING 282
SWIDTH 617 0
DWIDTH 24 0
BBX 22 34 1 0
BITMAP
020100
030200
018600
00EC00
00FC00
007800
000000
000000
FFFFF0
1E0070
1E0030
1E0010
1E0010
1E0010
1E0000
1E0000
1E0040
1E0040
1E00C0
1E01C0
1FFFC0
1E01C0
1E00C0
1E0040
1E0040
1E0000
1E0000
1E0004
1E0008
1E0008
1E0018
1E0038
3F0070
FFFFF0
ENDCHAR
STARTCHAR 011B
ENCODING 283
SWIDTH 437 0
DWIDTH 17 0
BBX 15 26 1 0
BITMAP
1008
0818
0E30
0770
03E0
03C0
0000
0000
03E0
0C78
103C
301C
601E
601E
7FFE
6000
E000
E000
7000
7002
7802
7C06
3E0C
1FF8
0FF0
07E0
ENDCHAR
STARTCHAR 011C
ENCODING 284
SWIDTH 720 0
DWIDTH 28 0
BBX 27 34 1 0
BITMAP
000F0000
001F0000
003B8000
0031C000
0060C000
00802000
00000000
00000000
003FE200
00E07E00
03801E00
07000600
0E000600
1E000200
3C000200
3C000100
78000000
78000000
78000000
F8000000
F8007FE0
F8001F80
F8000F00
78000F00
78000F00
78000F00
7C000F00
3C000F00
1E000F00
1F000F00
0F000F00
03C00F00
01F03E00
003FE000
ENDCHAR
STARTCHAR 011D
ENCODING 285
SWIDTH 514 0
DWIDTH 20 0
BBX 18 34 1 -8
BITMAP
01E000
03E000
077000
063800
0C0800
080400
000000
000000
03F000
0E3FC0
1C1E00
381E00
380E00
380E00
380E00
380E00
380E00
1C1C00
0E3800
07E000
080000
100000
380000
3FFE00
3FFF80
1FFF80
1001C0
3000C0
600080
E00080
F00100
FC0600
3FFC00
0FE000
ENDCHAR
STARTCHAR 011E
ENCODING 286
SWIDTH 720 0
DWIDTH 28 0
BBX 27 33 1 0
BITMAP
00401000
00607000
003FE000
001FC000
000F8000
00000000
00000000
003FE200
00E07E00
03801E00
07000600
0E000600
1E000200
3C000200
3C000100
78000000
78000000
78000000
F8000000
F8007FE0
F8001F80
F8000F00
78000F00
78000F00
78000F00
7C000F00
3C000F00
1E000F00
1F000F00
0F000F00
03C00F00
01F03E00
003FE000
ENDCHAR
STARTCHAR 011F
ENCODING 287
SWIDTH 514 0
DWIDTH 20 0
BBX 18 33 1 -8
BITMAP
080400
0C0C00
0FFC00
07F800
01E000
000000
000000
03F000
0E3FC0
1C1E00
381E00
380E00
380E00
380E00
380E00
380E00
1C1C00
0E3800
07E000
080000
100000
380000
3FFE00
3FFF80
1FFF80
1001C0
3000C0
600080
E00080
F00100
FC0600
3FFC00
0FE000
ENDCHAR
STARTCHAR 0120
ENCODING 288
SWIDTH 720 0
DWIDTH 28 0
BBX 27 31 1 0
BITMAP
000E0000
001F0000
000E0000
00000000
00000000
003FE200
00E07E00
03801E00
07000600
0E000600
1E000200
3C000200
3C000100
78000000
78000000
78000000
F8000000
F8007FE0
F8001F80
F8000F00
78000F00
78000F00
78000F00
7C000F00
3C000F00
1E000F00
1F000F00
0F000F00
03C00F00
01F03E00
003FE000
ENDCHAR
STARTCHAR 0121
ENCODING 289
SWIDTH 514 0
DWIDTH 20 0
BBX 18 32 1 -8
BITMAP
01C000
01E000
01C000
000000
000000
000000
03F000
0E3FC0
1C1E00
381E00
380E00
380E00
380E00
380E00
380E00
1C1C00
0E3800
07E000
080000
100000
380000
3FFE00
3FFF80
1FFF80
1001C0
3000C0
600080
E00080
F00100
FC0600
3FFC00
0FE000
ENDCHAR
STARTCHAR 0122
ENCODING 290
SWIDTH 720 0
DWIDTH 28 0
BBX 27 34 1 -8
BITMAP
003FE200
00E07E00
03801E00
07000600
0E000600
1E000200
3C000200
3C000100
78000000
78000000
78000000
F8000000
F8007FE0
F8001F80
F8000F00
78000F00
78000F00
78000F00
7C000F00
3C000F00
1E000F00
1F000F00
0F000F00
03C00F00
01F03E00
003FE000
00000000
00070000
00078000
00038000
00018000
00018000
00038000
000E0000
ENDCHAR
STARTCHAR 0123
ENCODING 291
SWIDTH 514 0
DWIDTH 20 0
BBX 18 37 1 -8
BITMAP
006000
018000
010000
030000
03E000
03E000
01E000
00C000
000000
000000
000000
03F000
0E3FC0
1C1E00
381E00
380E00
380E00
380E00
380E00
380E00
1C1C00
0E3800
07E000
080000
100000
380000
3FFE00
3FFF80
1FFF80
1001C0
3000C0
600080
E00080
F00100
FC0600
3FFC00
0FE000
ENDCHAR
STARTCHAR 0124
ENCODING 292
SWIDTH 720 0
DWIDTH 28 0
BBX 26 34 1 0
BITMAP
001E0000
003F0000
00370000
00618000
0040C000
00804000
00000000
00000000
FFE1FFC0
3F003F00
1E001E00
1E001E00
1E001E00
1E001E00
1E001E00
1E001E00
1E001E00
1E001E00
1E001E00
1E001E00
1FFFFE00
1E001E00
1E001E00
1E001E00
1E001E00
1E001E00
1E001E00
1E001E00
1E001E00
1E001E00
1E001E00
1E001E00
3F003F00
FFE1FFC0
ENDCHAR
STARTCHAR 0125
ENCODING 293
SWIDTH 514 0
DWIDTH 20 0
BBX 19 34 0 0
BITMAP
00F000
01F000
03B800
031C00
060400
040200
000000
0C0000
3C0000
FC0000
1C0000
1C0000
1C0000
1C0000
1C0000
1C0000
1C3C00
1CFE00
1D8F00
1E0700
1C0700
1C0780
1C0780
1C0780
1C0780
1C0780
1C0780
1C0780
1C0780
1C0780
1C0780
1C0780
1E0780
7F9FE0
ENDCHAR
STARTCHAR 0126
ENCODING 294
SWIDTH 720 0
DWIDTH 28 0
BBX 26 26 1 0
BITMAP
FFE1FFC0
3F003F00
1E001E00
1E001E00
FFFFFFC0
1E001E00
1E001E00
1E001E00
1E001E00
1E001E00
1E001E00
1E001E00
1FFFFE00
1E001E00
1E001E00
1E001E00
1E001E00
1E001E00
1E001E00
1E001E00
1E001E00
1E001E00
1E001E00
1E001E00
3F003F00
FFE1FFC0
ENDCHAR
STARTCHAR 0127
ENCODING 295
SWIDTH 514 0
DWIDTH 20 0
BBX 19 27 0 0
BITMAP
0C0000
3C0000
FC0000
1C0000
1C0000
1C0000
FFF000
1C0000
1C0000
1C3C00
1CFE00
1D8F00
1E0700
1C0700
1C0780
1C0780
1C0380
1C0380
1C0380
1C0380
1C0380
1C0380
1C0380
1C0780
1C0780
1E0780
7F9FE0
ENDCHAR
STARTCHAR 0128
ENCODING 296
SWIDTH 334 0
DWIDTH 13 0
BBX 13 33 0 0
BITMAP
3C08
7E08
4F90
87F0
81E0
0000
0000
7FF0
0F80
0F80
0700
0700
0700
0700
0700
0700
0700
0700
0700
0700
0700
0700
0700
0700
0700
0700
0700
0700
0700
0700
0F80
0F80
7FF0
ENDCHAR
STARTCHAR 0129
ENCODING 297
SWIDTH 282 0
DWIDTH 11 0
BBX 13 26 -1 0
BITMAP
3C08
7E10
4F90
87F0
81E0
0000
0000
0000
0300
1F00
3F00
0700
0700
0700
0700
0700
0700
0700
0700
0700
0700
0700
0700
0700
0F80
3FE0
ENDCHAR
STARTCHAR 012A
ENCODING 298
SWIDTH 334 0
DWIDTH 13 0
BBX 13 30 0 0
BITMAP
FFF8
FFF8
0000
0000
7FF0
0F80
0F80
0700
0700
0700
0700
0700
0700
0700
0700
0700
0700
0700
0700
0700
0700
0700
0700
0700
0700
0700
0700
0F80
0F80
7FF0
ENDCHAR
STARTCHAR 012B
ENCODING 299
SWIDTH 282 0
DWIDTH 11 0
BBX 12 23 -1 0
BITMAP
FFF0
FFF0
0000
0000
0000
0300
1F00
3F00
0700
0700
0700
0700
0700
0700
0700
0700
0700
0700
0700
0700
0700
0F80
3FE0
ENDCHAR
STARTCHAR 012C
ENCODING 300
SWIDTH 334 0
DWIDTH 13 0
BBX 11 33 1 0
BITMAP
8020
E060
7FC0
3F80
1F00
0000
0000
FFE0
1F00
1F00
0E00
0E00
0E00
0E00
0E00
0E00
0E00
0E00
0E00
0E00
0E00
0E00
0E00
0E00
0E00
0E00
0E00
0E00
0E00
0E00
1F00
1F00
FFE0
ENDCHAR
STARTCHAR 012D
ENCODING 301
SWIDTH 282 0
DWIDTH 11 0
BBX 11 26 0 0
BITMAP
8020
C0E0
7FC0
3F80
1F00
0000
0000
0000
0600
3E00
7E00
0E00
0E00
0E00
0E00
0E00
0E00
0E00
0E00
0E00
0E00
0E00
0E00
0E00
1F00
7FC0
ENDCHAR
STARTCHAR 012E
ENCODING 302
SWIDTH 334 0
DWIDTH 13 0
BBX 11 34 1 -8
BITMAP
FFE0
1F00
1F00
0E00
0E00
0E00
0E00
0E00
0E00
0E00
0E00
0E00
0E00
0E00
0E00
0E00
0E00
0E00
0E00
0E00
0E00
0E00
0E00
1F00
1F00
FFE0
0600
0C00
1800
1800
3800
3800
1800
1F00
ENDCHAR
STARTCHAR 012F
ENCODING 303
SWIDTH 282 0
DWIDTH 11 0
BBX 9 35 1 -8
BITMAP
1C00
1E00
1C00
0000
0000
0000
0000
0000
0000
0C00
7C00
FC00
1C00
1C00
1C00
1C00
1C00
1C00
1C00
1C00
1C00
1C00
1C00
1C00
1C00
3E00
FF80
0800
1800
3000
7000
7000
7000
7000
3E00
ENDCHAR
STARTCHAR 0130
ENCODING 304
SWIDTH 334 0
DWIDTH 13 0
BBX 11 31 1 0
BITMAP
0E00
1F00
0E00
0000
0000
FFE0
1F00
1F00
0E00
0E00
0E00
0E00
0E00
0E00
0E00
0E00
0E00
0E00
0E00
0E00
0E00
0E00
0E00
0E00
0E00
0E00
0E00
0E00
1F00
1F00
FFE0
ENDCHAR
STARTCHAR 0131
ENCODING 305
SWIDTH 282 0
DWIDTH 11 0
BBX 9 18 1 0
BITMAP
0C00
7C00
FC00
1C00
1C00
1C00
1C00
1C00
1C00
1C00
1C00
1C00
1C00
1C00
1C00
1C00
3E00
FF80
ENDCHAR
STARTCHAR 0132
ENCODING 306
SWIDTH 720 0
DWIDTH 28 0
BBX 26 26 1 0
BITMAP
FFE1FFC0
1F003F00
1E001E00
0E001E00
0E001E00
0E001E00
0E001E00
0E001E00
0E001E00
0E001E00
0E001E00
0E001E00
0E001E00
0E001E00
0E001E00
0E001E00
0E001E00
0E001E00
0E001E00
0E001E00
0E001C00
0E061C00
0E0F1C00
1E0F1800
1F079000
FFE3E000
ENDCHAR
STARTCHAR 0133
ENCODING 307
SWIDTH 565 0
DWIDTH 22 0
BBX 17 35 1 -8
BITMAP
1C0380
1E0780
1C0380
000000
000000
000000
000000
000000
000000
0C0180
7C0F80
FC1F80
1C0380
1C0380
1C0380
1C0380
1C0380
1C0380
1C0380
1C0380
1C0380
1C0380
1C0380
1C0380
1C0380
3E0380
FF8380
000380
000380
000380
000300
000300
01C200
01E400
00F800
ENDCHAR
STARTCHAR 0134
ENCODING 308
SWIDTH 385 0
DWIDTH 15 0
BBX 14 34 1 0
BITMAP
03C0
03E0
06E0
0C30
0818
1008
0000
0000
1FFC
03E0
03C0
01C0
01C0
01C0
01C0
01C0
01C0
01C0
01C0
01C0
01C0
01C0
01C0
01C0
01C0
01C0
01C0
01C0
01C0
E1C0
E180
F380
F300
7C00
ENDCHAR
STARTCHAR 0135
ENCODING 309
SWIDTH 282 0
DWIDTH 11 0
BBX 13 34 -3 -8
BITMAP
03C0
03E0
0670
0430
0818
1008
0000
0000
00C0
03C0
0FC0
01C0
01C0
01C0
01C0
01C0
01C0
01C0
01C0
01C0
01C0
01C0
01C0
01C0
01C0
01C0
01C0
01C0
01C0
01C0
0180
E180
F300
7C00
ENDCHAR
STARTCHAR 0136
ENCODING 310
SWIDTH 720 0
DWIDTH 28 0
BBX 27 34 1 -8
BITMAP
FFE1FF00
3F007C00
1E007000
1E00E000
1E00C000
1E018000
1E030000
1E060000
1E1C0000
1E380000
1E700000
1EE00000
1FE00000
1EF00000
1E780000
1E3C0000
1E1E0000
1E0F0000
1E078000
1E03C000
1E01F000
1E00F800
1E007C00
1E007E00
3F007F80
FFE1FFE0
00000000
001E0000
001F0000
00070000
00070000
00070000
000E0000
003C0000
ENDCHAR
STARTCHAR 0137
ENCODING 311
SWIDTH 514 0
DWIDTH 20 0
BBX 20 35 0 -8
BITMAP
0C0000
3C0000
FC0000
1C0000
1C0000
1C0000
1C0000
1C0000
1C0000
1C1FE0
1C0700
1C0C00
1C1800
1C3000
1C6000
1CC000
1FC000
1DE000
1CF000
1C7000
1C7800
1C3C00
1C1C00
1C1E00
1C0F00
1E0F80
FF9FF0
000000
00E000
00F000
003800
003800
003000
007000
01E000
ENDCHAR
STARTCHAR 0138
ENCODING 312
SWIDTH 514 0
DWIDTH 20 0
BBX 20 18 0 0
BITMAP
FF9FE0
1E0F00
1E0C00
1C1800
1C3000
1C6000
1CC000
1DC000
1FE000
1CE000
1CF000
1C7800
1C3C00
1C1E00
1C1E00
1C0F00
1E0F80
FF9FF0
ENDCHAR
STARTCHAR 0139
ENCODING 313
SWIDTH 617 0
DWIDTH 24 0
BBX 22 34 1 0
BITMAP
007800
007000
00E000
00C000
008000
010000
000000
000000
FFE000
1F0000
1E0000
1E0000
1E0000
1E0000
1E0000
1E0000
1E0000
1E0000
1E0000
1E0000
1E0000
1E0000
1E0000
1E0000
1E0000
1E0000
1E0000
1E0004
1E0004
1E0008
1E0008
1E0018
3F0070
FFFFF0
ENDCHAR
STARTCHAR 013A
ENCODING 314
SWIDTH 282 0
DWIDTH 11 0
BBX 9 35 1 0
BITMAP
0F00
0E00
0C00
1C00
1800
1000
0000
0000
0C00
7C00
FC00
1C00
1C00
1C00
1C00
1C00
1C00
1C00
1C00
1C00
1C00
1C00
1C00
1C00
1C00
1C00
1C00
1C00
1C00
1C00
1C00
1C00
1C00
3E00
FF80
ENDCHAR
STARTCHAR 013B
ENCODING 315
SWIDTH 617 0
DWIDTH 24 0
BBX 22 34 1 -8
BITMAP
FFE000
1F0000
1E0000
1E0000
1E0000
1E0000
1E0000
1E0000
1E0000
1E0000
1E0000
1E0000
1E0000
1E0000
1E0000
1E0000
1E0000
1E0000
1E0000
1E0004
1E0004
1E0008
1E0008
1E0018
3F0070
FFFFF0
000000
007800
007800
001C00
001C00
001C00
003800
00F000
ENDCHAR
STARTCHAR 013C
ENCODING 316
SWIDTH 282 0
DWIDTH 11 0
BBX 9 35 1 -8
BITMAP
0C00
7C00
FC00
1C00
1C00
1C00
1C00
1C00
1C00
1C00
1C00
1C00
1C00
1C00
1C00
1C00
1C00
1C00
1C00
1C00
1C00
1C00
1C00
1C00
1C00
3E00
FF80
0000
1C00
1E00
0E00
0600
0600
0E00
7800
ENDCHAR
STARTCHAR 013D
ENCODING 317
SWIDTH 617 0
DWIDTH 24 0
BBX 22 26 1 0
BITMAP
FFE1E0
1F01F0
1E01F0
1E01F0
1E0010
1E0030
1E0030
1E0060
1E00C0
1E0100
1E0000
1E0000
1E0000
1E0000
1E0000
1E0000
1E0000
1E0000
1E0000
1E0004
1E0004
1E0008
1E0008
1E0018
3F0070
FFFFF0
ENDCHAR
STARTCHAR 013E
ENCODING 318
SWIDTH 411 0
DWIDTH 16 0
BBX 15 27 1 0
BITMAP
0C78
7C7C
FC7C
1C06
1C04
1C0C
1C08
1C30
1C20
1C00
1C00
1C00
1C00
1C00
1C00
1C00
1C00
1C00
1C00
1C00
1C00
1C00
1C00
1C00
1C00
3E00
FF80
ENDCHAR
STARTCHAR 013F
ENCODING 319
SWIDTH 617 0
DWIDTH 24 0
BBX 22 26 1 0
BITMAP
FFE000
1F0000
1E0000
1E0000
1E0000
1E0000
1E0000
1E0000
1E0000
1E0000
1E0000
1E0000
1E0E00
1E1F00
1E0E00
1E0000
1E0000
1E0000
1E0000
1E0004
1E0004
1E0008
1E0008
1E0018
3F0070
FFFFF0
ENDCHAR
STARTCHAR 0140
ENCODING 320
SWIDTH 334 0
DWIDTH 13 0
BBX 9 27 1 0
BITMAP
0C00
7C00
FC00
1C00
1C00
1C00
1C00
1C00
1C00
1C00
1C00
1C00
1C00
1E00
1F00
1E00
1C00
1C00
1C00
1C00
1C00
1C00
1C00
1C00
1C00
3E00
FF80
ENDCHAR
STARTCHAR 0141
ENCODING 321
SWIDTH 617 0
DWIDTH 24 0
BBX 23 26 0 0
BITMAP
7FF000
1F8000
0F0000
0F0000
0F0000
0F0000
0F0000
0F0000
0F0000
0F1000
0F2000
0FC000
0F0000
0F0000
0F0000
0F0000
1F0000
6F0000
8F0000
0F0002
0F0004
0F0004
0F0004
0F0008
1F8038
7FFFF8
ENDCHAR
STARTCHAR 0142
ENCODING 322
SWIDTH 282 0
DWIDTH 11 0
BBX 10 27 1 0
BITMAP
0C00
3C00
FC00
1C00
1C00
1C00
1C00
1C00
1C40
1CC0
1D00
1E00
1C00
1C00
1C00
3C00
5C00
9C00
1C00
1C00
1C00
1C00
1C00
1C00
1C00
1E00
FF80
ENDCHAR
STARTCHAR 0143
ENCODING 323
SWIDTH 720 0
DWIDTH 28 0
BBX 29 34 -1 0
BITMAP
0003C000
00038000
00030000
00060000
00060000
00040000
00000000
00000000
FF000FF8
1F8003C0
07800180
03C00180
03E00180
02F00180
02F80180
02780180
023C0180
021E0180
020F0180
020F0180
02078180
0203C180
0201E180
0200F180
0200F180
02007980
02003D80
02001F80
02000F80
02000F80
06000780
06000380
07000180
3FE00080
ENDCHAR
STARTCHAR 0144
ENCODING 324
SWIDTH 514 0
DWIDTH 20 0
BBX 19 26 0 0
BITMAP
007800
007000
00E000
00C000
008000
010000
000000
000000
0C3C00
3CFE00
FD8F00
1E0700
1C0780
1C0780
1C0380
1C0380
1C0380
1C0380
1C0380
1C0380
1C0380
1C0380
1C0780
1C0780
3E0780
7F9FE0
ENDCHAR
STARTCHAR 0145
ENCODING 325
SWIDTH 720 0
DWIDTH 28 0
BBX 29 34 -1 -8
BITMAP
FF000FF8
1F8003C0
07800180
03C00180
03E00180
02F00180
02F80180
02780180
023C0180
021E0180
020F0180
020F0180
02078180
0203C180
0201E180
0200F180
0200F180
02007980
02003D80
02001F80
02000F80
02000F80
06000780
06000380
07000180
3FE00080
00000000
00078000
0007C000
0001C000
0001C000
0001C000
00038000
000F0000
ENDCHAR
STARTCHAR 0146
ENCODING 326
SWIDTH 514 0
DWIDTH 20 0
BBX 19 26 0 -8
BITMAP
0C3C00
3CFE00
FD8F00
1E0700
1C0780
1C0780
1C0380
1C0380
1C0380
1C0380
1C0380
1C0380
1C0380
1C0380
1C0780
1C0780
3E0780
7F9FE0
000000
00E000
00F000
003800
003800
003000
007000
01E000
ENDCHAR
STARTCHAR 0147
ENCODING 327
SWIDTH 720 0
DWIDTH 28 0
BBX 29 34 -1 0
BITMAP
00201000
00103000
001C6000
000EE000
0007C000
00078000
00000000
00000000
FF000FF8
1F8003C0
07800180
03C00180
03E00180
02F00180
02F80180
02780180
023C0180
021E0180
020F0180
020F0180
02078180
0203C180
0201E180
0200F180
0200F180
02007980
02003D80
02001F80
02000F80
02000F80
06000780
06000380
07000180
3FE00080
ENDCHAR
STARTCHAR 0148
ENCODING 328
SWIDTH 514 0
DWIDTH 20 0
BBX 19 26 0 0
BITMAP
080400
060C00
071800
03B800
01F000
01E000
000000
000000
0C3C00
3CFE00
FD8F00
1E0700
1C0780
1C0780
1C0380
1C0380
1C0380
1C0380
1C0380
1C0380
1C0380
1C0380
1C0780
1C0780
3E0780
7F9FE0
ENDCHAR
STARTCHAR 0149
ENCODING 329
SWIDTH 617 0
DWIDTH 24 0
BBX 23 26 0 0
BITMAP
700000
F80000
7C0000
0C0000
0C0000
080000
180000
300000
40C3C0
03CFE0
0FD8F0
01E070
01C078
01C038
01C038
01C038
01C038
01C038
01C038
01C038
01C038
01C038
01C038
01C038
01E078
07F9FE
ENDCHAR
STARTCHAR 014A
ENCODING 330
SWIDTH 694 0
DWIDTH 27 0
BBX 25 26 1 0
BITMAP
FE0FC000
1E1FF000
1E307C00
1E403C00
1E801E00
1F801E00
1F000F00
1E000F00
1E000F00
1E000F00
1E000F80
1E000780
1E000780
1E000780
1E000700
1E000700
1E000700
1E000700
1E000F00
1E000E00
1E000E00
1E0E0E00
1E0F0C00
1E0F0800
3F0F1000
FFE3E000
ENDCHAR
STARTCHAR 014B
ENCODING 331
SWIDTH 488 0
DWIDTH 19 0
BBX 17 26 0 -8
BITMAP
0C3C00
3CFE00
FD8F00
1E0700
1E0780
1C0780
1C0380
1C0380
1C0380
1C0380
1C0380
1C0380
1C0380
1C0380
1C0380
1C0380
3E0380
7F8380
000380
000780
000700
000700
018700
03E600
01FC00
00F800
ENDCHAR
STARTCHAR 014C
ENCODING 332
SWIDTH 720 0
DWIDTH 28 0
BBX 26 30 1 0
BITMAP
01FFE000
01FFE000
00000000
00000000
003F8000
01C0E000
07003800
0E001C00
1E001E00
1C000E00
3C000F00
78000780
78000780
78000780
78000780
F80007C0
F80007C0
F80007C0
F80007C0
78000780
78000780
78000780
78000780
3C000F00
3C000E00
1E001E00
0E001C00
07003800
01C0E000
007F8000
ENDCHAR
STARTCHAR 014D
ENCODING 333
SWIDTH 514 0
DWIDTH 20 0
BBX 17 23 1 0
BITMAP
1FFE00
1FFE00
000000
000000
000000
03F000
0C3C00
181E00
380F00
700700
700780
700780
F00780
F00380
F00380
F00380
700380
780700
780700
3C0600
1C0E00
0E1800
03E000
ENDCHAR
STARTCHAR 014E
ENCODING 334
SWIDTH 720 0
DWIDTH 28 0
BBX 26 33 1 0
BITMAP
00804000
00C0C000
00FFC000
007F8000
001E0000
00000000
00000000
003F8000
01C0E000
07003800
0E001C00
1E001E00
1C000E00
3C000F00
78000780
78000780
78000780
78000780
F80007C0
F80007C0
F80007C0
F80007C0
78000780
78000780
78000780
78000780
3C000F00
3C000E00
1E001E00
0E001C00
07003800
01C0E000
007F8000
ENDCHAR
STARTCHAR 014F
ENCODING 335
SWIDTH 514 0
DWIDTH 20 0
BBX 17 25 1 0
BITMAP
100400
181800
0FF800
07F000
03E000
000000
000000
03F000
0C3C00
181E00
380F00
700700
700780
700780
F00780
F00380
F00380
F00380
700380
780700
780700
3C0600
1C0E00
0E1800
03E000
ENDCHAR
STARTCHAR 0150
ENCODING 336
SWIDTH 720 0
DWIDTH 28 0
BBX 26 34 1 0
BITMAP
0038E000
0038E000
0030C000
00618000
00618000
00410000
00000000
00000000
003F8000
01C0E000
07003800
0E001C00
1E001E00
1C000E00
3C000F00
78000780
78000780
78000780
78000780
F80007C0
F80007C0
F80007C0
F80007C0
78000780
78000780
78000780
78000780
3C000F00
3C000E00
1E001E00
0E001C00
07003800
01C0E000
007F8000
ENDCHAR
STARTCHAR 0151
ENCODING 337
SWIDTH 514 0
DWIDTH 20 0
BBX 17 26 1 0
BITMAP
038E00
071C00
061800
061800
041000
082000
000000
000000
03F000
0C3C00
181E00
380F00
700700
700780
700780
F00780
F00380
F00380
F00380
700380
780700
780700
3C0600
1C0E00
0E1800
03E000
ENDCHAR
STARTCHAR 0152
ENCODING 338
SWIDTH 900 0
DWIDTH 35 0
BBX 32 26 1 0
BITMAP
007FFFFC
03C1F00C
0700F004
0E00F004
1E00F004
3C00F004
3C00F000
7800F000
7800F010
7800F010
7800F010
F800F030
F800FFF0
F800F030
F800F010
7800F010
7800F010
7800F000
7800F000
3C00F000
3C00F001
1E00F001
0E00F003
0700F006
03C1F00E
007FFFFE
ENDCHAR
STARTCHAR 0153
ENCODING 339
SWIDTH 720 0
DWIDTH 28 0
BBX 26 18 1 0
BITMAP
03E07C00
0C798F00
181D0780
301F0380
700F03C0
700E03C0
700FFFC0
F00E0000
F0060000
F0070000
F0070000
F0070040
700F8040
780F8080
380FE180
3C0DFF00
0E39FE00
07E07C00
ENDCHAR
STARTCHAR 0154
ENCODING 340
SWIDTH 668 0
DWIDTH 26 0
BBX 25 34 1 0
BITMAP
003C0000
00380000
00700000
00600000
00400000
00800000
00000000
00000000
FFFC0000
3F0F8000
1E03C000
1E01E000
1E01E000
1E01F000
1E00F000
1E01F000
1E01F000
1E01E000
1E03E000
1E07C000
1E0F8000
1FFC0000
1E3C0000
1E1E0000
1E0E0000
1E0F0000
1E078000
1E03C000
1E03C000
1E01E000
1E00F000
1E007800
3F007E00
FFE03F80
ENDCHAR
STARTCHAR 0155
ENCODING 341
SWIDTH 334 0
DWIDTH 13 0
BBX 13 26 0 0
BITMAP
03C0
03C0
0380
0700
0600
0400
0000
0000
0C78
3CF8
FD38
1E00
1C00
1C00
1C00
1C00
1C00
1C00
1C00
1C00
1C00
1C00
1C00
1C00
1E00
FF80
ENDCHAR
STARTCHAR 0156
ENCODING 342
SWIDTH 668 0
DWIDTH 26 0
BBX 25 34 1 -8
BITMAP
FFFC0000
3F0F8000
1E03C000
1E01E000
1E01E000
1E01F000
1E00F000
1E01F000
1E01F000
1E01E000
1E03E000
1E07C000
1E0F8000
1FFC0000
1E3C0000
1E1E0000
1E0E0000
1E0F0000
1E078000
1E03C000
1E03C000
1E01E000
1E00F000
1E007800
3F007E00
FFE03F80
00000000
003C0000
003E0000
000E0000
000E0000
000E0000
000C0000
00780000
ENDCHAR
STARTCHAR 0157
ENCODING 343
SWIDTH 334 0
DWIDTH 13 0
BBX 13 26 0 -8
BITMAP
0C78
3CF8
FD38
1E00
1C00
1C00
1C00
1C00
1C00
1C00
1C00
1C00
1C00
1C00
1C00
1C00
1E00
FF80
0000
0E00
0F00
0380
0380
0300
0700
1E00
ENDCHAR
STARTCHAR 0158
ENCODING 344
SWIDTH 668 0
DWIDTH 26 0
BBX 25 34 1 0
BITMAP
04010000
03020000
01840000
01CC0000
00F80000
00F80000
00000000
00000000
FFFC0000
3F0F8000
1E03C000
1E01E000
1E01E000
1E01F000
1E00F000
1E01F000
1E01F000
1E01E000
1E03E000
1E07C000
1E0F8000
1FFC0000
1E3C0000
1E1E0000
1E0E0000
1E0F0000
1E078000
1E03C000
1E03C000
1E01E000
1E00F000
1E007800
3F007E00
FFE03F80
ENDCHAR
STARTCHAR 0159
ENCODING 345
SWIDTH 334 0
DWIDTH 13 0
BBX 13 26 0 0
BITMAP
2010
3020
1860
0EC0
0F80
0780
0000
0000
0C78
3CF8
FD38
1E00
1C00
1C00
1C00
1C00
1C00
1C00
1C00
1C00
1C00
1C00
1C00
1C00
1E00
FF80
ENDCHAR
STARTCHAR 015A
ENCODING 346
SWIDTH 565 0
DWIDTH 22 0
BBX 18 34 2 0
BITMAP
00F000
00E000
01C000
018000
010000
020000
000000
000000
07F100
1C3F00
300F00
700700
700300
F00300
F00100
780100
7C0100
7E0000
3F8000
1FE000
07F800
03FC00
00FF00
003F00
000F80
800780
4003C0
4003C0
400380
600380
600380
700700
7C0E00
47F800
ENDCHAR
STARTCHAR 015B
ENCODING 347
SWIDTH 385 0
DWIDTH 15 0
BBX 12 26 2 0
BITMAP
03C0
0780
0700
0600
0C00
0800
0000
0000
1E20
61E0
C0E0
C060
C060
E020
F800
7E00
3F80
0FC0
03E0
00F0
8070
8070
C070
C060
F0C0
9F00
ENDCHAR
STARTCHAR 015C
ENCODING 348
SWIDTH 565 0
DWIDTH 22 0
BBX 18 34 2 0
BITMAP
01E000
03E000
037000
063800
0C0800
080400
000000
000000
07F100
1C3F00
300F00
700700
700300
F00300
F00100
780100
7C0100
7E0000
3F8000
1FE000
07F800
03FC00
00FF00
003F00
000F80
800780
4003C0
4003C0
400380
600380
600380
700700
7C0E00
47F800
ENDCHAR
STARTCHAR 015D
ENCODING 349
SWIDTH 385 0
DWIDTH 15 0
BBX 12 26 2 0
BITMAP
0F00
1F00
3B80
3180
40C0
8020
0000
0000
1E20
61E0
C0E0
C060
C060
E020
F800
7E00
3F80
0FC0
03E0
00F0
8070
8070
C070
C060
F0C0
9F00
ENDCHAR
STARTCHAR 015E
ENCODING 350
SWIDTH 565 0
DWIDTH 22 0
BBX 18 34 2 -8
BITMAP
07F100
1C3F00
300F00
700700
700300
F00300
F00100
780100
7C0100
7E0000
3F8000
1FE000
07F800
03FC00
00FF00
003F00
000F80
800780
4003C0
4003C0
400380
600380
600380
700700
7C0E00
47F800
008000
008000
01C000
01E000
00E000
00E000
00E000
078000
ENDCHAR
STARTCHAR 015F
ENCODING 351
SWIDTH 385 0
DWIDTH 15 0
BBX 12 26 2 -8
BITMAP
1E20
61E0
C0E0
C060
C060
E020
F800
7E00
3F80
0FC0
03E0
00F0
8070
8070
C070
C060
F0C0
9F00
0600
0400
0E00
0F00
0700
0300
0700
3C00
ENDCHAR
STARTCHAR 0160
ENCODING 352
SWIDTH 565 0
DWIDTH 22 0
BBX 18 34 2 0
BITMAP
080400
0C0800
061800
03B000
03E000
01E000
000000
000000
07F100
1C3F00
300F00
700700
700300
F00300
F00100
780100
7C0100
7E0000
3F8000
1FE000
07F800
03FC00
00FF00
003F00
000F80
800780
4003C0
4003C0
400380
600380
600380
700700
7C0E00
47F800
ENDCHAR
STARTCHAR 0161
ENCODING 353
SWIDTH 385 0
DWIDTH 15 0
BBX 12 26 2 0
BITMAP
8020
6040
3080
3980
1F00
0F00
0000
0000
1E20
61E0
C0E0
C060
C060
E020
F800
7E00
3F80
0FC0
03E0
00F0
8070
8070
C070
C060
F0C0
9F00
ENDCHAR
STARTCHAR 0162
ENCODING 354
SWIDTH 617 0
DWIDTH 24 0
BBX 22 34 1 -8
BITMAP
FFFFFC
E0781C
C0780C
807804
807804
007800
007800
007800
007800
007800
007800
007800
007800
007800
007800
007800
007800
007800
007800
007800
007800
007800
007800
007800
00FC00
07FF00
003000
002000
007000
007800
003800
003800
003800
01E000
ENDCHAR
STARTCHAR 0163
ENCODING 355
SWIDTH 282 0
DWIDTH 11 0
BBX 11 32 0 -8
BITMAP
0400
0400
0400
0C00
1C00
3C00
FFC0
1C00
1C00
1C00
1C00
1C00
1C00
1C00
1C00
1C00
1C00
1C00
1C00
1C00
1C00
1E20
0FC0
0780
0200
0200
0700
0780
0380
0380
0300
1E00
ENDCHAR
STARTCHAR 0164
ENCODING 356
SWIDTH 617 0
DWIDTH 24 0
BBX 22 34 1 0
BITMAP
020100
010200
01C600
00EC00
00FC00
007800
000000
000000
FFFFFC
E0781C
C0780C
807804
807804
007800
007800
007800
007800
007800
007800
007800
007800
007800
007800
007800
007800
007800
007800
007800
007800
007800
007800
007800
00FC00
07FF00
ENDCHAR
STARTCHAR 0165
ENCODING 357
SWIDTH 437 0
DWIDTH 17 0
BBX 16 27 0 0
BITMAP
001E
001F
001F
0403
0401
0403
0C02
1C06
3C0C
FFD0
1C00
1C00
1C00
1C00
1C00
1C00
1C00
1C00
1C00
1C00
1C00
1C00
1C00
1C00
1E20
0FC0
0780
ENDCHAR
STARTCHAR 0166
ENCODING 358
SWIDTH 617 0
DWIDTH 24 0
BBX 22 26 1 0
BITMAP
FFFFFC
E0781C
C0780C
807804
807804
007800
007800
007800
007800
007800
007800
007800
3FFFF0
007800
007800
007800
007800
007800
007800
007800
007800
007800
007800
007800
00FC00
07FF00
ENDCHAR
STARTCHAR 0167
ENCODING 359
SWIDTH 282 0
DWIDTH 11 0
BBX 11 24 0 0
BITMAP
0400
0400
0C00
0C00
1C00
3C00
FFC0
1C00
1C00
1C00
1C00
1C00
FFC0
1C00
1C00
1C00
1C00
1C00
1C00
1C00
1C00
1E20
0FC0
0700
ENDCHAR
STARTCHAR 0168
ENCODING 360
SWIDTH 720 0
DWIDTH 28 0
BBX 28 33 0 0
BITMAP
001C0800
007F0800
004F9000
0043F000
0081E000
00000000
00000000
FFE01FF0
1F800780
0F000300
0F000300
0F000300
0F000300
0F000300
0F000300
0F000300
0F000300
0F000300
0F000300
0F000300
0F000300
0F000300
0F000300
0F000300
0F000300
0F000300
0F000300
0F000200
07000600
07800400
03C01C00
00E07000
003FC000
ENDCHAR
STARTCHAR 0169
ENCODING 361
SWIDTH 514 0
DWIDTH 20 0
BBX 19 26 0 0
BITMAP
038100
0FE100
09F200
087E00
103C00
000000
000000
000000
FC1F80
3C0780
1C0780
1C0780
1C0780
1C0780
1C0780
1C0780
1C0780
1C0780
1C0780
1C0780
1C0780
1C0780
1E0F80
0E17E0
0FE7C0
07C700
ENDCHAR
STARTCHAR 016A
ENCODING 362
SWIDTH 720 0
DWIDTH 28 0
BBX 28 30 0 0
BITMAP
007FF800
007FF800
00000000
00000000
FFE01FF0
1F800780
0F000300
0F000300
0F000300
0F000300
0F000300
0F000300
0F000300
0F000300
0F000300
0F000300
0F000300
0F000300
0F000300
0F000300
0F000300
0F000300
0F000300
0F000300
0F000200
07000600
07800400
03C00C00
00E07000
003FC000
ENDCHAR
STARTCHAR 016B
ENCODING 363
SWIDTH 514 0
DWIDTH 20 0
BBX 19 23 0 0
BITMAP
0FFF00
0FFF00
000000
000000
000000
FC1F80
3C0780
1C0780
1C0780
1C0780
1C0780
1C0780
1C0780
1C0780
1C0780
1C0780
1C0780
1C0780
1C0780
1E0F80
0E17E0
0FE7C0
07C700
ENDCHAR
STARTCHAR 016C
ENCODING 364
SWIDTH 720 0
DWIDTH 28 0
BBX 28 33 0 0
BITMAP
00402000
00606000
007FE000
003FC000
000F0000
00000000
00000000
FFE01FF0
1F800780
0F000300
0F000300
0F000300
0F000300
0F000300
0F000300
0F000300
0F000300
0F000300
0F000300
0F000300
0F000300
0F000300
0F000300
0F000300
0F000300
0F000300
0F000300
0F000200
07000600
07800400
03C00C00
00E07000
003FC000
ENDCHAR
STARTCHAR 016D
ENCODING 365
SWIDTH 514 0
DWIDTH 20 0
BBX 19 25 0 0
BITMAP
080200
060600
07FC00
03FC00
01F000
000000
000000
FC1F80
3C0780
1C0780
1C0780
1C0780
1C0780
1C0780
1C0780
1C0780
1C0780
1C0780
1C0780
1C0780
1C0780
1E0F80
0E17E0
0FE7C0
07C700
ENDCHAR
STARTCHAR 016E
ENCODING 366
SWIDTH 720 0
DWIDTH 28 0
BBX 28 34 0 0
BITMAP
00078000
0008C000
00186000
00186000
0008C000
00078000
00000000
00000000
FFE01FF0
1F800780
0F000300
0F000300
0F000300
0F000300
0F000300
0F000300
0F000300
0F000300
0F000300
0F000300
0F000300
0F000300
0F000300
0F000300
0F000300
0F000300
0F000300
0F000300
0F000200
07000600
07800400
03C01C00
00E07000
003FC000
ENDCHAR
STARTCHAR 016F
ENCODING 367
SWIDTH 514 0
DWIDTH 20 0
BBX 19 26 0 0
BITMAP
01E000
031800
020800
020800
031800
01E000
000000
000000
FC1F80
3C0780
1C0780
1C0780
1C0780
1C0780
1C0780
1C0780
1C0780
1C0780
1C0780
1C0780
1C0780
1C0780
1E0F80
0E17E0
0FE7C0
07C700
ENDCHAR
STARTCHAR 0170
ENCODING 368
SWIDTH 720 0
DWIDTH 28 0
BBX 28 34 0 0
BITMAP
001E7800
001C7000
00186000
00186000
00104000
00208000
00000000
00000000
FFE01FF0
1F800780
0F000300
0F000300
0F000300
0F000300
0F000300
0F000300
0F000300
0F000300
0F000300
0F000300
0F000300
0F000300
0F000300
0F000300
0F000300
0F000300
0F000300
0F000300
0F000200
07000600
07800400
03C01C00
00E07000
003FC000
ENDCHAR
STARTCHAR 0171
ENCODING 369
SWIDTH 514 0
DWIDTH 20 0
BBX 19 26 0 0
BITMAP
038E00
038C00
071C00
061800
041000
041000
000000
000000
FC1F80
3C0780
1C0780
1C0780
1C0780
1C0780
1C0780
1C0780
1C0780
1C0780
1C0780
1C0780
1C0780
1C0780
1E0F80
0E17E0
0FE7C0
07C700
ENDCHAR
STARTCHAR 0172
ENCODING 370
SWIDTH 720 0
DWIDTH 28 0
BBX 28 34 0 -8
BITMAP
FFE01FF0
1F800780
0F000300
0F000300
0F000300
0F000300
0F000300
0F000300
0F000300
0F000300
0F000300
0F000300
0F000300
0F000300
0F000300
0F000300
0F000300
0F000300
0F000300
0F000300
0F000200
07000600
07800400
03C01C00
00E07000
003FC000
00018000
00030000
00060000
00060000
000E0000
000E0000
00070000
0003C000
ENDCHAR
STARTCHAR 0173
ENCODING 371
SWIDTH 514 0
DWIDTH 20 0
BBX 19 26 0 -8
BITMAP
FC1F80
3C0780
1C0780
1C0780
1C0780
1C0780
1C0780
1C0780
1C0780
1C0780
1C0780
1C0780
1C0780
1C0780
1E0F80
0E17E0
0FE7C0
07C780
000100
000600
000600
000C00
000C00
000C00
000E00
000780
ENDCHAR
STARTCHAR 0174
ENCODING 372
SWIDTH 951 0
DWIDTH 37 0
BBX 36 34 1 0
BITMAP
0001E00000
0001F00000
0003380000
0002180000
00040C0000
0008040000
0000000000
0000000000
FF8FFC0FF0
3E03F003C0
3E01E00180
1E01E00100
1E00E00300
0E00F00300
0F00F00200
0F00700600
0700F80600
0780F80400
0780BC0C00
0381BC0800
03C19C1800
01C11E1800
01E31E1000
01E30E3000
00E20F3000
00F60F2000
00F6076000
007407E000
007C07C000
007803C000
003803C000
0038018000
0010018000
0010010000
ENDCHAR
STARTCHAR 0175
ENCODING 373
SWIDTH 720 0
DWIDTH 28 0
BBX 28 26 0 0
BITMAP
000F0000
001F8000
001B8000
0030C000
00206000
00402000
00000000
00000000
FF3FC3F0
3C0F00E0
1C0700C0
1C070080
1E078180
0E038100
0E078100
0705C300
070DC200
0789E600
0398E400
0390E400
01F07C00
01E07800
01E07800
00C03800
00C03000
00C01000
ENDCHAR
STARTCHAR 0176
ENCODING 374
SWIDTH 720 0
DWIDTH 28 0
BBX 28 34 0 0
BITMAP
000F0000
001F8000
001B8000
0030C000
00206000
00402000
00000000
00000000
FFE01FF0
3F800780
0F000700
07800600
07800C00
03C00C00
01E01800
01E01800
00F03000
00786000
00386000
003CC000
001D8000
000F8000
000F0000
000F0000
000F0000
000F0000
000F0000
000F0000
000F0000
000F0000
000F0000
000F0000
001F8000
00FFE000
ENDCHAR
STARTCHAR 0177
ENCODING 375
SWIDTH 514 0
DWIDTH 20 0
BBX 19 34 0 -8
BITMAP
00F000
01F800
01B800
030C00
020600
040200
000000
000000
FF03E0
3E01C0
1C0180
1E0180
0E0100
0E0300
070300
070600
038600
038400
03CC00
01CC00
01F800
00F800
00F000
007000
007000
002000
006000
004000
00C000
00C000
008000
390000
7E0000
3C0000
ENDCHAR
STARTCHAR 0178
ENCODING 376
SWIDTH 720 0
DWIDTH 28 0
BBX 28 31 0 0
BITMAP
0038E000
0078F000
0038E000
00000000
00000000
FFE01FF0
3F800780
0F000700
07800600
07800C00
03C00C00
01E01800
01E01800
00F03000
00786000
00386000
003CC000
001D8000
000F8000
000F0000
000F0000
000F0000
000F0000
000F0000
000F0000
000F0000
000F0000
000F0000
000F0000
001F8000
00FFE000
ENDCHAR
STARTCHAR 0179
ENCODING 377
SWIDTH 617 0
DWIDTH 24 0
BBX 22 34 1 0
BITMAP
001E00
003C00
003800
003000
006000
004000
000000
000000
3FFFF8
3800F0
3001F0
2003E0
2003C0
2007C0
000F80
000F00
001F00
003E00
003C00
007C00
00F800
00F000
01F000
03E000
03C000
07C000
0F8000
0F0004
1F0004
3E0008
3C0008
780018
F80038
FFFFF8
ENDCHAR
STARTCHAR 017A
ENCODING 378
SWIDTH 437 0
DWIDTH 17 0
BBX 16 26 1 0
BITMAP
01E0
01E0
01C0
0380
0300
0200
0000
0000
7FFF
601E
403C
403C
0078
00F0
01E0
01E0
03C0
0780
0780
0F00
1E00
1C02
3C02
7802
F006
FFFE
ENDCHAR
STARTCHAR 017B
ENCODING 379
SWIDTH 617 0
DWIDTH 24 0
BBX 22 31 1 0
BITMAP
003800
007800
003800
000000
000000
3FFFF8
3800F0
3001F0
2003E0
2003C0
2007C0
000F80
000F00
001F00
003E00
003C00
007C00
00F800
00F000
01F000
03E000
03C000
07C000
0F8000
0F0004
1F0004
3E0008
3C0008
780018
F80038
FFFFF8
ENDCHAR
STARTCHAR 017C
ENCODING 380
SWIDTH 437 0
DWIDTH 17 0
BBX 16 23 1 0
BITMAP
01C0
03C0
01C0
0000
0000
7FFF
601E
403C
403C
0078
00F0
01E0
01E0
03C0
0780
0780
0F00
1E00
1C02
3C02
7802
F006
FFFE
ENDCHAR
STARTCHAR 017D
ENCODING 381
SWIDTH 617 0
DWIDTH 24 0
BBX 22 34 1 0
BITMAP
020100
010300
01C600
00EC00
007C00
007800
000000
000000
3FFFF8
3800F0
3001F0
2003E0
2003C0
2007C0
000F80
000F00
001F00
003E00
003C00
007C00
00F800
00F000
01F000
03E000
03C000
07C000
0F8000
0F0004
1F0004
3E0008
3C0008
780018
F80038
FFFFF8
ENDCHAR
STARTCHAR 017E
ENCODING 382
SWIDTH 437 0
DWIDTH 17 0
BBX 16 26 1 0
BITMAP
1008
0810
0C30
0760
07E0
03C0
0000
0000
7FFF
601E
403C
403C
0078
00F0
01E0
01E0
03C0
0780
0780
0F00
1E00
1C02
3C02
7802
F006
FFFE
ENDCHAR
STARTCHAR 017F
ENCODING 383
SWIDTH 282 0
DWIDTH 11 0
BBX 16 27 0 0
BITMAP
00FC
011E
060F
0606
0E00
0E00
0E00
0E00
0E00
0E00
0E00
0E00
0E00
0E00
0E00
0E00
0E00
0E00
0E00
0E00
0E00
0E00
0E00
0E00
1E00
1F00
FFC0
ENDCHAR
STARTCHAR 0180
ENCODING 384
SWIDTH 514 0
DWIDTH 20 0
BBX 18 27 0 0
BITMAP
0C0000
7C0000
FC0000
1C0000
1C0000
1C0000
FFF000
1C0000
1C0000
1C7C00
1DFE00
1F0F00
1E0780
1C0380
1C03C0
1C01C0
1C01C0
1C01C0
1C01C0
1C01C0
1C01C0
1C0380
1C0380
1C0300
1C0600
0F0C00
03F000
ENDCHAR
STARTCHAR 0181
ENCODING 385
SWIDTH 771 0
DWIDTH 30 0
BBX 27 26 0 0
BITMAP
3FFFF800
71F03E00
F0F00F00
F0F00780
F0F003C0
60F003C0
00F003C0
00F003C0
00F003C0
00F003C0
00F00780
00F01F00
00FFFC00
00F01F00
00F007C0
00F003E0
00F003E0
00F001E0
00F001E0
00F001E0
00F001E0
00F001E0
00F003C0
00F00780
01F01F00
0FFFFC00
ENDCHAR
STARTCHAR 0182
ENCODING 386
SWIDTH 565 0
DWIDTH 22 0
BBX 20 26 1 0
BITMAP
FFFFC0
3E01C0
1E0040
1E0040
1E0040
1E0040
1E0000
1E0000
1E0000
1E0000
1E0000
1E0000
1FFC00
1E0F80
1E03C0
1E01E0
1E01F0
1E00F0
1E00F0
1E00F0
1E00F0
1E01F0
1E01E0
1E03C0
3E0F80
FFFE00
ENDCHAR
STARTCHAR 0183
ENCODING 387
SWIDTH 514 0
DWIDTH 20 0
BBX 15 26 3 0
BITMAP
FFFC
E03C
E00C
E00C
E004
E004
E000
E000
E3E0
EFF0
F878
F03C
E01C
E01E
E00E
E00E
E00E
E00E
E00E
E00E
E01C
E01C
E018
E030
7860
1F80
ENDCHAR
STARTCHAR 0184
ENCODING 388
SWIDTH 565 0
DWIDTH 22 0
BBX 20 26 1 0
BITMAP
020000
0E0000
3E0000
7E0000
FE0000
7E0000
3E0000
1E0000
1E0000
1E0000
1E0000
1E0000
1FFE00
1E0F80
1E03C0
1E01E0
1E01F0
1E00F0
1E00F0
1E00F0
1E00F0
1E01F0
1E01E0
1E03C0
3E0F80
FFFE00
ENDCHAR
STARTCHAR 0185
ENCODING 389
SWIDTH 514 0
DWIDTH 20 0
BBX 18 27 0 0
BITMAP
0C0000
1C0000
3C0000
7C0000
FC0000
7C0000
7C0000
3C0000
1C0000
1C7C00
1DFE00
1F0F00
1E0780
1C0380
1C03C0
1C01C0
1C01C0
1C01C0
1C01C0
1C01C0
1C01C0
1C0380
1C0380
1C0300
1C0600
0F0C00
03F000
ENDCHAR
STARTCHAR 0186
ENCODING 390
SWIDTH 668 0
DWIDTH 26 0
BBX 24 26 1 0
BITMAP
00FE00
07FF80
0C07E0
1001F0
2000F8
40007C
80003C
00003E
00001E
00001E
00001E
00001F
00001F
00001F
00001F
00001E
00001E
40001E
40001C
40003C
600038
700078
7000F0
7801C0
7E0780
23FC00
ENDCHAR
STARTCHAR 0187
ENCODING 391
SWIDTH 668 0
DWIDTH 26 0
BBX 30 31 1 0
BITMAP
000000F0
00000138
0000033C
0000023C
00000238
003FC200
01E07E00
03801E00
0F000E00
0E000E00
1C000600
3C000200
38000200
78000200
78000000
78000000
F8000000
F8000000
F8000000
F8000000
78000000
78000000
78000000
7C000000
3C000100
3E000200
1F000400
0F800800
07E03000
01FFE000
007F0000
ENDCHAR
STARTCHAR 0188
ENCODING 392
SWIDTH 437 0
DWIDTH 17 0
BBX 21 23 1 0
BITMAP
0001F0
000278
000278
000278
000630
03E600
0C3E00
180E00
300600
700600
700200
600000
E00000
E00000
F00000
F00000
700200
780200
7C0400
3E1C00
3FF800
1FF000
07C000
ENDCHAR
STARTCHAR 0189
ENCODING 393
SWIDTH 720 0
DWIDTH 28 0
BBX 26 26 1 0
BITMAP
FFFF0000
3F03E000
1E00F800
1E003C00
1E001E00
1E001F00
1E000F00
1E000F80
1E000780
1E000780
1E000780
1E0007C0
FFFE07C0
1E0007C0
1E0007C0
1E000780
1E000780
1E000780
1E000F80
1E000F00
1E001E00
1E001E00
1E003C00
1E00F800
3E03E000
FFFF0000
ENDCHAR
STARTCHAR 018A
ENCODING 394
SWIDTH 822 0
DWIDTH 32 0
BBX 30 26 0 0
BITMAP
3FFFF800
71F01F00
F0F007C0
F0F003E0
F0F001F0
60F000F0
00F00078
00F00078
00F0007C
00F0003C
00F0003C
00F0003C
00F0003C
00F0003C
00F0003C
00F0003C
00F0003C
00F0007C
00F00078
00F00078
00F000F0
00F001E0
00F003C0
00F00780
01F01F00
0FFFF800
ENDCHAR
STARTCHAR 018B
ENCODING 395
SWIDTH 565 0
DWIDTH 22 0
BBX 21 26 1 0
BITMAP
3FFFF0
3807C0
300780
200780
200780
200780
000780
000780
000780
000780
000780
000780
03FF80
1F0780
3C0780
7C0780
780780
F80780
F80780
F80780
F80780
780780
7C0780
3E0780
1F07C0
03FFF8
ENDCHAR
STARTCHAR 018C
ENCODING 396
SWIDTH 514 0
DWIDTH 20 0
BBX 19 26 1 0
BITMAP
3FFF00
380700
300700
200700
200700
200700
000700
000700
03E700
0E3F00
1C1F00
380F00
300F00
700700
700700
F00700
F00700
F00700
F00700
F00700
780700
780700
3C0F00
3E1FE0
1FF780
07C600
ENDCHAR
STARTCHAR 018D
ENCODING 397
SWIDTH 462 0
DWIDTH 18 0
BBX 16 26 1 -8
BITMAP
03E0
0C38
181C
380E
700E
700F
700F
F007
F007
F007
F00F
700E
780E
381C
3C38
1EE0
0F00
0380
01C0
0070
0018
380C
3C04
3C04
1F08
07F0
ENDCHAR
STARTCHAR 018E
ENCODING 398
SWIDTH 617 0
DWIDTH 24 0
BBX 22 26 1 0
BITMAP
3FFFFC
3801E0
3001E0
2001C0
2001C0
2001C0
0001C0
0001C0
0801C0
0801C0
0801C0
0C01C0
0FFFC0
0E01C0
0801C0
0801C0
0801C0
0001C0
0001C0
8001C0
8001C0
4001C0
6001C0
6001E0
3803E0
3FFFFC
ENDCHAR
STARTCHAR 018F
ENCODING 399
SWIDTH 720 0
DWIDTH 28 0
BBX 26 26 1 0
BITMAP
08FF0000
0FC1E000
0F007000
0E003C00
0C001C00
08000E00
08000F00
08000F00
10000780
00000780
00000780
000007C0
FFFFFFC0
F00007C0
F00007C0
F0000780
F8000780
F8000780
78000F80
7C000F00
3C001F00
1E001E00
0E003C00
07007800
03C1E000
007F8000
ENDCHAR
STARTCHAR 0190
ENCODING 400
SWIDTH 514 0
DWIDTH 20 0
BBX 17 26 2 0
BITMAP
0FE100
3FFB00
7C1F00
780700
F00300
F00300
F00100
F00000
700000
780000
3C0000
1F0000
07F000
1F0000
7C0000
780000
F00000
F00000
F00000
F00000
F00080
F80100
780200
7E0C00
1FF800
07E000
ENDCHAR
STARTCHAR 0191
ENCODING 401
SWIDTH 565 0
DWIDTH 22 0
BBX 23 34 -3 -8
BITMAP
0FFFFE
03E00E
01E006
01E002
01E002
01E002
01E000
01E000
01E010
01E010
01E030
01E030
01FFF0
01E030
01E010
01E010
01E010
01E000
01E000
01E000
01E000
01E000
01E000
01E000
01E000
01E000
01E000
01E000
01E000
01C000
61C000
F18000
FF0000
7E0000
ENDCHAR
STARTCHAR 0192
ENCODING 402
SWIDTH 514 0
DWIDTH 20 0
BBX 19 34 0 -8
BITMAP
0001C0
000660
000460
000C00
000C00
001C00
001C00
001800
003800
007800
03FF00
003000
007000
007000
007000
007000
00E000
00E000
00E000
00E000
01C000
01C000
01C000
01C000
038000
038000
038000
030000
030000
070000
060000
E40000
CC0000
700000
ENDCHAR
STARTCHAR 0193
ENCODING 403
SWIDTH 720 0
DWIDTH 28 0
BBX 30 31 1 0
BITMAP
000000F0
00000138
0000033C
0000023C
00000238
003FC200
01E07E00
03801E00
07000E00
0E000E00
1C000600
3C000200
3C000200
78000200
78000000
78000000
F8000000
F8007FE0
F8001F80
F8000F00
78000F00
78000F00
78000F00
7C000F00
3C000F00
1E000F00
1F000F00
0F000F00
03C00F00
01F03E00
003FE000
ENDCHAR
STARTCHAR 0194
ENCODING 404
SWIDTH 720 0
DWIDTH 28 0
BBX 28 34 0 -8
BITMAP
FFE00FF0
3F8007C0
1F000380
0F000300
0F000300
07800300
07800600
03C00600
03C00C00
01E00C00
01E00800
00E01800
00F01800
00F03000
00783000
00782000
003C6000
003C6000
001EC000
001EC000
000E8000
000F8000
000F8000
00078000
00078000
0003C000
0007C000
0007E000
000DE000
000CE000
0008E000
0008E000
000CE000
0007C000
ENDCHAR
STARTCHAR 0195
ENCODING 405
SWIDTH 771 0
DWIDTH 30 0
BBX 27 27 0 0
BITMAP
0C000000
3C000000
FC000000
1C000000
1C000000
1C000000
1C000000
1C000000
1C000000
1C3C07E0
1CFE01E0
1D8F00E0
1E0700E0
1C0700E0
1C0780E0
1C0780E0
1C0780E0
1C0780E0
1C0780E0
1C0780E0
1C0780E0
1C0380E0
1C0380E0
1C0380E0
1C0381C0
3E01C3C0
7F807F00
ENDCHAR
STARTCHAR 0196
ENCODING 406
SWIDTH 257 0
DWIDTH 10 0
BBX 10 27 0 0
BITMAP
0C00
7C00
FC00
1C00
1C00
1C00
1C00
1C00
1C00
1C00
1C00
1C00
1C00
1C00
1C00
1C00
1C00
1C00
1C00
1C00
1C00
1C00
1C40
1C40
1C80
1F80
0F00
ENDCHAR
STARTCHAR 0197
ENCODING 407
SWIDTH 334 0
DWIDTH 13 0
BBX 11 26 1 0
BITMAP
FFE0
1F00
1F00
0E00
0E00
0E00
0E00
0E00
0E00
0E00
0E00
0E00
FFE0
0E00
0E00
0E00
0E00
0E00
0E00
0E00
0E00
0E00
0E00
1F00
1F00
FFE0
ENDCHAR
STARTCHAR 0198
ENCODING 408
SWIDTH 720 0
DWIDTH 28 0
BBX 27 26 1 0
BITMAP
01E1FF00
07387C00
06387800
0E18E000
0E00E000
1E01C000
1E038000
1E070000
1E1C0000
1E380000
1E700000
1EE00000
1FE00000
1EF00000
1E780000
1E3C0000
1E1E0000
1E0F0000
1E078000
1E03C000
1E01E000
1E00F000
1E007800
1E007E00
3F007F80
FFE1FFE0
ENDCHAR
STARTCHAR 0199
ENCODING 409
SWIDTH 514 0
DWIDTH 20 0
BBX 20 27 0 0
BITMAP
00F800
033C00
061E00
0E0E00
0C0600
0C0000
1C0000
1C0000
1C0000
1C1FE0
1C0F00
1C0C00
1C1800
1C3000
1C6000
1CC000
1DC000
1FE000
1CF000
1CF000
1C7800
1C3C00
1C1E00
1C1E00
1E0F00
1E0FC0
FF9FF0
ENDCHAR
STARTCHAR 019A
ENCODING 410
SWIDTH 282 0
DWIDTH 11 0
BBX 9 27 1 0
BITMAP
0C00
7C00
FC00
1C00
1C00
1C00
1C00
1C00
1C00
1C00
1C00
1C00
1C00
FF80
1C00
1C00
1C00
1C00
1C00
1C00
1C00
1C00
1C00
1C00
1C00
3E00
FF80
ENDCHAR
STARTCHAR 019B
ENCODING 411
SWIDTH 488 0
DWIDTH 19 0
BBX 18 27 1 0
BITMAP
3C0000
7E1000
7E2000
474000
838000
830000
030000
058000
058000
098000
118000
21C000
43C000
83C000
07C000
076000
076000
0E6000
0E2000
1C2000
1C3000
3C3040
381840
781CC0
701FC0
F00F80
E00700
ENDCHAR
STARTCHAR 019C
ENCODING 412
SWIDTH 822 0
DWIDTH 32 0
BBX 30 26 1 0
BITMAP
FF3FE7FC
3C0F81F0
3C0780F0
3C0780F0
3C0780F0
3C0780F0
3C0780F0
3C0780F0
3C0780F0
3C0780F0
3C0780F0
3C0780F0
3C0780F0
3C0780F0
3C0780F0
3C0780F0
3C0780F0
3C0780F0
3C0780F0
3C0780F0
3C0780F0
3C0780F0
1C0F81F0
1E17C2FC
0FE3FCF8
07C1F0C0
ENDCHAR
STARTCHAR 019D
ENCODING 413
SWIDTH 720 0
DWIDTH 28 0
BBX 31 34 -3 -8
BITMAP
3FC003FE
07E000F0
01E00060
01F00060
00F80060
00FC0060
00BE0060
009E0060
008F0060
008F8060
0087C060
0083C060
0081E060
0080F060
00807860
00807860
00803C60
00801E60
00800F60
008007E0
008003E0
008001E0
008001E0
008000E0
00800060
00800020
00800000
00800000
00800000
01800000
61800000
F1800000
7F000000
7E000000
ENDCHAR
STARTCHAR 019E
ENCODING 414
SWIDTH 514 0
DWIDTH 20 0
BBX 19 26 0 -8
BITMAP
0C3C00
3CFE00
FD8F00
1E0700
1C0780
1C0780
1C0380
1C0380
1C0380
1C0380
1C0380
1C0380
1C0380
1C0380
1C0380
1C0380
1E0380
7F8380
000380
000380
000380
000380
000780
000780
000780
001FE0
ENDCHAR
STARTCHAR 019F
ENCODING 415
SWIDTH 720 0
DWIDTH 28 0
BBX 26 26 1 0
BITMAP
003F8000
01C0E000
07003800
0E001C00
1E001E00
1C000E00
3C000F00
78000780
78000780
78000780
78000780
F80007C0
FFFFFFC0
F80007C0
F80007C0
78000780
78000780
78000780
7C000780
3C000F00
3C000E00
1E001E00
0F001C00
07803800
01C0E000
007F8000
ENDCHAR
STARTCHAR 01A0
ENCODING 416
SWIDTH 720 0
DWIDTH 28 0
BBX 26 29 1 0
BITMAP
00000300
00000780
00000780
007F8300
01C0FE00
07003800
0E001C00
1E001E00
1C000E00
3C000F00
78000780
78000780
78000780
78000780
F80007C0
F80007C0
F80007C0
F80007C0
78000780
78000780
78000780
78000780
3C000F00
3C000E00
1E001E00
0E001C00
07003800
01C0E000
007F8000
ENDCHAR
STARTCHAR 01A1
ENCODING 417
SWIDTH 540 0
DWIDTH 21 0
BBX 20 18 1 0
BITMAP
03F060
0C38F0
181EF0
380E60
7007C0
700700
700780
F00780
F00380
F00380
F00380
700380
780700
780700
3C0600
1C0E00
0E1800
03F000
ENDCHAR
STARTCHAR 01A2
ENCODING 418
SWIDTH 925 0
DWIDTH 36 0
BBX 34 34 1 -8
BITMAP
003FC00E00
01E03FFE00
03801E3E00
0F001E1E00
0E001E1E00
1C001E1E00
3C001E1E00
3C001E1E00
78001E1E00
78001E1E00
78001E1E00
F8001E1E00
F8001E1E00
F8001E1E00
F8001E1E00
78001E1E00
78001E1E00
78001E1E00
78001E1E00
3C001E1E00
3C001E1E00
1E001E1E00
0F001E1E00
07801E1E00
01E03C1E00
007FE01E00
0000001E00
0000001E00
0000001E00
0000001E00
0000001E00
0000001E00
0000003E00
000001FFC0
ENDCHAR
STARTCHAR 01A3
ENCODING 419
SWIDTH 694 0
DWIDTH 27 0
BBX 26 26 1 -8
BITMAP
03E00600
0C1C0E00
1803FE00
38039E00
70038E00
70038E00
70038E00
F0038E00
F0038E00
F0038E00
F0038E00
70038E00
78070E00
78070E00
3C060E00
1C0E0E00
0E180E00
03E00E00
00000E00
00000E00
00000E00
00000E00
00000E00
00000E00
00001F00
00007FC0
ENDCHAR
STARTCHAR 01A4
ENCODING 420
SWIDTH 642 0
DWIDTH 25 0
BBX 24 26 0 0
BITMAP
3FFFE0
71F078
F0F03C
F0F01E
F0F01E
60F01F
00F00F
00F00F
00F00F
00F01F
00F01E
00F03C
00F078
00FFE0
00F000
00F000
00F000
00F000
00F000
00F000
00F000
00F000
00F000
00F000
01F800
0FFE00
ENDCHAR
STARTCHAR 01A5
ENCODING 421
SWIDTH 514 0
DWIDTH 20 0
BBX 18 35 0 -8
BITMAP
01F000
023C00
041E00
0C0E00
1C0C00
1C0000
1C0000
1C0000
1C0000
1C7C00
1CFF00
1D0F00
1E0780
1C03C0
1C03C0
1C03C0
1C01C0
1C01C0
1C01C0
1C01C0
1C01C0
1C0180
1C0380
1C0300
1E0700
1F0E00
1DF800
1C0000
1C0000
1C0000
1C0000
1C0000
1C0000
3E0000
FF8000
ENDCHAR
STARTCHAR 01A6
ENCODING 422
SWIDTH 565 0
DWIDTH 22 0
BBX 25 30 1 -4
BITMAP
FFE00000
3F000000
1E000000
1E000000
1FFC0000
1E0F0000
1E078000
1E03C000
1E03E000
1E01E000
1E01E000
1E01E000
1E01E000
1E03E000
1E03C000
1E078000
1E1F0000
1FFC0000
1E3C0000
1E1E0000
1E0F0000
1E0F8000
1E078000
1E03C000
3F01E000
FFE1E000
0000F000
00007800
00007E00
00003F80
ENDCHAR
STARTCHAR 01A7
ENCODING 423
SWIDTH 565 0
DWIDTH 22 0
BBX 17 26 2 0
BITMAP
23F800
3E0E00
380700
300300
300380
200380
200380
200780
200F80
001F00
007F00
01FE00
07F800
0FE000
3FC000
7F0000
7C0000
F80080
F00080
F00080
E00180
700180
700380
380780
1C1F80
07F080
ENDCHAR
STARTCHAR 01A8
ENCODING 424
SWIDTH 385 0
DWIDTH 15 0
BBX 12 18 1 0
BITMAP
2780
3860
3030
2030
2030
4070
01F0
07E0
1FC0
3F00
7C00
7010
F010
E010
6030
7030
30F0
0F90
ENDCHAR
STARTCHAR 01A9
ENCODING 425
SWIDTH 591 0
DWIDTH 23 0
BBX 21 26 1 0
BITMAP
FFFFE0
F80060
7C0020
3E0020
1E0020
1F0020
0F8000
078000
03C000
03E000
01E000
00F000
007800
003000
006000
00C000
01C000
038000
070000
0E0008
0C0010
180010
300070
7FFFF0
FFFFF0
FFFFF0
ENDCHAR
STARTCHAR 01AA
ENCODING 426
SWIDTH 334 0
DWIDTH 13 0
BBX 16 35 0 -8
BITMAP
3C00
4700
C300
8380
C380
4780
3F80
0380
0380
0380
0380
0380
0380
0380
0380
0380
0380
0380
0380
0380
0380
0380
0380
0380
0380
0380
0380
0380
0380
0380
0180
0187
00CF
007F
003E
ENDCHAR
STARTCHAR 01AB
ENCODING 427
SWIDTH 282 0
DWIDTH 11 0
BBX 11 32 0 -8
BITMAP
0400
0400
0400
0C00
1C00
3C00
FFC0
1C00
1C00
1C00
1C00
1C00
1C00
1C00
1C00
1C00
1C00
1C00
1C00
1C00
1C20
1E60
0FE0
07E0
00E0
00E0
00E0
00C0
70C0
7980
7F00
3E00
ENDCHAR
STARTCHAR 01AC
ENCODING 428
SWIDTH 617 0
DWIDTH 24 0
BBX 23 26 0 0
BITMAP
3FFFFE
703C0E
F03C06
F03C02
F03C02
603C02
003C00
003C00
003C00
003C00
003C00
003C00
003C00
003C00
003C00
003C00
003C00
003C00
003C00
003C00
003C00
003C00
003C00
003C00
007E00
03FF80
ENDCHAR
STARTCHAR 01AD
ENCODING 429
SWIDTH 282 0
DWIDTH 11 0
BBX 13 27 0 0
BITMAP
01F0
0678
0438
0C00
0C00
0C00
1C00
1C00
3C00
FFC0
1C00
1C00
1C00
1C00
1C00
1C00
1C00
1C00
1C00
1C00
1C00
1C00
1C00
1C20
1E40
0F80
0700
ENDCHAR
STARTCHAR 01AE
ENCODING 430
SWIDTH 617 0
DWIDTH 24 0
BBX 22 34 1 -8
BITMAP
FFFFFC
E0781C
C0780C
807804
807804
807804
007800
007800
007800
007800
007800
007800
007800
007800
007800
007800
007800
007800
007800
007800
007800
007800
007800
007800
007800
007800
007800
007800
007800
003800
003860
0018F0
000FF0
0007E0
ENDCHAR
STARTCHAR 01AF
ENCODING 431
SWIDTH 771 0
DWIDTH 30 0
BBX 32 30 0 0
BITMAP
0000000E
0000000F
0000000F
00000006
FFE01FFC
1F800780
0F000300
0F000300
0F000300
0F000300
0F000300
0F000300
0F000300
0F000300
0F000300
0F000300
0F000300
0F000300
0F000300
0F000300
0F000300
0F000300
0F000300
0F000300
0F000200
07000600
07800400
03C00C00
00E07000
003FC000
ENDCHAR
STARTCHAR 01B0
ENCODING 432
SWIDTH 540 0
DWIDTH 21 0
BBX 21 19 0 0
BITMAP
000030
FC1FF8
3C07B8
1C0798
1C07E0
1C0780
1C0780
1C0780
1C0780
1C0780
1C0780
1C0780
1C0780
1C0780
1C0780
1E0F80
0E17E0
0FE7C0
07C700
ENDCHAR
STARTCHAR 01B1
ENCODING 433
SWIDTH 745 0
DWIDTH 29 0
BBX 27 26 1 0
BITMAP
FFE0FFE0
FFE0FFE0
FFE0FFE0
C0604060
81C06020
03803800
0F001E00
1E000F00
1E000F00
3C000780
3C000780
7C0007C0
7C0007C0
7C0003C0
7C0003C0
7C0003C0
7C0007C0
7C0007C0
3C000780
3C000780
1E000F00
1E000F00
0F001E00
03803C00
01E0F000
003FC000
ENDCHAR
STARTCHAR 01B2
ENCODING 434
SWIDTH 720 0
DWIDTH 28 0
BBX 24 26 0 0
BITMAP
FFE0F8
1F81FE
0F01E2
0F00C3
0F0003
0F0003
0F0003
0F0003
0F0003
0F0003
0F0003
0F0003
0F0003
0F0003
0F0003
0F0003
0F0002
0F0002
0F0006
0F0006
0F0004
07000C
078008
03C010
00E060
003F80
ENDCHAR
STARTCHAR 01B3
ENCODING 435
SWIDTH 771 0
DWIDTH 30 0
BBX 30 26 0 0
BITMAP
3E0007FC
7F8001F0
F3C001C0
F3E001C0
F1E00180
60F00300
00780300
00780600
003C0C00
001E0C00
001E1800
000F3000
0007B000
0007E000
0003C000
0003C000
0003C000
0003C000
0003C000
0003C000
0003C000
0003C000
0003C000
0003C000
0007E000
001FFC00
ENDCHAR
STARTCHAR 01B4
ENCODING 436
SWIDTH 514 0
DWIDTH 20 0
BBX 28 35 0 -8
BITMAP
000007E0
000009F0
00001860
00001000
00003000
00003000
00006000
00006000
00004000
FF00C000
3E00C000
3C018000
1C018000
0E010000
0E030000
0F030000
07020000
07860000
03840000
03CC0000
01CC0000
01E80000
00F80000
00F80000
00700000
00700000
00600000
00600000
00600000
00400000
00C00000
00800000
79800000
7F000000
3C000000
ENDCHAR
STARTCHAR 01B5
ENCODING 437
SWIDTH 617 0
DWIDTH 24 0
BBX 23 26 0 0
BITMAP
1FFFFC
1C0078
1800F8
1001F0
1001E0
1003E0
0003C0
000780
000F80
000F00
001E00
003E00
0FFFF8
007800
00F000
01F000
01E000
03C000
07C000
078002
0F0002
1F0004
3E0004
3C000C
7C001C
FFFFFC
ENDCHAR
STARTCHAR 01B6
ENCODING 438
SWIDTH 437 0
DWIDTH 17 0
BBX 16 18 1 0
BITMAP
7FFF
601E
403C
403C
4078
00F0
00E0
01E0
3FFC
0780
0F00
0F00
1E00
3C02
3C02
7802
F006
FFFE
ENDCHAR
STARTCHAR 01B7
ENCODING 439
SWIDTH 540 0
DWIDTH 21 0
BBX 19 34 1 -8
BITMAP
3FFFC0
380F80
200F00
201F00
403E00
407C00
407800
00F800
01F000
03E000
03C000
078000
0FE000
00F800
003E00
001F00
000F80
000780
0003C0
0003C0
0003E0
0003E0
0003E0
0003E0
0003E0
0003E0
0003E0
0003C0
8007C0
C00F80
601F80
383F00
1FFC00
07F000
ENDCHAR
STARTCHAR 01B8
ENCODING 440
SWIDTH 540 0
DWIDTH 21 0
BBX 19 34 1 -8
BITMAP
7FFF80
3E0380
1E0080
1F0080
0F8080
07C080
03C040
03E000
01F000
00F800
007800
003C00
00FE00
03E000
0F8000
1F0000
3E0000
3C0000
780000
780000
F80000
F80000
F80000
F80000
F80000
F80000
F80000
780000
7C0020
3E0060
3F00C0
1F8380
07FF00
01FC00
ENDCHAR
STARTCHAR 01B9
ENCODING 441
SWIDTH 437 0
DWIDTH 17 0
BBX 16 26 1 -8
BITMAP
FFFE
7806
3C02
3C02
1E02
0F00
0780
0780
03C0
01E0
03E0
0F00
1C00
3800
3000
7000
7000
7000
7000
7001
7802
3C06
3E0C
1FFC
0FF8
03E0
ENDCHAR
STARTCHAR 01BA
ENCODING 442
SWIDTH 437 0
DWIDTH 17 0
BBX 15 26 2 -8
BITMAP
FFFE
C03C
8078
80F0
81E0
03C0
0780
0FE0
0078
003C
001C
001C
0078
0FE0
3800
7000
E000
E000
E000
E004
E00C
F008
F838
7FF0
3FE0
0F80
ENDCHAR
STARTCHAR 01BB
ENCODING 443
SWIDTH 514 0
DWIDTH 20 0
BBX 17 26 1 0
BITMAP
07E000
1FF800
3FFC00
307C00
603E00
401E00
800E00
000E00
000E00
000E00
000C00
001C00
7FFF80
003000
003000
006000
00C000
018000
010000
020000
040000
080080
100300
3FFF00
7FFF00
FFFE00
ENDCHAR
STARTCHAR 01BC
ENCODING 444
SWIDTH 514 0
DWIDTH 20 0
BBX 16 26 1 0
BITMAP
FFFE
3FFE
1FFE
100E
1006
1002
1002
1E00
1FC0
1FF0
03F8
007C
003E
001E
000E
0006
0007
0006
0006
0006
0006
000C
7018
7C30
7FE0
3F80
ENDCHAR
STARTCHAR 01BD
ENCODING 445
SWIDTH 437 0
DWIDTH 17 0
BBX 15 18 1 0
BITMAP
FFFC
3FFC
1FFE
1006
1006
1F82
1FE0
1FF8
00FC
001C
000E
0006
0006
0006
700C
7C1C
7FF8
1FC0
ENDCHAR
STARTCHAR 01BE
ENCODING 446
SWIDTH 411 0
DWIDTH 16 0
BBX 15 24 0 0
BITMAP
0400
0400
0400
0C00
1C00
3C00
FFC0
1C00
1C00
1C00
1C00
1E00
0F80
07E0
03F8
00FC
003E
101E
100E
180E
180E
1C0C
1E18
13F0
ENDCHAR
STARTCHAR 01BF
ENCODING 447
SWIDTH 514 0
DWIDTH 20 0
BBX 18 26 0 -8
BITMAP
0C3E00
7CFF80
FD8780
1E03C0
1C03C0
1C01C0
1C01C0
1C01C0
1C01C0
1C01C0
1C0380
1C0380
1C0700
1C0600
1C0C00
1C1800
1C7000
1DC000
1F0000
1C0000
1C0000
1C0000
1C0000
3C0000
700000
800000
ENDCHAR
STARTCHAR 01C0
ENCODING 448
SWIDTH 205 0
DWIDTH 8 0
BBX 2 27 3 0
BITMAP
C0
C0
C0
C0
C0
C0
C0
C0
C0
C0
C0
C0
C0
C0
C0
C0
C0
C0
C0
C0
C0
C0
C0
C0
C0
C0
C0
ENDCHAR
STARTCHAR 01C1
ENCODING 449
SWIDTH 282 0
DWIDTH 11 0
BBX 5 27 3 0
BITMAP
D8
D8
D8
D8
D8
D8
D8
D8
D8
D8
D8
D8
D8
D8
D8
D8
D8
D8
D8
D8
D8
D8
D8
D8
D8
D8
D8
ENDCHAR
STARTCHAR 01C2
ENCODING 450
SWIDTH 257 0
DWIDTH 10 0
BBX 10 27 0 0
BITMAP
0C00
0C00
0C00
0C00
0C00
0C00
0C00
0C00
0C00
0C00
FFC0
FFC0
0C00
0C00
0C00
FFC0
FFC0
0C00
0C00
0C00
0C00
0C00
0C00
0C00
0C00
0C00
0C00
ENDCHAR
STARTCHAR 01C3
ENCODING 451
SWIDTH 334 0
DWIDTH 13 0
BBX 5 26 4 0
BITMAP
70
70
F8
F8
F8
70
70
70
70
70
70
70
70
70
20
20
20
20
20
20
00
00
00
70
F8
70
ENDCHAR
STARTCHAR 01C4
ENCODING 452
SWIDTH 1337 0
DWIDTH 52 0
BBX 50 34 1 0
BITMAP
00000000201000
00000000181000
000000000C6000
000000000EE000
0000000007C000
00000000078000
00000000000000
00000000000000
FFFF0003FFFF80
3E03E003800F80
1E00F803001F00
1E003C02001E00
1E001E02003E00
1E001F02007C00
1E000F00007800
1E000F8000F800
1E00078001F000
1E00078003E000
1E00078003C000
1E0007C007C000
1E0007C00F8000
1E0007C00F0000
1E0007C01F0000
1E0007803E0000
1E0007803C0000
1E0007807C0000
1E000F80F80000
1E000F00F00040
1E001E01F00040
1E001E03E000C0
1E003C03C00080
1E00F807C00180
3E03E00F800380
FFFF000FFFFF80
ENDCHAR
STARTCHAR 01C5
ENCODING 453
SWIDTH 1157 0
DWIDTH 45 0
BBX 44 26 1 0
BITMAP
FFFF00010080
3E03E0008180
1E00F800E300
1E003C007600
1E001E007E00
1E001F003C00
1E000F000000
1E000F800000
1E000787FFF0
1E00078601E0
1E00078403C0
1E0007C403C0
1E0007C00780
1E0007C00F00
1E0007C00F00
1E0007801E00
1E0007803C00
1E0007803C00
1E000F807800
1E000F00F000
1E001E01E000
1E001E01E010
1E003C03C010
1E00F8078020
3E03E0078060
FFFF000FFFE0
ENDCHAR
STARTCHAR 01C6
ENCODING 454
SWIDTH 951 0
DWIDTH 37 0
BBX 35 27 1 0
BITMAP
0003000000
001F020080
003F018100
000F00C200
000F00EE00
0007007C00
0007007C00
0007000000
0007000000
03E707FFE0
0E3F0403E0
1C1F0C03C0
380F080780
300F000F00
7007000F00
7007001E00
F007003C00
F007003C00
F007007800
F00700F000
F00701E000
780701E000
780703C020
3C0F078020
3E1FE78020
1FF78F0060
07C61FFFE0
ENDCHAR
STARTCHAR 01C7
ENCODING 455
SWIDTH 1002 0
DWIDTH 39 0
BBX 38 26 1 0
BITMAP
FFE0001FFC
1F000007E0
1E000003C0
1E000003C0
1E000003C0
1E000003C0
1E000003C0
1E000003C0
1E000003C0
1E000003C0
1E000003C0
1E000003C0
1E000003C0
1E000003C0
1E000003C0
1E000003C0
1E000003C0
1E000003C0
1E000003C0
1E000403C0
1E000403C0
1E0008E3C0
1E0008E380
1E0018F300
3F0070F200
FFFFF07C00
ENDCHAR
STARTCHAR 01C8
ENCODING 456
SWIDTH 900 0
DWIDTH 35 0
BBX 30 35 1 -8
BITMAP
0000001C
FFE0001C
1F00001C
1E000000
1E000000
1E000000
1E000000
1E000000
1E000000
1E00000C
1E00007C
1E0000FC
1E00001C
1E00001C
1E00001C
1E00001C
1E00001C
1E00001C
1E00001C
1E00001C
1E00041C
1E00041C
1E00081C
1E00081C
1E00181C
3F00701C
FFFFF01C
0000001C
0000001C
0000001C
0000001C
00000018
00000E10
00000F30
000007C0
ENDCHAR
STARTCHAR 01C9
ENCODING 457
SWIDTH 565 0
DWIDTH 22 0
BBX 17 35 1 -8
BITMAP
0C0380
7C0380
FC0380
1C0000
1C0000
1C0000
1C0000
1C0000
1C0000
1C0180
1C0F80
1C1F80
1C0380
1C0380
1C0380
1C0380
1C0380
1C0380
1C0380
1C0380
1C0380
1C0380
1C0380
1C0380
1C0380
3E0380
FF8380
000380
000380
000380
000380
000300
01C200
01E600
00F800
ENDCHAR
STARTCHAR 01CA
ENCODING 458
SWIDTH 1105 0
DWIDTH 43 0
BBX 44 26 -1 0
BITMAP
FF000FF87FF0
1F8003C00F80
078001800780
03C001800700
03E001800700
02F001800700
02F801800700
027801800700
023C01800700
021E01800700
020F01800700
020F01800700
020781800700
0203C1800700
0201E1800700
0200F1800700
0200F1800700
020079800700
02003D800700
02001F800700
02000F800700
02000F818700
06000783C600
06000383C600
07000183EC00
3FE00080F000
ENDCHAR
STARTCHAR 01CB
ENCODING 459
SWIDTH 1002 0
DWIDTH 39 0
BBX 37 35 -1 -8
BITMAP
0000000070
FF000FF878
1F8003C070
0780018000
03C0018000
03E0018000
02F0018000
02F8018000
0278018000
023C018030
021E0180F0
020F0183F0
020F018070
0207818070
0203C18070
0201E18070
0200F18070
0200F18070
0200798070
02003D8070
02001F8070
02000F8070
02000F8070
0600078070
0600038070
0700018070
3FE0008070
0000000070
0000000070
0000000070
0000000070
0000000060
0000001860
0000003C40
0000001F80
ENDCHAR
STARTCHAR 01CC
ENCODING 460
SWIDTH 771 0
DWIDTH 30 0
BBX 27 35 0 -8
BITMAP
000000E0
000001E0
000000E0
00000000
00000000
00000000
00000000
00000000
00000000
0C3C0060
3CFE03E0
FD8F07E0
1E0701E0
1C0780E0
1C0780E0
1C0380E0
1C0380E0
1C0380E0
1C0380E0
1C0380E0
1C0380E0
1C0380E0
1C0380E0
1C0780E0
1C0780E0
3E0780E0
7F9FE0E0
000000E0
000000E0
000000C0
000000C0
000000C0
00006180
00007900
00007E00
ENDCHAR
STARTCHAR 01CD
ENCODING 461
SWIDTH 720 0
DWIDTH 28 0
BBX 28 34 0 0
BITMAP
00402000
00204000
0030C000
001D8000
001F8000
000F0000
00000000
00000000
00060000
00060000
00060000
000F0000
000F0000
001F8000
001F8000
0033C000
0033C000
0061C000
0061E000
0041E000
00C0F000
00C0F000
01807000
01807800
03FFF800
03003C00
02003C00
06001E00
04001E00
0C000E00
0C000F00
18000F80
3C000FC0
FF003FF0
ENDCHAR
STARTCHAR 01CE
ENCODING 462
SWIDTH 437 0
DWIDTH 17 0
BBX 16 26 1 0
BITMAP
1008
1810
0C30
0E60
07C0
03C0
0000
0000
0FE0
1870
3038
7038
7038
7038
0078
03B8
0E38
1838
3038
7038
F038
F038
F078
78F9
7F3E
1E1C
ENDCHAR
STARTCHAR 01CF
ENCODING 463
SWIDTH 334 0
DWIDTH 13 0
BBX 11 34 1 0
BITMAP
8020
6040
3080
3B80
1F00
1F00
0000
0000
FFE0
1F00
1F00
0E00
0E00
0E00
0E00
0E00
0E00
0E00
0E00
0E00
0E00
0E00
0E00
0E00
0E00
0E00
0E00
0E00
0E00
0E00
0E00
1F00
1F00
FFE0
ENDCHAR
STARTCHAR 01D0
ENCODING 464
SWIDTH 282 0
DWIDTH 11 0
BBX 11 26 0 0
BITMAP
8020
6040
3080
3B80
1F00
1F00
0000
0000
0600
3E00
7E00
0E00
0E00
0E00
0E00
0E00
0E00
0E00
0E00
0E00
0E00
0E00
0E00
0E00
1F00
7FC0
ENDCHAR
STARTCHAR 01D1
ENCODING 465
SWIDTH 720 0
DWIDTH 28 0
BBX 26 34 1 0
BITMAP
00804000
0040C000
00718000
003B8000
001F0000
001E0000
00000000
00000000
003F8000
01C0E000
07003800
0E001C00
1E001E00
1C000E00
3C000F00
78000780
78000780
78000780
78000780
F80007C0
F80007C0
F80007C0
F80007C0
78000780
78000780
78000780
78000780
3C000F00
3C000E00
1E001E00
0E001C00
07003800
01C0E000
007F8000
ENDCHAR
STARTCHAR 01D2
ENCODING 466
SWIDTH 514 0
DWIDTH 20 0
BBX 17 26 1 0
BITMAP
080400
0C0800
061800
07B000
03E000
01E000
000000
000000
03F000
0C3C00
181E00
380F00
700700
700780
700780
F00780
F00380
F00380
F00380
700380
780700
780700
3C0600
1C0E00
0E1800
03E000
ENDCHAR
STARTCHAR 01D3
ENCODING 467
SWIDTH 720 0
DWIDTH 28 0
BBX 28 34 0 0
BITMAP
00402000
00204000
0030C000
001D8000
001F8000
000F0000
00000000
00000000
FFE01FF0
1F800780
0F000300
0F000300
0F000300
0F000300
0F000300
0F000300
0F000300
0F000300
0F000300
0F000300
0F000300
0F000300
0F000300
0F000300
0F000300
0F000300
0F000300
0F000300
0F000200
07000600
07800400
03C01C00
00E07000
003FC000
ENDCHAR
STARTCHAR 01D4
ENCODING 468
SWIDTH 514 0
DWIDTH 20 0
BBX 19 26 0 0
BITMAP
040200
060400
030C00
01D800
01F000
00F000
000000
000000
FC1F80
3C0780
1C0780
1C0780
1C0780
1C0780
1C0780
1C0780
1C0780
1C0780
1C0780
1C0780
1C0780
1C0780
1E0F80
0E17E0
0FE7C0
07C700
ENDCHAR
STARTCHAR 01D5
ENCODING 469
SWIDTH 720 0
DWIDTH 28 0
BBX 28 34 0 0
BITMAP
007FE000
007FE000
00000000
00000000
0030C000
0030C000
00000000
00000000
FFE01FF0
1F800780
0F000300
0F000300
0F000300
0F000300
0F000300
0F000300
0F000300
0F000300
0F000300
0F000300
0F000300
0F000300
0F000300
0F000300
0F000300
0F000300
0F000300
0F000300
0F000200
07000600
07800400
03C01C00
00E07000
003FC000
ENDCHAR
STARTCHAR 01D6
ENCODING 470
SWIDTH 514 0
DWIDTH 20 0
BBX 19 28 0 0
BITMAP
0FFF00
0FFF00
000000
000000
000000
070E00
0F1E00
070E00
000000
000000
FC1F80
3C0780
1C0780
1C0780
1C0780
1C0780
1C0780
1C0780
1C0780
1C0780
1C0780
1C0780
1C0780
1C0780
1E0F80
0E17E0
0FE7C0
07C700
ENDCHAR
STARTCHAR 01D7
ENCODING 471
SWIDTH 720 0
DWIDTH 28 0
BBX 28 34 0 0
BITMAP
00038000
00060000
00040000
00000000
0030C000
0030C000
00000000
00000000
FFE01FF0
1F800780
0F000300
0F000300
0F000300
0F000300
0F000300
0F000300
0F000300
0F000300
0F000300
0F000300
0F000300
0F000300
0F000300
0F000300
0F000300
0F000300
0F000300
0F000300
0F000200
07000600
07800400
03C01C00
00E07000
003FC000
ENDCHAR
STARTCHAR 01D8
ENCODING 472
SWIDTH 514 0
DWIDTH 20 0
BBX 19 32 0 0
BITMAP
003C00
007800
007000
006000
00C000
008000
000000
000000
000000
070E00
0F1E00
070E00
000000
000000
FC1F80
3C0780
1C0780
1C0780
1C0780
1C0780
1C0780
1C0780
1C0780
1C0780
1C0780
1C0780
1C0780
1C0780
1E0F80
0E17E0
0FE7C0
07C700
ENDCHAR
STARTCHAR 01D9
ENCODING 473
SWIDTH 720 0
DWIDTH 28 0
BBX 28 34 0 0
BITMAP
00304000
001D8000
000F0000
00000000
0030C000
0030C000
00000000
00000000
FFE01FF0
1F800780
0F000300
0F000300
0F000300
0F000300
0F000300
0F000300
0F000300
0F000300
0F000300
0F000300
0F000300
0F000300
0F000300
0F000300
0F000300
0F000300
0F000300
0F000300
0F000200
07000600
07800400
03C01C00
00E07000
003FC000
ENDCHAR
STARTCHAR 01DA
ENCODING 474
SWIDTH 514 0
DWIDTH 20 0
BBX 19 31 0 0
BITMAP
040200
060400
030C00
03D800
01F000
00F000
000000
000000
070E00
0F1E00
070E00
000000
000000
FC1F80
3C0780
1C0780
1C0780
1C0780
1C0780
1C0780
1C0780
1C0780
1C0780
1C0780
1C0780
1C0780
1C0780
1E0F80
0E17E0
0FE7C0
07C700
ENDCHAR
STARTCHAR 01DB
ENCODING 475
SWIDTH 720 0
DWIDTH 28 0
BBX 28 34 0 0
BITMAP
001C0000
00060000
00020000
00000000
0030C000
0030C000
00000000
00000000
FFE01FF0
1F800780
0F000300
0F000300
0F000300
0F000300
0F000300
0F000300
0F000300
0F000300
0F000300
0F000300
0F000300
0F000300
0F000300
0F000300
0F000300
0F000300
0F000300
0F000300
0F000200
07000600
07800400
03C01C00
00E07000
003FC000
ENDCHAR
STARTCHAR 01DC
ENCODING 476
SWIDTH 514 0
DWIDTH 20 0
BBX 19 32 0 0
BITMAP
03C000
01C000
00E000
006000
002000
001000
000000
000000
000000
070E00
0F1E00
070E00
000000
000000
FC1F80
3C0780
1C0780
1C0780
1C0780
1C0780
1C0780
1C0780
1C0780
1C0780
1C0780
1C0780
1C0780
1C0780
1E0F80
0E17E0
0FE7C0
07C700
ENDCHAR
STARTCHAR 01DD
ENCODING 477
SWIDTH 437 0
DWIDTH 17 0
BBX 15 18 1 0
BITMAP
07C0
1FF0
3FF8
30FC
603C
401E
801E
000E
000E
000E
000E
FFFE
700E
780C
780C
3818
1C30
0FC0
ENDCHAR
STARTCHAR 01DE
ENCODING 478
SWIDTH 720 0
DWIDTH 28 0
BBX 28 34 0 0
BITMAP
007FE000
007FE000
00000000
00000000
0030C000
0030C000
00000000
00000000
00060000
00060000
00060000
000F0000
000F0000
001F8000
001F8000
0033C000
0033C000
0061C000
0061E000
0041E000
00C0F000
00C0F000
01807000
01807800
03FFF800
03003C00
02003C00
06001E00
04001E00
0C000E00
0C000F00
18000F80
3C000FC0
FF003FF0
ENDCHAR
STARTCHAR 01DF
ENCODING 479
SWIDTH 437 0
DWIDTH 17 0
BBX 16 28 1 0
BITMAP
7FFC
7FFC
0000
0000
0000
1C70
3C78
1C70
0000
0000
0FE0
1870
3038
7038
7038
7038
0078
03B8
0E38
1838
3038
7038
F038
F038
F078
78F9
7F3E
1E1C
ENDCHAR
STARTCHAR 01E0
ENCODING 480
SWIDTH 720 0
DWIDTH 28 0
BBX 28 34 0 0
BITMAP
007FE000
007FE000
00000000
00000000
00060000
00060000
00000000
00000000
00060000
00060000
00060000
000F0000
000F0000
001F8000
001F8000
0033C000
0033C000
0061C000
0061E000
0041E000
00C0F000
00C0F000
01807000
01807800
03FFF800
03003C00
02003C00
06001E00
04001E00
0C000E00
0C000F00
18000F80
3C000FC0
FF003FF0
ENDCHAR
STARTCHAR 01E1
ENCODING 481
SWIDTH 437 0
DWIDTH 17 0
BBX 16 28 1 0
BITMAP
7FFC
7FFC
0000
0000
0000
0380
07C0
0380
0000
0000
0FE0
1870
3038
7038
7038
7038
0078
03B8
0E38
1838
3038
7038
F038
F038
F078
78F9
7F3E
1E1C
ENDCHAR
STARTCHAR 01E2
ENCODING 482
SWIDTH 900 0
DWIDTH 35 0
BBX 33 30 0 0
BITMAP
0000FFF000
0000FFF000
0000000000
0000000000
003FFFFE00
0007F00600
0006F00200
0006F00200
0004F00200
000CF00100
0008F00000
0018F00000
0010F00800
0030F00800
0060F00800
0060F01800
00C0FFF800
00C0F01800
0180F00800
01FFF00800
0300F00800
0300F00000
0600F00000
0400F00080
0C00F00080
0800F00080
1800F00180
1800F00300
7801F00700
FF0FFFFF00
ENDCHAR
STARTCHAR 01E3
ENCODING 483
SWIDTH 668 0
DWIDTH 26 0
BBX 24 23 1 0
BITMAP
03FFC0
03FFC0
000000
000000
000000
0FE1F0
38763C
307C1E
70380E
70380F
30380F
00FFFF
033800
0C3800
183800
703800
703801
F03C03
F03C02
F03F0E
78CFFC
7F87F8
1E03E0
ENDCHAR
STARTCHAR 01E4
ENCODING 484
SWIDTH 720 0
DWIDTH 28 0
BBX 27 26 1 0
BITMAP
003FE200
01E07E00
03801E00
07000600
0E000600
1C000200
3C000200
3C000100
78000000
78000000
78000000
F8000000
F8007FE0
F8001F80
F8000F00
78000F00
78000F00
78000F00
7C01FFE0
3C000F00
1E000F00
1F000F00
0F000F00
03C00F00
01F03C00
003FE000
ENDCHAR
STARTCHAR 01E5
ENCODING 485
SWIDTH 514 0
DWIDTH 20 0
BBX 19 26 0 -8
BITMAP
01F800
061FE0
0E0F00
1C0F00
1C0700
1C0700
1C0700
1C0700
1C0700
0E0E00
070C00
03F000
040000
080000
1C0000
1FFF00
1FFF80
0FFFC0
0800C0
180060
300060
FFFFE0
700080
7E0380
1FFE00
07F800
ENDCHAR
STARTCHAR 01E6
ENCODING 486
SWIDTH 720 0
DWIDTH 28 0
BBX 27 34 1 0
BITMAP
00402000
00604000
0030C000
00398000
001F0000
000F0000
00000000
00000000
003FE200
00E07E00
03801E00
07000600
0E000600
1E000200
3C000200
3C000100
78000000
78000000
78000000
F8000000
F8007FE0
F8001F80
F8000F00
78000F00
78000F00
78000F00
7C000F00
3C000F00
1E000F00
1F000F00
0F000F00
03C00F00
01F03E00
003FE000
ENDCHAR
STARTCHAR 01E7
ENCODING 487
SWIDTH 514 0
DWIDTH 20 0
BBX 18 34 1 -8
BITMAP
100800
0C0800
063000
077000
03E000
03C000
000000
000000
03F000
0E3FC0
1C1E00
381E00
380E00
380E00
380E00
380E00
380E00
1C1C00
0E3800
07E000
080000
100000
380000
3FFE00
3FFF80
1FFF80
1001C0
3000C0
600080
E00080
F00100
FC0600
3FFC00
0FE000
ENDCHAR
STARTCHAR 01E8
ENCODING 488
SWIDTH 720 0
DWIDTH 28 0
BBX 27 34 1 0
BITMAP
02010000
03020000
01860000
00EC0000
00FC0000
00780000
00000000
00000000
FFE1FF00
3F007C00
1E007000
1E00E000
1E00C000
1E018000
1E030000
1E060000
1E1C0000
1E380000
1E700000
1EE00000
1FE00000
1EF00000
1E780000
1E3C0000
1E1E0000
1E0F0000
1E078000
1E03C000
1E01F000
1E00F800
1E007C00
1E007E00
3F007F80
FFE1FFE0
ENDCHAR
STARTCHAR 01E9
ENCODING 489
SWIDTH 514 0
DWIDTH 20 0
BBX 20 34 0 0
BITMAP
080400
060400
031800
03B800
01F000
01E000
000000
0C0000
3C0000
FC0000
1C0000
1C0000
1C0000
1C0000
1C0000
1C0000
1C1FE0
1C0700
1C0C00
1C1800
1C3000
1C6000
1CC000
1FC000
1DE000
1CF000
1C7000
1C7800
1C3C00
1C1C00
1C1E00
1C0F00
1E0F80
FF9FF0
ENDCHAR
STARTCHAR 01EA
ENCODING 490
SWIDTH 720 0
DWIDTH 28 0
BBX 26 34 1 -8
BITMAP
003F8000
01C0E000
07003800
0E001C00
1E001E00
1C000E00
3C000F00
78000780
78000780
78000780
78000780
F80007C0
F80007C0
F80007C0
F80007C0
78000780
78000780
78000780
78000780
3C000F00
3C000E00
1E001E00
0E001C00
07003800
01C0E000
007F8000
00018000
00030000
00060000
00060000
000E0000
000E0000
000E0000
0007C000
ENDCHAR
STARTCHAR 01EB
ENCODING 491
SWIDTH 514 0
DWIDTH 20 0
BBX 17 26 1 -8
BITMAP
03F000
0C3C00
181E00
380F00
700700
700780
700780
F00780
F00380
F00380
F00380
700380
780700
780700
3C0600
1C0E00
0E1800
03F000
002000
004000
00C000
018000
018000
018000
01C000
00F800
ENDCHAR
STARTCHAR 01EC
ENCODING 492
SWIDTH 720 0
DWIDTH 28 0
BBX 26 38 1 -8
BITMAP
01FFE000
01FFE000
00000000
00000000
003F8000
01C0E000
07003800
0E001C00
1E001E00
1C000E00
3C000F00
78000780
78000780
78000780
78000780
F80007C0
F80007C0
F80007C0
F80007C0
78000780
78000780
78000780
78000780
3C000F00
3C000E00
1E001E00
0E001C00
07003800
01C0E000
007F8000
00018000
00030000
00060000
00060000
000E0000
000E0000
000E0000
0007C000
ENDCHAR
STARTCHAR 01ED
ENCODING 493
SWIDTH 514 0
DWIDTH 20 0
BBX 17 31 1 -8
BITMAP
1FFE00
1FFE00
000000
000000
000000
03F000
0C3C00
181E00
380F00
700700
700780
700780
F00780
F00380
F00380
F00380
700380
780700
780700
3C0600
1C0E00
0E1800
03F000
002000
004000
00C000
018000
018000
018000
01C000
00F800
ENDCHAR
STARTCHAR 01EE
ENCODING 494
SWIDTH 540 0
DWIDTH 21 0
BBX 19 42 1 -8
BITMAP
080200
060400
030800
03B800
01F000
01F000
000000
000000
3FFFC0
380F80
200F00
201F00
403E00
407C00
407800
00F800
01F000
03E000
03C000
078000
0FE000
00F800
003E00
001F00
000F80
000780
0003C0
0003C0
0003E0
0003E0
0003E0
0003E0
0003E0
0003E0
0003E0
0003C0
8007C0
C00F80
601F80
383F00
1FFC00
07F000
ENDCHAR
STARTCHAR 01EF
ENCODING 495
SWIDTH 437 0
DWIDTH 17 0
BBX 15 34 1 -8
BITMAP
2010
1810
0C60
0EE0
07C0
0780
0000
0000
FFFE
C03C
C03C
8078
80F0
00E0
01E0
03C0
0780
0700
0FC0
01E0
0070
0038
001C
001C
001C
001C
001C
801C
803C
C03C
60F8
3FF8
1FE0
0FC0
ENDCHAR
STARTCHAR 01F0
ENCODING 496
SWIDTH 282 0
DWIDTH 11 0
BBX 13 34 -3 -8
BITMAP
1008
0818
0E30
0760
03E0
03C0
0000
0000
00C0
03C0
0FC0
01C0
01C0
01C0
01C0
01C0
01C0
01C0
01C0
01C0
01C0
01C0
01C0
01C0
01C0
01C0
01C0
01C0
01C0
01C0
0180
E180
F300
7C00
ENDCHAR
STARTCHAR 01F1
ENCODING 497
SWIDTH 1337 0
DWIDTH 52 0
BBX 50 26 1 0
BITMAP
FFFF0003FFFF80
3E03E003800F80
1E00F803001F00
1E003C02001E00
1E001E02003E00
1E001F02007C00
1E000F00007800
1E000F8000F800
1E00078001F000
1E00078003E000
1E00078003C000
1E0007C007C000
1E0007C00F8000
1E0007C00F0000
1E0007C01F0000
1E0007803E0000
1E0007803C0000
1E0007807C0000
1E000F80F80000
1E000F00F00040
1E001E01F00040
1E001E03E000C0
1E003C03C00080
1E00F807C00180
3E03E00F800380
FFFF000FFFFF80
ENDCHAR
STARTCHAR 01F2
ENCODING 498
SWIDTH 1157 0
DWIDTH 45 0
BBX 44 26 1 0
BITMAP
FFFF00000000
3E03E0000000
1E00F8000000
1E003C000000
1E001E000000
1E001F000000
1E000F000000
1E000F800000
1E000787FFF0
1E00078601E0
1E00078403C0
1E0007C403C0
1E0007C00780
1E0007C00F00
1E0007C00F00
1E0007801E00
1E0007803C00
1E0007803C00
1E000F807800
1E000F00F000
1E001E01E000
1E001E01E010
1E003C03C010
1E00F8078020
3E03E0078060
FFFF000FFFE0
ENDCHAR
STARTCHAR 01F3
ENCODING 499
SWIDTH 951 0
DWIDTH 37 0
BBX 35 27 1 0
BITMAP
0003000000
001F000000
003F000000
000F000000
000F000000
0007000000
0007000000
0007000000
0007000000
03E707FFE0
0E3F0403E0
1C1F0C03C0
380F080780
300F000F00
7007000F00
7007001E00
F007003C00
F007003C00
F007007800
F00700F000
F00701E000
780701E000
780703C020
3C0F078020
3E1FE78020
1FF78F0060
07C61FFFE0
ENDCHAR
STARTCHAR 01F4
ENCODING 500
SWIDTH 720 0
DWIDTH 28 0
BBX 27 34 1 0
BITMAP
0003C000
00038000
00070000
00060000
00040000
00080000
00000000
00000000
003FE200
00E07E00
03801E00
07000600
0E000600
1E000200
3C000200
3C000100
78000000
78000000
78000000
F8000000
F8007FE0
F8001F80
F8000F00
78000F00
78000F00
78000F00
7C000F00
3C000F00
1E000F00
1F000F00
0F000F00
03C00F00
01F03E00
003FE000
ENDCHAR
STARTCHAR 01F5
ENCODING 501
SWIDTH 514 0
DWIDTH 20 0
BBX 18 34 1 -8
BITMAP
00F000
00E000
00C000
01C000
018000
010000
000000
000000
03F000
0E3FC0
1C1E00
381E00
380E00
380E00
380E00
380E00
380E00
1C1C00
0E3800
07E000
080000
100000
380000
3FFE00
3FFF80
1FFF80
1001C0
3000C0
600080
E00080
F00100
FC0600
3FFC00
0FE000
ENDCHAR
STARTCHAR 01F6
ENCODING 502
SWIDTH 951 0
DWIDTH 37 0
BBX 33 26 1 0
BITMAP
FFE1FFC000
3F003F0000
1E001E0000
1E001E0000
1E001E0000
1E001E0000
1E001E0000
1E001E0000
1E001E1F80
1E001E0780
1E001E0380
1E001E0380
1FFFFE0380
1E001E0380
1E001E0380
1E001E0380
1E001E0380
1E001E0380
1E001E0380
1E001E0380
1E001E0380
1E001E0380
1E000E0380
1E000E0700
3F00070F00
FFE001FC00
ENDCHAR
STARTCHAR 01F7
ENCODING 503
SWIDTH 565 0
DWIDTH 22 0
BBX 19 34 1 -8
BITMAP
0C1E00
7C7F80
FCFFC0
3D87C0
1E03E0
1C01E0
1C01E0
1C01E0
1C00E0
1C00E0
1C00E0
1C00E0
1C00E0
1C00E0
1C01E0
1C01C0
1C01C0
1C0380
1C0300
1C0700
1C0E00
1C1C00
1C3800
1C6000
1CC000
1F0000
1C0000
1C0000
1C0000
1C0000
1C0000
3C0000
780000
800000
ENDCHAR
STARTCHAR 01F8
ENCODING 504
SWIDTH 720 0
DWIDTH 28 0
BBX 29 34 -1 0
BITMAP
001E0000
000E0000
00060000
00070000
00030000
00010000
00000000
00000000
FF000FF8
1F8003C0
07800180
03C00180
03E00180
02F00180
02F80180
02780180
023C0180
021E0180
020F0180
020F0180
02078180
0203C180
0201E180
0200F180
0200F180
02007980
02003D80
02001F80
02000F80
02000F80
06000780
06000380
07000180
3FE00080
ENDCHAR
STARTCHAR 01F9
ENCODING 505
SWIDTH 514 0
DWIDTH 20 0
BBX 19 26 0 0
BITMAP
03C000
01C000
00E000
006000
003000
001000
000000
000000
0C3C00
3CFE00
FD8F00
1E0700
1C0780
1C0780
1C0380
1C0380
1C0380
1C0380
1C0380
1C0380
1C0380
1C0380
1C0780
1C0780
3E0780
7F9FE0
ENDCHAR
STARTCHAR 01FA
ENCODING 506
SWIDTH 720 0
DWIDTH 28 0
BBX 28 39 0 0
BITMAP
0003C000
00038000
00070000
00060000
00040000
00080000
00000000
00000000
000F0000
00118000
0030C000
0030C000
00118000
000F0000
00060000
00060000
000F0000
000F0000
001F8000
001F8000
0033C000
0033C000
0061C000
0061E000
0041E000
00C0F000
00C0F000
01807000
01807800
03FFF800
03003C00
02003C00
06001E00
04001E00
0C000E00
0C000F00
18000F80
3C000FC0
FF003FF0
ENDCHAR
STARTCHAR 01FB
ENCODING 507
SWIDTH 437 0
DWIDTH 17 0
BBX 16 34 1 0
BITMAP
00F0
01E0
01C0
0180
0300
0200
0000
0000
03C0
0460
0820
0820
0460
03C0
0000
0000
0FE0
1870
3038
7038
7038
7038
0078
03B8
0E38
1838
3038
7038
F038
F038
F078
78F9
7F3E
1E1C
ENDCHAR
STARTCHAR 01FC
ENCODING 508
SWIDTH 900 0
DWIDTH 35 0
BBX 33 34 0 0
BITMAP
0000780000
0000700000
0000600000
0000C00000
0000800000
0001000000
0000000000
0000000000
003FFFFE00
0007F00600
0006F00200
0006F00200
0004F00200
000CF00100
0008F00000
0018F00000
0010F00800
0030F00800
0060F00800
0060F01800
00C0FFF800
00C0F01800
0180F00800
01FFF00800
0300F00800
0300F00000
0600F00000
0400F00080
0C00F00080
0800F00080
1800F00180
1800F00300
7801F00700
FF0FFFFF00
ENDCHAR
STARTCHAR 01FD
ENCODING 509
SWIDTH 668 0
DWIDTH 26 0
BBX 24 26 1 0
BITMAP
000F00
000E00
001C00
001800
001000
002000
000000
000000
0FE1F0
38763C
307C1E
70380E
70380F
30380F
00FFFF
033800
0C3800
183800
703800
703801
F03C03
F03C02
F03F0E
78CFFC
7F87F8
1E03E0
ENDCHAR
STARTCHAR 01FE
ENCODING 510
SWIDTH 720 0
DWIDTH 28 0
BBX 26 34 1 0
BITMAP
00078000
00070000
000E0000
000C0000
00080000
00100000
00000000
00000000
007F8100
01C0E300
03007E00
0E003C00
1E001E00
1C001F00
3C002F00
78006780
7800C780
78018780
780307C0
F80207C0
F80407C0
F80C07C0
F81807C0
78300780
78600780
78400780
78800700
3D800F00
3F000E00
1E001E00
0F001C00
0F803000
11C0E000
203F0000
ENDCHAR
STARTCHAR 01FF
ENCODING 511
SWIDTH 514 0
DWIDTH 20 0
BBX 17 27 1 -1
BITMAP
007800
00F000
00E000
00C000
018000
010000
000000
000080
03F080
0C3D00
181E00
380F00
300F00
701F80
703780
706780
F0C380
F18380
710380
720380
7C0300
7C0700
3C0600
3C0E00
6E1800
C3F000
800000
ENDCHAR
STARTCHAR 0200
ENCODING 512
SWIDTH 720 0
DWIDTH 28 0
BBX 28 34 0 0
BITMAP
01E78000
00E38000
00618000
00618000
00208000
00104000
00000000
00000000
00060000
00060000
00060000
000F0000
000F0000
001F8000
001F8000
0033C000
0033C000
0061C000
0061E000
0041E000
00C0F000
00C0F000
01807000
01807800
03FFF800
03003C00
02003C00
06001E00
04001E00
0C000E00
0C000F00
18000F80
3C000FC0
FF003FF0
ENDCHAR
STARTCHAR 0201
ENCODING 513
SWIDTH 437 0
DWIDTH 17 0
BBX 16 26 1 0
BITMAP
39E0
38E0
1860
0820
0C30
0410
0000
0000
0FE0
1870
3038
7038
7038
7038
0078
03B8
0E38
1838
3038
7038
F038
F038
F078
78F9
7F3E
1E1C
ENDCHAR
STARTCHAR 0202
ENCODING 514
SWIDTH 720 0
DWIDTH 28 0
BBX 28 33 0 0
BITMAP
000F0000
003FC000
007FE000
00606000
00802000
00000000
00000000
00060000
00060000
00060000
000F0000
000F0000
001F8000
001F8000
0033C000
0033C000
0061C000
0061E000
0041E000
00C0F000
00C0F000
01807000
01807800
03FFF800
03003C00
02003C00
06001E00
04001E00
0C000E00
0C000F00
18000F80
3C000FC0
FF003FF0
ENDCHAR
STARTCHAR 0203
ENCODING 515
SWIDTH 437 0
DWIDTH 17 0
BBX 16 25 1 0
BITMAP
07C0
0FE0
1FF0
3038
2008
0000
0000
0FE0
1870
3038
7038
7038
7038
0078
03B8
0E38
1838
3038
7038
F038
F038
F078
78F9
7F3E
1E1C
ENDCHAR
STARTCHAR 0204
ENCODING 516
SWIDTH 617 0
DWIDTH 24 0
BBX 22 34 1 0
BITMAP
0F3C00
071C00
030C00
030C00
018600
008200
000000
000000
FFFFF0
1E0070
1E0030
1E0010
1E0010
1E0010
1E0000
1E0000
1E0040
1E0040
1E00C0
1E01C0
1FFFC0
1E01C0
1E00C0
1E0040
1E0040
1E0000
1E0000
1E0004
1E0008
1E0008
1E0018
1E0038
3F0070
FFFFF0
ENDCHAR
STARTCHAR 0205
ENCODING 517
SWIDTH 437 0
DWIDTH 17 0
BBX 15 26 1 0
BITMAP
71C0
30C0
38E0
1860
0820
0820
0000
0000
03E0
0C78
103C
301C
601E
601E
7FFE
6000
E000
E000
7000
7002
7802
7C06
3E0C
1FF8
0FF0
07E0
ENDCHAR
STARTCHAR 0206
ENCODING 518
SWIDTH 617 0
DWIDTH 24 0
BBX 22 33 1 0
BITMAP
007C00
00FE00
01FF00
038180
020080
000000
000000
FFFFF0
1E0070
1E0030
1E0010
1E0010
1E0010
1E0000
1E0000
1E0040
1E0040
1E00C0
1E01C0
1FFFC0
1E01C0
1E00C0
1E0040
1E0040
1E0000
1E0000
1E0004
1E0008
1E0008
1E0018
1E0038
3F0070
FFFFF0
ENDCHAR
STARTCHAR 0207
ENCODING 519
SWIDTH 437 0
DWIDTH 17 0
BBX 15 25 1 0
BITMAP
07C0
0FF0
1FF0
1818
2008
0000
0000
03E0
0C78
103C
301C
601E
601E
7FFE
6000
E000
E000
7000
7002
7802
7C06
3E0C
1FF8
0FF0
07E0
ENDCHAR
STARTCHAR 0208
ENCODING 520
SWIDTH 334 0
DWIDTH 13 0
BBX 13 34 -1 0
BITMAP
F3C0
71C0
30C0
1040
1860
0820
0000
0000
3FF8
07C0
07C0
0380
0380
0380
0380
0380
0380
0380
0380
0380
0380
0380
0380
0380
0380
0380
0380
0380
0380
0380
0380
07C0
07C0
3FF8
ENDCHAR
STARTCHAR 0209
ENCODING 521
SWIDTH 282 0
DWIDTH 11 0
BBX 11 26 -1 0
BITMAP
E780
E380
6180
2080
30C0
1040
0000
0000
0300
1F00
3F00
0700
0700
0700
0700
0700
0700
0700
0700
0700
0700
0700
0700
0700
0F80
3FE0
ENDCHAR
STARTCHAR 020A
ENCODING 522
SWIDTH 334 0
DWIDTH 13 0
BBX 11 33 1 0
BITMAP
1F00
3F80
7FC0
E0E0
8020
0000
0000
FFE0
1F00
1F00
0E00
0E00
0E00
0E00
0E00
0E00
0E00
0E00
0E00
0E00
0E00
0E00
0E00
0E00
0E00
0E00
0E00
0E00
0E00
0E00
1F00
1F00
FFE0
ENDCHAR
STARTCHAR 020B
ENCODING 523
SWIDTH 282 0
DWIDTH 11 0
BBX 11 25 0 0
BITMAP
1F00
3F80
7FC0
C0E0
8020
0000
0000
0600
3E00
7E00
0E00
0E00
0E00
0E00
0E00
0E00
0E00
0E00
0E00
0E00
0E00
0E00
0E00
1F00
7FC0
ENDCHAR
STARTCHAR 020C
ENCODING 524
SWIDTH 720 0
DWIDTH 28 0
BBX 26 34 1 0
BITMAP
03CF0000
01C70000
00C30000
00410000
00618000
00208000
00000000
00000000
003F8000
01C0E000
07003800
0E001C00
1E001E00
1C000E00
3C000F00
78000780
78000780
78000780
78000780
F80007C0
F80007C0
F80007C0
F80007C0
78000780
78000780
78000780
78000780
3C000F00
3C000E00
1E001E00
0E001C00
07003800
01C0E000
007F8000
ENDCHAR
STARTCHAR 020D
ENCODING 525
SWIDTH 514 0
DWIDTH 20 0
BBX 17 26 1 0
BITMAP
38E000
38E000
186000
0C3000
0C3000
041000
000000
000000
03F000
0C3C00
181E00
380F00
700700
700780
700780
F00780
F00380
F00380
F00380
700380
780700
780700
3C0600
1C0E00
0E1800
03E000
ENDCHAR
STARTCHAR 020E
ENCODING 526
SWIDTH 720 0
DWIDTH 28 0
BBX 26 33 1 0
BITMAP
001F0000
007F8000
007FC000
00C0C000
00802000
00000000
00000000
003F8000
01C0E000
07003800
0E001C00
1E001E00
1C000E00
3C000F00
78000780
78000780
78000780
78000780
F80007C0
F80007C0
F80007C0
F80007C0
78000780
78000780
78000780
78000780
3C000F00
3C000E00
1E001E00
0E001C00
07003800
01C0E000
007F8000
ENDCHAR
STARTCHAR 020F
ENCODING 527
SWIDTH 514 0
DWIDTH 20 0
BBX 17 25 1 0
BITMAP
03E000
07F800
0FF800
0C0C00
100400
000000
000000
03F000
0C3C00
181E00
380F00
700700
700780
700780
F00780
F00380
F00380
F00380
700380
780700
780700
3C0600
1C0E00
0E1800
03E000
ENDCHAR
STARTCHAR 0210
ENCODING 528
SWIDTH 668 0
DWIDTH 26 0
BBX 25 34 1 0
BITMAP
1E780000
0E380000
06180000
02180000
030C0000
01040000
00000000
00000000
FFFC0000
3F0F8000
1E03C000
1E01E000
1E01E000
1E01F000
1E00F000
1E01F000
1E01F000
1E01E000
1E03E000
1E07C000
1E0F8000
1FFC0000
1E3C0000
1E1E0000
1E0E0000
1E0F0000
1E078000
1E03C000
1E03C000
1E01E000
1E00F000
1E007800
3F007E00
FFE03F80
ENDCHAR
STARTCHAR 0211
ENCODING 529
SWIDTH 334 0
DWIDTH 13 0
BBX 13 26 0 0
BITMAP
71C0
71C0
30C0
1860
1860
0820
0000
0000
0C78
3CF8
FD38
1E00
1C00
1C00
1C00
1C00
1C00
1C00
1C00
1C00
1C00
1C00
1C00
1C00
1E00
FF80
ENDCHAR
STARTCHAR 0212
ENCODING 530
SWIDTH 668 0
DWIDTH 26 0
BBX 25 33 1 0
BITMAP
00F80000
01FC0000
03FE0000
06070000
04010000
00000000
00000000
FFFC0000
3F0F8000
1E03C000
1E01E000
1E01E000
1E01F000
1E00F000
1E01F000
1E01F000
1E01E000
1E03E000
1E07C000
1E0F8000
1FFC0000
1E3C0000
1E1E0000
1E0E0000
1E0F0000
1E078000
1E03C000
1E03C000
1E01E000
1E00F000
1E007800
3F007E00
FFE03F80
ENDCHAR
STARTCHAR 0213
ENCODING 531
SWIDTH 334 0
DWIDTH 13 0
BBX 13 25 0 0
BITMAP
07C0
0FE0
1FF0
3818
2008
0000
0000
0C78
3CF8
FD38
1E00
1C00
1C00
1C00
1C00
1C00
1C00
1C00
1C00
1C00
1C00
1C00
1C00
1E00
FF80
ENDCHAR
STARTCHAR 0214
ENCODING 532
SWIDTH 720 0
DWIDTH 28 0
BBX 28 34 0 0
BITMAP
03CF0000
01C70000
00C30000
00C30000
00410000
00208000
00000000
00000000
FFE01FF0
1F800780
0F000300
0F000300
0F000300
0F000300
0F000300
0F000300
0F000300
0F000300
0F000300
0F000300
0F000300
0F000300
0F000300
0F000300
0F000300
0F000300
0F000300
0F000300
0F000200
07000600
07800400
03C01C00
00E07000
003FC000
ENDCHAR
STARTCHAR 0215
ENCODING 533
SWIDTH 514 0
DWIDTH 20 0
BBX 19 26 0 0
BITMAP
1C7000
1C7000
0C3000
061800
061800
020800
000000
000000
FC1F80
3C0780
1C0780
1C0780
1C0780
1C0780
1C0780
1C0780
1C0780
1C0780
1C0780
1C0780
1C0780
1C0780
1E0F80
0E17E0
0FE7C0
07C700
ENDCHAR
STARTCHAR 0216
ENCODING 534
SWIDTH 720 0
DWIDTH 28 0
BBX 28 33 0 0
BITMAP
000F8000
003FC000
003FE000
00606000
00401000
00000000
00000000
FFE01FF0
1F800780
0F000300
0F000300
0F000300
0F000300
0F000300
0F000300
0F000300
0F000300
0F000300
0F000300
0F000300
0F000300
0F000300
0F000300
0F000300
0F000300
0F000300
0F000300
0F000200
07000600
07800400
03C01C00
00E07000
003FC000
ENDCHAR
STARTCHAR 0217
ENCODING 535
SWIDTH 514 0
DWIDTH 20 0
BBX 19 25 0 0
BITMAP
01F000
03F800
07FC00
0C0E00
080200
000000
000000
FC1F80
3C0780
1C0780
1C0780
1C0780
1C0780
1C0780
1C0780
1C0780
1C0780
1C0780
1C0780
1C0780
1C0780
1E0F80
0E17E0
0FE7C0
07C700
ENDCHAR
STARTCHAR 0218
ENCODING 536
SWIDTH 565 0
DWIDTH 22 0
BBX 18 36 2 -10
BITMAP
07F100
1C3F00
300F00
700700
700300
F00300
F00100
780100
7C0100
7E0000
3F8000
1FE000
07F800
03FC00
00FF00
003F00
000F80
800780
4003C0
4003C0
400380
600380
600380
700700
7C0E00
47F800
000000
000000
00C000
01E000
01E000
01F000
002000
002000
006000
018000
ENDCHAR
STARTCHAR 0219
ENCODING 537
SWIDTH 385 0
DWIDTH 15 0
BBX 12 28 2 -10
BITMAP
1E20
61E0
C0E0
C060
C060
E020
F800
7E00
3F80
0FC0
03E0
00F0
8070
8070
C070
C060
F0C0
9F00
0000
0000
0E00
0F00
0F00
0F00
0100
0100
0200
0C00
ENDCHAR
STARTCHAR 021A
ENCODING 538
SWIDTH 617 0
DWIDTH 24 0
BBX 22 35 1 -9
BITMAP
FFFFFC
E0781C
C0780C
807804
807804
007800
007800
007800
007800
007800
007800
007800
007800
007800
007800
007800
007800
007800
007800
007800
007800
007800
007800
007800
00FC00
07FF00
000000
000000
007000
007800
007800
000800
000800
001000
006000
ENDCHAR
STARTCHAR 021B
ENCODING 539
SWIDTH 282 0
DWIDTH 11 0
BBX 11 32 0 -8
BITMAP
0400
0400
0400
0C00
1C00
3C00
FFC0
1C00
1C00
1C00
1C00
1C00
1C00
1C00
1C00
1C00
1C00
1C00
1C00
1C00
1C00
1E20
0FC0
0780
0000
0E00
1F00
0F00
0100
0300
0600
1C00
ENDCHAR
STARTCHAR 021C
ENCODING 540
SWIDTH 565 0
DWIDTH 22 0
BBX 19 34 1 -8
BITMAP
47FC00
7C0F00
7803C0
6003E0
6001E0
4001E0
4001E0
8001E0
0001E0
0003E0
0003C0
0007C0
000F80
001E00
007800
07FE00
1E0F80
0007C0
0003C0
0001E0
0001E0
0001E0
0001E0
0001E0
0001E0
0003E0
0003C0
0007C0
000F80
001F00
007C00
01F000
1F8000
F00000
ENDCHAR
STARTCHAR 021D
ENCODING 541
SWIDTH 385 0
DWIDTH 15 0
BBX 11 26 2 -8
BITMAP
9F80
E1C0
81E0
80E0
80E0
00E0
00E0
00E0
01C0
01C0
0380
0F00
33C0
01E0
00E0
00E0
00E0
00E0
00E0
00E0
01C0
03C0
0780
0E00
3800
C000
ENDCHAR
STARTCHAR 021E
ENCODING 542
SWIDTH 720 0
DWIDTH 28 0
BBX 26 34 1 0
BITMAP
00804000
00408000
00718000
003B0000
003F0000
001E0000
00000000
00000000
FFE1FFC0
3F003F00
1E001E00
1E001E00
1E001E00
1E001E00
1E001E00
1E001E00
1E001E00
1E001E00
1E001E00
1E001E00
1FFFFE00
1E001E00
1E001E00
1E001E00
1E001E00
1E001E00
1E001E00
1E001E00
1E001E00
1E001E00
1E001E00
1E001E00
3F003F00
FFE1FFC0
ENDCHAR
STARTCHAR 021F
ENCODING 543
SWIDTH 514 0
DWIDTH 20 0
BBX 19 34 0 0
BITMAP
040200
060400
030C00
01D800
01F000
00F000
000000
0C0000
3C0000
FC0000
1C0000
1C0000
1C0000
1C0000
1C0000
1C0000
1C3C00
1CFE00
1D8F00
1E0700
1C0700
1C0780
1C0780
1C0780
1C0780
1C0780
1C0780
1C0780
1C0780
1C0780
1C0780
1C0780
1E0780
7F9FE0
ENDCHAR
STARTCHAR 0220
ENCODING 544
SWIDTH 642 0
DWIDTH 25 0
BBX 24 34 1 -8
BITMAP
FE1FC0
3EFFF0
1FC1F0
1E00F8
1E0078
1E0078
1E0078
1E0078
1E0078
1E0078
1E0078
1E0078
1E0078
1E0078
1E0078
1E0078
1E0078
1E0078
1E0078
1E0078
1E0078
1E0078
1E0078
1E0078
3F0078
FFE078
000078
000078
000078
000078
000078
000078
0000FC
0007FF
ENDCHAR
STARTCHAR 0221
ENCODING 545
SWIDTH 514 0
DWIDTH 20 0
BBX 21 35 1 -8
BITMAP
000300
001F00
003F00
000F00
000F00
000F00
000700
000700
000700
03E700
0E3F00
1C1F00
380F00
300F00
700700
700700
F00700
F00700
F00700
F00700
F00700
780700
780700
3C0F00
3E1F00
1FE700
07C700
000700
0007E0
0007F0
000F18
000B08
001B08
001188
0030F0
ENDCHAR
STARTCHAR 0222
ENCODING 546
SWIDTH 617 0
DWIDTH 24 0
BBX 21 26 1 0
BITMAP
000C00
01C780
0F01C0
1E01E0
3C00F0
3C00F0
3C00F0
3C00F0
3C00F0
3C01E0
1C01E0
0F07C0
03FF00
0F07C0
3C01E0
7C00F0
7800F8
F80078
F80078
F80078
780078
7800F8
7C00F0
3C01F0
1F03C0
03FF00
ENDCHAR
STARTCHAR 0223
ENCODING 547
SWIDTH 514 0
DWIDTH 20 0
BBX 17 27 1 0
BITMAP
0C0800
180E00
380F00
780700
780700
780700
780700
780F00
380E00
1E1C00
07F800
0C3C00
181E00
300F00
700700
700780
700780
F00780
F00380
F00380
F00380
780780
780700
380700
3C0E00
0E1C00
03F000
ENDCHAR
STARTCHAR 0224
ENCODING 548
SWIDTH 617 0
DWIDTH 24 0
BBX 22 34 0 -8
BITMAP
1FFFFC
1C0078
1800F8
1001F0
1001E0
1003E0
0007C0
000780
000F80
001F00
001E00
003E00
007C00
007800
00F800
01F000
03E000
03E000
07C000
0F8000
0F8000
1F0000
3E0000
3C0000
7C0000
FFFFF0
00003C
00000C
00000C
00000C
00000C
000008
000018
000010
ENDCHAR
STARTCHAR 0225
ENCODING 549
SWIDTH 437 0
DWIDTH 17 0
BBX 16 26 1 -8
BITMAP
7FFF
601E
403C
403C
4078
00F0
01F0
01E0
03C0
0780
0780
0F00
1E00
3E00
3C00
7800
F000
FFFC
000E
0007
0007
0007
0006
0006
0004
0008
ENDCHAR
STARTCHAR 0226
ENCODING 550
SWIDTH 720 0
DWIDTH 28 0
BBX 28 31 0 0
BITMAP
000F0000
000F0000
000F0000
00000000
00000000
00060000
00060000
00060000
000F0000
000F0000
001F8000
001F8000
0033C000
0033C000
0061C000
0061E000
0041E000
00C0F000
00C0F000
01807000
01807800
03FFF800
03003C00
02003C00
06001E00
04001E00
0C000E00
0C000F00
18000F80
3C000FC0
FF003FF0
ENDCHAR
STARTCHAR 0227
ENCODING 551
SWIDTH 437 0
DWIDTH 17 0
BBX 16 24 1 0
BITMAP
0380
07C0
0380
0000
0000
0000
0FE0
1870
3038
7038
7038
7038
0078
03B8
0E38
1838
3038
7038
F038
F038
F078
78F9
7F3E
1E1C
ENDCHAR
STARTCHAR 0228
ENCODING 552
SWIDTH 617 0
DWIDTH 24 0
BBX 22 33 1 -7
BITMAP
FFFFF0
1E0070
1E0030
1E0010
1E0010
1E0010
1E0000
1E0000
1E0040
1E0040
1E00C0
1E01C0
1FFFC0
1E01C0
1E00C0
1E0040
1E0040
1E0000
1E0000
1E0004
1E0008
1E0008
1E0018
1E0038
3F0070
FFFFF0
002000
003000
007800
003800
001800
003800
00E000
ENDCHAR
STARTCHAR 0229
ENCODING 553
SWIDTH 437 0
DWIDTH 17 0
BBX 15 25 1 -7
BITMAP
03E0
0C78
103C
301C
601E
601E
7FFE
6000
E000
E000
F000
7002
7802
7C06
3E0C
1FF8
0FF0
07E0
0180
01C0
03C0
00E0
00E0
01C0
0780
ENDCHAR
STARTCHAR 022A
ENCODING 554
SWIDTH 720 0
DWIDTH 28 0
BBX 26 34 1 0
BITMAP
00FFC000
00FFC000
00000000
00000000
00618000
00618000
00000000
00000000
003F8000
01C0E000
07003800
0E001C00
1E001E00
1C000E00
3C000F00
78000780
78000780
78000780
78000780
F80007C0
F80007C0
F80007C0
F80007C0
78000780
78000780
78000780
78000780
3C000F00
3C000E00
1E001E00
0E001C00
07003800
01C0E000
007F8000
ENDCHAR
STARTCHAR 022B
ENCODING 555
SWIDTH 514 0
DWIDTH 20 0
BBX 17 28 1 0
BITMAP
1FFE00
1FFE00
000000
000000
000000
0E1C00
1E3C00
0E1C00
000000
000000
03F000
0C3C00
181E00
380F00
700700
700780
700780
F00780
F00380
F00380
F00380
700380
780700
780700
3C0600
1C0E00
0E1800
03E000
ENDCHAR
STARTCHAR 022C
ENCODING 556
SWIDTH 720 0
DWIDTH 28 0
BBX 26 34 1 0
BITMAP
00FFC000
00FFC000
00000000
00784000
009E4000
00878000
00000000
00000000
003F8000
01C0E000
07003800
0E001C00
1E001E00
1C000E00
3C000F00
78000780
78000780
78000780
78000780
F80007C0
F80007C0
F80007C0
F80007C0
78000780
78000780
78000780
78000780
3C000F00
3C000E00
1E001E00
0E001C00
07003800
01C0E000
007F8000
ENDCHAR
STARTCHAR 022D
ENCODING 557
SWIDTH 514 0
DWIDTH 20 0
BBX 17 28 1 0
BITMAP
1FFE00
1FFE00
000000
070200
1FC200
13E400
10FC00
207800
000000
000000
03F000
0C3C00
181E00
380F00
700700
700780
700780
F00780
F00380
F00380
F00380
700380
780700
780700
3C0600
1C0E00
0E1800
03E000
ENDCHAR
STARTCHAR 022E
ENCODING 558
SWIDTH 720 0
DWIDTH 28 0
BBX 26 31 1 0
BITMAP
001E0000
001E0000
001E0000
00000000
00000000
003F8000
01C0E000
07003800
0E001C00
1E001E00
1C000E00
3C000F00
78000780
78000780
78000780
78000780
F80007C0
F80007C0
F80007C0
F80007C0
78000780
78000780
78000780
78000780
3C000F00
3C000E00
1E001E00
0E001C00
07003800
01C0E000
007F8000
ENDCHAR
STARTCHAR 022F
ENCODING 559
SWIDTH 514 0
DWIDTH 20 0
BBX 17 24 1 0
BITMAP
01C000
03C000
01C000
000000
000000
000000
03F000
0C3C00
181E00
380F00
700700
700780
700780
F00780
F00380
F00380
F00380
700380
780700
780700
3C0600
1C0E00
0E1800
03E000
ENDCHAR
STARTCHAR 0230
ENCODING 560
SWIDTH 720 0
DWIDTH 28 0
BBX 26 34 1 0
BITMAP
00FFC000
00FFC000
00000000
00000000
000C0000
000C0000
00000000
00000000
003F8000
01C0E000
07003800
0E001C00
1E001E00
1C000E00
3C000F00
78000780
78000780
78000780
78000780
F80007C0
F80007C0
F80007C0
F80007C0
78000780
78000780
78000780
78000780
3C000F00
3C000E00
1E001E00
0E001C00
07003800
01C0E000
007F8000
ENDCHAR
STARTCHAR 0231
ENCODING 561
SWIDTH 514 0
DWIDTH 20 0
BBX 17 28 1 0
BITMAP
1FFE00
1FFE00
000000
000000
000000
01C000
01E000
01C000
000000
000000
03F000
0C3C00
181E00
380F00
700700
700780
700780
F00780
F00380
F00380
F00380
700380
780700
780700
3C0600
1C0E00
0E1800
03E000
ENDCHAR
STARTCHAR 0232
ENCODING 562
SWIDTH 720 0
DWIDTH 28 0
BBX 28 30 0 0
BITMAP
00FFF000
00FFF000
00000000
00000000
FFE01FF0
3F800780
0F000700
07800600
07800C00
03C00C00
01E01800
01E01800
00F03000
00786000
00386000
003CC000
001D8000
000F8000
000F0000
000F0000
000F0000
000F0000
000F0000
000F0000
000F0000
000F0000
000F0000
000F0000
001F8000
00FFE000
ENDCHAR
STARTCHAR 0233
ENCODING 563
SWIDTH 514 0
DWIDTH 20 0
BBX 19 31 0 -8
BITMAP
0FFF00
0FFF00
000000
000000
000000
FF03E0
3E01C0
1C0180
1E0180
0E0100
0E0300
070300
070600
038600
038400
03CC00
01CC00
01F800
00F800
00F000
007000
007000
002000
006000
004000
00C000
00C000
008000
390000
7E0000
3C0000
ENDCHAR
STARTCHAR 0234
ENCODING 564
SWIDTH 282 0
DWIDTH 11 0
BBX 12 35 1 -8
BITMAP
0C00
7C00
FC00
1C00
1C00
1C00
1C00
1C00
1C00
1C00
1C00
1C00
1C00
1C00
1C00
1C00
1C00
1C00
1C00
1C00
1C00
1C00
1C00
1C00
1C00
1C00
1C00
1C00
1FC0
1FE0
1C30
3E10
2610
6320
41E0
ENDCHAR
STARTCHAR 0235
ENCODING 565
SWIDTH 514 0
DWIDTH 20 0
BBX 22 26 0 -8
BITMAP
0C3C00
3CFE00
FD8F00
1E0700
1C0780
1C0780
1C0380
1C0380
1C0380
1C0380
1C0380
1C0380
1C0380
1C0380
1C0380
1C0380
1E0380
7F8380
000380
0003F0
0003F8
00078C
000584
000D84
0008C4
001878
ENDCHAR
STARTCHAR 0236
ENCODING 566
SWIDTH 308 0
DWIDTH 12 0
BBX 12 24 0 0
BITMAP
0400
0400
0C00
0C00
1C00
7C00
FFC0
1C00
1C00
1C00
1C00
1C00
1C00
1C00
1C00
1C00
1C00
1FC0
0FE0
1C30
3E10
2610
6320
41E0
ENDCHAR
STARTCHAR 0237
ENCODING 567
SWIDTH 282 0
DWIDTH 11 0
BBX 10 26 -3 -8
BITMAP
00C0
03C0
0FC0
01C0
01C0
01C0
01C0
01C0
01C0
01C0
01C0
01C0
01C0
01C0
01C0
01C0
01C0
01C0
01C0
01C0
01C0
01C0
6180
F380
FF00
7C00
ENDCHAR
STARTCHAR 0238
ENCODING 568
SWIDTH 771 0
DWIDTH 30 0
BBX 28 27 1 0
BITMAP
00030000
001F0000
003F0000
000F0000
000F0000
000F0000
00070000
00070000
00070000
03E71F00
0E3F7F80
1C1FC3C0
380F01E0
300F01E0
700700E0
700700F0
F00700F0
F00700F0
F0070070
F00700F0
F00700E0
780700E0
780700C0
3C0701C0
3E1F0180
1FF3C300
07C0FC00
ENDCHAR
STARTCHAR 0239
ENCODING 569
SWIDTH 771 0
DWIDTH 30 0
BBX 28 26 1 -8
BITMAP
03F31F00
0E1F3F80
180F47C0
380F81E0
300F01E0
700700E0
700700F0
F00700F0
F00700F0
F00700F0
F00700F0
F00700E0
700700E0
780700E0
781F01C0
3E178180
1FE7C300
0F877E00
00070000
00070000
00070000
00070000
000F0000
000F0000
000F0000
007FE000
ENDCHAR
STARTCHAR 023A
ENCODING 570
SWIDTH 720 0
DWIDTH 28 0
BBX 28 27 0 -1
BITMAP
00060400
00060C00
00061800
000F1000
000F3000
001FE000
001FC000
0033C000
0033C000
0061C000
0063E000
0047E000
00C4F000
00CCF000
01987800
01907800
03FFF800
03603C00
02403C00
06C01E00
05801E00
0D000F00
0F000F00
1E000F80
3C000FC0
FF003FF0
08000000
ENDCHAR
STARTCHAR 023B
ENCODING 571
SWIDTH 668 0
DWIDTH 26 0
BBX 24 30 1 -2
BITMAP
000018
000010
003FB2
01E076
03807E
0F004E
0E00C6
1C0086
3C0182
380102
780302
780200
780600
F80C00
F80C00
F81800
F81800
783000
783000
786000
7C6000
3CC001
3EC002
1F8004
0F8008
07E030
03FFE0
067F00
060000
040000
ENDCHAR
STARTCHAR 023C
ENCODING 572
SWIDTH 514 0
DWIDTH 20 0
BBX 15 33 2 -7
BITMAP
000C
0008
0008
0018
0010
0010
0030
0020
03F0
0C78
185C
30DE
709E
708C
7180
7100
F100
F300
7200
7202
7E02
7C04
3E1C
1FF8
0FF0
1FC0
1000
1000
3000
2000
2000
6000
4000
ENDCHAR
STARTCHAR 023D
ENCODING 573
SWIDTH 617 0
DWIDTH 24 0
BBX 22 26 1 0
BITMAP
FFE000
1F8000
1E0000
1E0000
1E0000
1E0000
1E0000
1E0000
1E0000
1E0000
1E0000
1E0000
FFFE00
1E0000
1E0000
1E0000
1E0000
1E0000
1E0000
1E0004
1E0004
1E0008
1E0008
1E0018
1F0070
FFFFF0
ENDCHAR
STARTCHAR 023E
ENCODING 574
SWIDTH 617 0
DWIDTH 24 0
BBX 22 28 1 -1
BITMAP
000010
FFFFFC
E0787C
C078CC
807884
807984
007900
007B00
007E00
007C00
007C00
007800
007800
007800
007800
007800
00F800
00F800
01F800
037800
027800
067800
0C7800
0C7800
187800
10FC00
37FF00
600000
ENDCHAR
STARTCHAR 023F
ENCODING 575
SWIDTH 385 0
DWIDTH 15 0
BBX 12 26 2 -8
BITMAP
1E20
61E0
C0E0
C060
C060
E020
F800
7E00
3F80
1FC0
07E0
81F0
80F0
8070
C070
E060
F0C0
BF00
1000
1000
1800
0800
0830
0C70
04F0
03E0
ENDCHAR
STARTCHAR 0240
ENCODING 576
SWIDTH 437 0
DWIDTH 17 0
BBX 16 26 1 -8
BITMAP
7FFF
601E
403C
403C
4078
00F0
01E0
01E0
03C0
0780
0780
0F00
1E00
1C00
3C00
7800
F000
FC00
0600
0200
0300
0180
0086
00CF
007F
003E
ENDCHAR
STARTCHAR 0241
ENCODING 577
SWIDTH 540 0
DWIDTH 21 0
BBX 17 27 2 0
BITMAP
0FE000
3C1800
700E00
F00700
F00300
E00380
000380
000380
000380
000380
000380
000780
000F80
001F00
003F00
03FE00
03F800
03E000
038000
038000
038000
038000
038000
03C000
03C000
03C000
0FF000
ENDCHAR
STARTCHAR 0242
ENCODING 578
SWIDTH 411 0
DWIDTH 16 0
BBX 15 18 0 0
BITMAP
0FE0
3C38
701C
F01C
600E
000E
001E
001C
003C
0078
03E0
0380
0380
0380
0380
0380
07C0
1FF8
ENDCHAR
STARTCHAR 0243
ENCODING 579
SWIDTH 668 0
DWIDTH 26 0
BBX 23 26 1 0
BITMAP
FFFF00
3E03E0
1E00F0
1E0078
1E0078
1E003C
1E003C
1E003C
1E0078
1E0078
1E00F0
1E03E0
1FFF80
1E03F0
1E00F8
1E007C
1E003C
1E003E
1E003E
FFF83E
1E003E
1E003C
1E007C
1E00F8
1E01F0
FFFF80
ENDCHAR
STARTCHAR 0244
ENCODING 580
SWIDTH 720 0
DWIDTH 28 0
BBX 28 26 0 0
BITMAP
FFE01FF0
1F800780
0F000300
0F000300
0F000300
0F000300
0F000300
0F000300
0F000300
0F000300
0F000300
0F000300
FFFFFFF0
0F000300
0F000300
0F000300
0F000300
0F000300
0F000300
0F000300
0F000200
07000600
07800400
03C01800
00F07000
003FC000
ENDCHAR
STARTCHAR 0245
ENCODING 581
SWIDTH 720 0
DWIDTH 28 0
BBX 27 26 1 0
BITMAP
00080000
000C0000
001C0000
001E0000
001E0000
003F0000
002F0000
00670000
00678000
00C78000
00C3C000
0083C000
0181E000
0181E000
0300F000
0300F000
06007000
06007800
04003800
0C003C00
0C003C00
18001E00
18001E00
38001F00
78003F80
FF00FFE0
ENDCHAR
STARTCHAR 0246
ENCODING 582
SWIDTH 617 0
DWIDTH 24 0
BBX 22 28 1 -1
BITMAP
000030
FFFFF0
1E0070
1E00F0
1E0090
1E0190
1E0110
1E0300
1E0200
1E0640
1E0440
1E0CC0
1E09C0
1FFFC0
1E31C0
1E30C0
1E6040
1E6040
1EC000
1E8000
1F8000
1F0004
1F0008
1E0008
1E0018
1F0070
FFFFF0
180000
ENDCHAR
STARTCHAR 0247
ENCODING 583
SWIDTH 437 0
DWIDTH 17 0
BBX 15 32 1 -7
BITMAP
0004
000C
0008
0018
0010
0010
0030
03E0
0C78
107C
305C
605E
60DE
7FFE
6080
E180
E100
7300
7202
7A02
7E06
3E0C
1FF8
0FF0
0FE0
0800
1800
1000
1000
3000
2000
2000
ENDCHAR
STARTCHAR 0248
ENCODING 584
SWIDTH 385 0
DWIDTH 15 0
BBX 14 26 1 0
BITMAP
1FFC
03E0
03C0
01C0
01C0
01C0
01C0
01C0
01C0
01C0
01C0
01C0
1FFC
01C0
01C0
01C0
01C0
01C0
01C0
01C0
01C0
E1C0
F180
F380
F300
7C00
ENDCHAR
STARTCHAR 0249
ENCODING 585
SWIDTH 282 0
DWIDTH 11 0
BBX 13 35 -3 -8
BITMAP
01C0
01E0
01E0
01C0
0000
0000
0000
0000
0000
00C0
03C0
0FC0
01C0
01C0
01C0
01C0
01C0
0FF8
01C0
01C0
01C0
01C0
01C0
01C0
01C0
01C0
01C0
01C0
01C0
01C0
01C0
6180
F380
FF00
7C00
ENDCHAR
STARTCHAR 024A
ENCODING 586
SWIDTH 694 0
DWIDTH 27 0
BBX 30 34 1 -8
BITMAP
003F8600
01E07E00
03801E00
0F001E00
0E001E00
1C001E00
3C001E00
3C001E00
78001E00
78001E00
78001E00
F8001E00
F8001E00
F8001E00
F8001E00
78001E00
78001E00
78001E00
78001E00
3C001E00
3C001E00
1E001E00
0F001E00
07801E00
01E03E00
007FDE00
00001E00
00001E00
00001E00
00000E00
00000E18
00000E3C
000007FC
000001F8
ENDCHAR
STARTCHAR 024B
ENCODING 587
SWIDTH 514 0
DWIDTH 20 0
BBX 23 26 1 -8
BITMAP
03F300
0E1F00
180F00
380F00
300F00
700700
700700
F00700
F00700
F00700
F00700
F00700
700700
780700
781F00
3E1700
1FE700
0F8700
000700
000700
000700
000700
00030C
00031E
0001FE
00007C
ENDCHAR
STARTCHAR 024C
ENCODING 588
SWIDTH 668 0
DWIDTH 26 0
BBX 25 26 1 0
BITMAP
FFFE0000
3E0F8000
1E03C000
1E01E000
1E01F000
1E01F000
1E00F000
1E01F000
1E01E000
1E01E000
1E03C000
1E0F0000
FFFC0000
1E3C0000
1E1E0000
1E1E0000
1E0F0000
1E078000
1E07C000
1E03C000
1E01E000
1E01F000
1E00F000
1E007800
3F007E00
FFE03F80
ENDCHAR
STARTCHAR 024D
ENCODING 589
SWIDTH 334 0
DWIDTH 13 0
BBX 13 18 0 0
BITMAP
0C78
3CF8
FDF8
1D00
1E00
1C00
1C00
1C00
FFC0
1C00
1C00
1C00
1C00
1C00
1C00
1E00
3E00
FF80
ENDCHAR
STARTCHAR 024E
ENCODING 590
SWIDTH 720 0
DWIDTH 28 0
BBX 28 26 0 0
BITMAP
FFE01FF0
3F800780
1F000700
0F800600
07800600
07C00C00
FFFFFFF0
01E01800
00F03000
00F86000
00786000
003CC000
003F8000
001F8000
000F0000
000F0000
000F0000
000F0000
000F0000
000F0000
000F0000
000F0000
000F0000
000F0000
001F8000
00FFE000
ENDCHAR
STARTCHAR 024F
ENCODING 591
SWIDTH 514 0
DWIDTH 20 0
BBX 19 26 0 -8
BITMAP
FF03E0
3E01C0
3C0180
1C0180
0E0100
0E0300
FFFFE0
078600
038600
03CC00
01CC00
01C800
00F800
00F800
007000
007000
006000
006000
006000
004000
00C000
008000
018000
7F0000
7E0000
3C0000
ENDCHAR
STARTCHAR 0250
ENCODING 592
SWIDTH 437 0
DWIDTH 17 0
BBX 16 18 0 0
BITMAP
3C7C
7CFE
9F1F
1E0F
1C07
1C07
1C06
1C0E
1C1C
1C30
1DC0
1F00
1C0E
1C0E
1C0E
1E0E
0F1C
03F0
ENDCHAR
STARTCHAR 0251
ENCODING 593
SWIDTH 514 0
DWIDTH 20 0
BBX 20 18 1 0
BITMAP
03E300
0E3F00
180F00
380F00
300F00
700F00
700700
F00700
F00700
F00700
F00700
F00700
780700
780700
3C0F10
3E1F20
1FF7E0
07C3C0
ENDCHAR
STARTCHAR 0252
ENCODING 594
SWIDTH 514 0
DWIDTH 20 0
BBX 19 18 0 0
BITMAP
387E00
7CFF00
9F0F80
8E03C0
0E03C0
0E01E0
0E01E0
0E01E0
0E00E0
0E00E0
0E00E0
0E01E0
0E01C0
0E01C0
0E0180
0F0300
0F8600
0CF800
ENDCHAR
STARTCHAR 0253
ENCODING 595
SWIDTH 514 0
DWIDTH 20 0
BBX 15 27 3 0
BITMAP
0F80
11E0
20F0
60F0
E060
E000
E000
E000
E000
E3E0
EFF0
F878
F03C
E01C
E01E
E00E
E00E
E00E
E00E
E00E
E00E
E01C
E01C
E018
E030
7860
1F80
ENDCHAR
STARTCHAR 0254
ENCODING 596
SWIDTH 437 0
DWIDTH 17 0
BBX 15 18 1 0
BITMAP
07C0
1FF0
3FF8
30FC
403C
403C
801E
001E
000E
000E
000E
000E
700C
701C
7818
7838
3C60
0FC0
ENDCHAR
STARTCHAR 0255
ENCODING 597
SWIDTH 437 0
DWIDTH 17 0
BBX 15 20 1 -2
BITMAP
03E0
0C38
183C
301C
701E
701C
6000
E000
E000
F000
F1F8
760C
7C04
7806
3E0C
3FFC
7FF8
47E0
4000
8000
ENDCHAR
STARTCHAR 0256
ENCODING 598
SWIDTH 514 0
DWIDTH 20 0
BBX 23 35 1 -8
BITMAP
000300
001F00
003F00
000F00
000F00
000F00
000700
000700
000700
03E700
0E3F00
1C1F00
380F00
300F00
700700
700700
F00700
F00700
F00700
F00700
F00700
780700
780700
3C0F00
3E1F00
1FF700
07C700
000700
000700
000700
000700
00030C
00031E
0001FE
00007C
ENDCHAR
STARTCHAR 0257
ENCODING 599
SWIDTH 514 0
DWIDTH 20 0
BBX 25 27 1 0
BITMAP
00007C00
00018F00
00030700
00030780
00070300
00070000
00070000
00070000
00070000
03E70000
0E1F0000
1C0F0000
380F0000
300F0000
70070000
70070000
F0070000
F0070000
F0070000
F0070000
F0070000
78070000
78070000
3C0F0000
3E1FE000
1FF78000
07C60000
ENDCHAR
STARTCHAR 0258
ENCODING 600
SWIDTH 437 0
DWIDTH 17 0
BBX 15 18 1 0
BITMAP
0FC0
3C30
7818
7018
F00C
F00C
FFFE
000E
000E
000E
000E
801E
801C
403C
70F8
3FF8
1FF0
07C0
ENDCHAR
STARTCHAR 0259
ENCODING 601
SWIDTH 437 0
DWIDTH 17 0
BBX 15 18 1 0
BITMAP
07C0
1FF0
3FF8
30FC
603C
401E
801E
000E
000E
000E
000E
FFFE
700E
780C
780C
3818
1C30
0FC0
ENDCHAR
STARTCHAR 025A
ENCODING 602
SWIDTH 617 0
DWIDTH 24 0
BBX 23 18 1 0
BITMAP
07C000
1FF000
3FF800
30FD00
603E80
401E80
803E80
00CEE2
030E7E
0C0E38
300600
F00600
700E00
780C00
780C00
381800
1C3000
0FC000
ENDCHAR
STARTCHAR 025B
ENCODING 603
SWIDTH 411 0
DWIDTH 16 0
BBX 14 18 1 0
BITMAP
07F0
1C3C
383C
701C
7000
7000
3800
1C00
07E0
1800
7800
7000
F000
F000
7004
7808
3C30
0FC0
ENDCHAR
STARTCHAR 025C
ENCODING 604
SWIDTH 411 0
DWIDTH 16 0
BBX 14 18 1 0
BITMAP
1F80
78E0
F070
6038
0038
0038
0030
0060
1F80
0070
0038
003C
003C
003C
803C
6038
10F0
0FC0
ENDCHAR
STARTCHAR 025D
ENCODING 605
SWIDTH 591 0
DWIDTH 23 0
BBX 22 18 1 0
BITMAP
1FC000
78F000
F07000
603A00
003E00
003A00
003300
00638C
1F81F8
0070F0
003800
003C00
003C00
003C00
803C00
603800
10F000
0FC000
ENDCHAR
STARTCHAR 025E
ENCODING 606
SWIDTH 437 0
DWIDTH 17 0
BBX 15 18 1 0
BITMAP
03F0
0FF8
1FFC
3C0E
7006
6006
4006
C00C
C7F0
C018
C004
4006
6006
7006
3C1E
1FFC
0FF8
03F0
ENDCHAR
STARTCHAR 025F
ENCODING 607
SWIDTH 334 0
DWIDTH 13 0
BBX 15 26 -4 -8
BITMAP
07FE
00F8
0070
0070
0070
0070
0070
0070
0070
0070
0070
0070
0070
0070
0070
0070
0FFE
0070
0070
0070
0070
6070
E060
F040
7880
1F00
ENDCHAR
STARTCHAR 0260
ENCODING 608
SWIDTH 514 0
DWIDTH 20 0
BBX 25 35 1 -8
BITMAP
00007C00
00018F00
00030700
00030780
00070300
00070000
00070000
00070000
00070000
03E70000
0E3F0000
180F0000
380F0000
300F0000
700F0000
70070000
F0070000
F0070000
F0070000
F0070000
F0070000
78070000
78070000
3C0F0000
3E1F0000
1FF70000
07C70000
00070000
000F0000
000E0000
180E0000
1C0C0000
1E0C0000
0F180000
07E00000
ENDCHAR
STARTCHAR 0261
ENCODING 609
SWIDTH 514 0
DWIDTH 20 0
BBX 16 26 1 -8
BITMAP
03E7
0E3F
180F
380F
300F
700F
7007
F007
F007
F007
F007
F007
7807
7807
3C0F
3E1F
1FF7
07C7
0007
000F
000E
180E
1C0C
1E0C
0F18
07E0
ENDCHAR
STARTCHAR 0262
ENCODING 610
SWIDTH 462 0
DWIDTH 18 0
BBX 17 18 1 0
BITMAP
03E200
0E1E00
180600
380600
700200
700000
700000
F00000
F00000
F00000
F03F80
701E00
700E00
780E00
380E00
1C0E00
0E0E00
03F800
ENDCHAR
STARTCHAR 0263
ENCODING 611
SWIDTH 514 0
DWIDTH 20 0
BBX 19 26 0 -8
BITMAP
FF87E0
3E01C0
1C0180
1E0100
0E0100
0F0300
070200
078600
038400
038C00
01C800
01D800
01F800
00F000
00F000
007000
007800
007800
00FC00
009C00
009C00
019C00
018C00
019C00
00FC00
007800
ENDCHAR
STARTCHAR 0264
ENCODING 612
SWIDTH 437 0
DWIDTH 17 0
BBX 17 18 0 0
BITMAP
3C0F00
7E3180
8F2080
074000
07C000
038000
01C000
01C000
01E000
03E000
02F000
027000
047000
047000
047000
067000
07F000
03E000
ENDCHAR
STARTCHAR 0265
ENCODING 613
SWIDTH 514 0
DWIDTH 20 0
BBX 19 26 0 -8
BITMAP
FFBFE0
3E0780
1C0700
1C0700
1C0700
1C0700
1C0700
1C0700
1C0700
1C0700
1C0700
1C0700
1C0700
1C0700
1C0F00
1E1700
0FE700
078700
000700
000700
000700
000700
000780
0007E0
0007C0
000600
ENDCHAR
STARTCHAR 0266
ENCODING 614
SWIDTH 514 0
DWIDTH 20 0
BBX 18 27 1 0
BITMAP
01F000
067800
0C3C00
1C1C00
180C00
380000
380000
380000
380000
387800
39FC00
3B1E00
3C0E00
380E00
380F00
380F00
380F00
380F00
380F00
380F00
380F00
380F00
380F00
380F00
380F00
7C0F00
FF3FC0
ENDCHAR
STARTCHAR 0267
ENCODING 615
SWIDTH 514 0
DWIDTH 20 0
BBX 16 35 1 -8
BITMAP
01F0
0678
0C3C
1C1C
180C
3800
3800
3800
3800
3878
39FC
3B1E
3C0E
380E
380F
380F
380F
380F
380F
380F
380F
380F
380F
380F
380F
7C0F
FF0F
000F
000F
000E
000E
030E
078C
03C8
01F0
ENDCHAR
STARTCHAR 0268
ENCODING 616
SWIDTH 282 0
DWIDTH 11 0
BBX 9 27 1 0
BITMAP
1C00
1E00
1E00
1C00
0000
0000
0000
0000
0000
0C00
7C00
FC00
1C00
1C00
1C00
1C00
1C00
1C00
FF80
1C00
1C00
1C00
1C00
1C00
1C00
3E00
FF80
ENDCHAR
STARTCHAR 0269
ENCODING 617
SWIDTH 282 0
DWIDTH 11 0
BBX 10 18 1 0
BITMAP
0C00
7C00
FC00
3C00
1C00
1C00
1C00
1C00
1C00
1C00
1C00
1C00
1C00
1C40
1C80
1C80
1F80
0F00
ENDCHAR
STARTCHAR 026A
ENCODING 618
SWIDTH 282 0
DWIDTH 11 0
BBX 9 18 1 0
BITMAP
FF80
3E00
1C00
1C00
1C00
1C00
1C00
1C00
1C00
1C00
1C00
1C00
1C00
1C00
1C00
1C00
3E00
FF80
ENDCHAR
STARTCHAR 026B
ENCODING 619
SWIDTH 282 0
DWIDTH 11 0
BBX 9 27 1 0
BITMAP
0C00
7C00
FC00
1C00
1C00
1C00
1C00
1C00
1C00
1C00
1C00
1C00
7C80
FC80
9F80
9F00
1C00
1C00
1C00
1C00
1C00
1C00
1C00
1C00
1C00
3E00
FF80
ENDCHAR
STARTCHAR 026C
ENCODING 620
SWIDTH 282 0
DWIDTH 11 0
BBX 9 27 1 0
BITMAP
0C00
7C00
FC00
1C00
1C00
1C00
1C00
1C00
1C00
1C00
1C00
1C00
3C00
5C00
DC00
5C00
7F80
1C00
1C00
1C00
1C00
1C00
1C00
1C00
1C00
3E00
FF80
ENDCHAR
STARTCHAR 026D
ENCODING 621
SWIDTH 282 0
DWIDTH 11 0
BBX 13 35 1 -8
BITMAP
0C00
7C00
FC00
1C00
1C00
1C00
1C00
1C00
1C00
1C00
1C00
1C00
1C00
1C00
1C00
1C00
1C00
1C00
1C00
1C00
1C00
1C00
1C00
1C00
1C00
1C00
1C00
1C00
1C00
1C00
0C00
0C38
0678
03F8
01F0
ENDCHAR
STARTCHAR 026E
ENCODING 622
SWIDTH 591 0
DWIDTH 23 0
BBX 20 35 1 -8
BITMAP
0C0000
7C0000
FC0000
1C0000
1C0000
1C0000
1C0000
1C0000
1C0000
1FFFF0
1F00F0
1E01E0
1C03C0
1C0780
1C0780
1C0F00
1C1E00
1C1C00
1C3C00
1C7E00
1C0780
1C01C0
1C00C0
1C00E0
1C00E0
3E00E0
FF80F0
0000F0
0400E0
0400E0
0201E0
0387C0
01FFC0
00FF80
003E00
ENDCHAR
STARTCHAR 026F
ENCODING 623
SWIDTH 771 0
DWIDTH 30 0
BBX 30 18 0 0
BITMAP
FF9FE7FC
3E0781F0
1C0780E0
1C0700E0
1C0700E0
1C0700E0
1C0700E0
1C0700E0
1C0700E0
1C0700E0
1C0700E0
1C0700E0
1C0700E0
1C0780E0
1C0F81E0
1E1BC6FC
0FE3FCF8
07C0F0C0
ENDCHAR
STARTCHAR 0270
ENCODING 624
SWIDTH 771 0
DWIDTH 30 0
BBX 30 26 0 -8
BITMAP
FF9FE7FC
3E0781F0
1C0780E0
1C0700E0
1C0700E0
1C0700E0
1C0700E0
1C0700E0
1C0700E0
1C0700E0
1C0700E0
1C0700E0
1C0700E0
1C0780E0
1C0F81E0
1E1BC6E0
0FE3FCE0
07C0F0E0
000000E0
000000E0
000000E0
000000E0
000000E0
000000FC
000000F8
000000C0
ENDCHAR
STARTCHAR 0271
ENCODING 625
SWIDTH 771 0
DWIDTH 30 0
BBX 28 26 0 -8
BITMAP
0C3E0780
3C7F1FC0
FD87B1E0
1E07C0E0
1C0380E0
1C0380F0
1C0380F0
1C0380F0
1C0380F0
1C0380F0
1C0380F0
1C0380F0
1C0380F0
1C0380F0
1C0380F0
1E0380F0
1E07C0F0
7F9FF0F0
000000E0
000000E0
000000E0
000000E0
000030E0
00007CC0
00007F80
00003E00
ENDCHAR
STARTCHAR 0272
ENCODING 626
SWIDTH 514 0
DWIDTH 20 0
BBX 23 26 -4 -8
BITMAP
00C3C0
03CFE0
0FD8F0
01E070
01C078
01C078
01C038
01C038
01C038
01C038
01C038
01C038
01C038
01C038
01C078
01C078
01C078
01C1FE
01C000
01C000
01C000
01C000
618000
F18000
FB0000
7C0000
ENDCHAR
STARTCHAR 0273
ENCODING 627
SWIDTH 514 0
DWIDTH 20 0
BBX 24 26 0 -8
BITMAP
0C3C00
3CFE00
FD8F00
1E0700
1C0780
1C0780
1C0380
1C0380
1C0380
1C0380
1C0380
1C0380
1C0380
1C0380
1C0380
1C0380
1E0380
7F8380
000380
000380
000380
000380
000186
00018F
00009F
00007E
ENDCHAR
STARTCHAR 0274
ENCODING 628
SWIDTH 488 0
DWIDTH 19 0
BBX 19 18 0 0
BITMAP
FC07E0
3E0180
1F0080
0F0080
0F8080
0BC080
09E080
08F080
08F080
087880
083C80
081E80
080E80
080780
080780
080380
180180
7E0080
ENDCHAR
STARTCHAR 0275
ENCODING 629
SWIDTH 514 0
DWIDTH 20 0
BBX 17 18 1 0
BITMAP
03F000
0C3C00
181E00
380F00
700700
700780
700780
F00780
FFFF80
F00380
F00380
700380
780700
780700
3C0600
1C0E00
0E1800
03E000
ENDCHAR
STARTCHAR 0276
ENCODING 630
SWIDTH 642 0
DWIDTH 25 0
BBX 23 18 1 0
BITMAP
03FFFC
0E1E0C
1C1E04
380E04
700E00
700E10
700E10
F00E10
F00FF0
F00E10
F00E10
700E10
700E00
700E02
380E02
1C1E06
0E1E0C
03FFFC
ENDCHAR
STARTCHAR 0277
ENCODING 631
SWIDTH 668 0
DWIDTH 26 0
BBX 23 18 1 0
BITMAP
00FF00
0781E0
0E0070
1C1838
38381C
783C1C
703C1E
703C0E
F0380E
F0380E
F0180E
70180E
70100E
70181E
78181C
382C1C
1C4638
0F83E0
ENDCHAR
STARTCHAR 0278
ENCODING 632
SWIDTH 565 0
DWIDTH 22 0
BBX 19 35 1 -8
BITMAP
07FC00
00F000
00F000
00F000
00F000
00F000
00F000
00F000
00F000
03FC00
0EFF00
18F780
38F3C0
70F1C0
70F1E0
70F1E0
F0F1E0
F0F0E0
F0F0E0
F0F0E0
F0F0E0
78F0E0
78F1C0
3CF1C0
1CF380
0FF600
03F800
00F000
00F000
00F000
00F000
00F000
00F000
00F000
07FC00
ENDCHAR
STARTCHAR 0279
ENCODING 633
SWIDTH 334 0
DWIDTH 13 0
BBX 13 18 0 0
BITMAP
0FF8
03E0
03C0
01C0
01C0
01C0
01C0
01C0
01C0
01C0
01C0
01C0
01C0
01C0
03C0
E5F8
F9E0
F180
ENDCHAR
STARTCHAR 027A
ENCODING 634
SWIDTH 334 0
DWIDTH 13 0
BBX 13 27 0 0
BITMAP
0FF8
03E0
03C0
01C0
01C0
01C0
01C0
01C0
01C0
01C0
01C0
01C0
01C0
01C0
01C0
01C0
01C0
01C0
01C0
01C0
01C0
01C0
01C0
03C0
E5F8
F9E0
F180
ENDCHAR
STARTCHAR 027B
ENCODING 635
SWIDTH 334 0
DWIDTH 13 0
BBX 17 26 0 -8
BITMAP
0FF800
03E000
03C000
01C000
01C000
01C000
01C000
01C000
01C000
01C000
01C000
01C000
01C000
01C000
03C000
E5C000
F9C000
F1C000
01C000
01C000
01C000
01C000
00C300
00E780
007F80
001F00
ENDCHAR
STARTCHAR 027C
ENCODING 636
SWIDTH 334 0
DWIDTH 13 0
BBX 13 26 0 -8
BITMAP
0C78
3CF8
FD38
1E00
1C00
1C00
1C00
1C00
1C00
1C00
1C00
1C00
1C00
1C00
1C00
1C00
1C00
1C00
1C00
1C00
1C00
1C00
1C00
1E00
3E00
FF80
ENDCHAR
STARTCHAR 027D
ENCODING 637
SWIDTH 334 0
DWIDTH 13 0
BBX 13 26 0 -8
BITMAP
0C78
3CF8
FD38
1E00
1C00
1C00
1C00
1C00
1C00
1C00
1C00
1C00
1C00
1C00
1C00
1C00
1C00
1C00
1C00
1C00
1C00
0C00
0E38
0678
03F8
01F0
ENDCHAR
STARTCHAR 027E
ENCODING 638
SWIDTH 334 0
DWIDTH 13 0
BBX 13 18 0 0
BITMAP
01F0
0638
0E38
0C18
0C00
1C00
1C00
1C00
1C00
1C00
1C00
1C00
1C00
1C00
1C00
1E00
3E00
FF80
ENDCHAR
STARTCHAR 027F
ENCODING 639
SWIDTH 334 0
DWIDTH 13 0
BBX 13 18 0 0
BITMAP
3C00
E300
E380
C180
0180
01C0
01C0
01C0
01C0
01C0
01C0
01C0
01C0
01C0
01C0
03C0
03E0
0FF8
ENDCHAR
STARTCHAR 0280
ENCODING 640
SWIDTH 488 0
DWIDTH 19 0
BBX 18 18 1 0
BITMAP
FFE000
3C7800
3C3C00
1C1C00
1C1C00
1C1C00
1C1C00
1C3C00
1C7800
1FE000
1CE000
1CF000
1C7000
1C3800
1C3C00
3C1E00
3C0F00
FF07C0
ENDCHAR
STARTCHAR 0281
ENCODING 641
SWIDTH 488 0
DWIDTH 19 0
BBX 18 18 1 0
BITMAP
FF07C0
3C0F00
3C1E00
1C3C00
1C3800
1C7000
1CF000
1CE000
1FE000
1C7800
1C3C00
1C1C00
1C1C00
1C1C00
1C1C00
3C3C00
3C7800
FFE000
ENDCHAR
STARTCHAR 0282
ENCODING 642
SWIDTH 385 0
DWIDTH 15 0
BBX 12 26 2 -8
BITMAP
1E20
61E0
C0E0
C060
E060
E020
F800
7E00
3F80
0FC0
03E0
80F0
8070
8070
C070
E060
F0C0
FF00
E000
E000
E000
6000
61C0
33C0
1FC0
0F80
ENDCHAR
STARTCHAR 0283
ENCODING 643
SWIDTH 334 0
DWIDTH 13 0
BBX 21 35 -4 -8
BITMAP
0003C0
000CF0
001878
003038
003030
007000
007000
007000
007000
007000
007000
007000
007000
007000
007000
007000
007000
007000
007000
007000
007000
007000
007000
007000
007000
007000
007000
007000
007000
007000
606000
E06000
F04000
788000
1F0000
ENDCHAR
STARTCHAR 0284
ENCODING 644
SWIDTH 334 0
DWIDTH 13 0
BBX 21 35 -4 -8
BITMAP
0003C0
000CF0
001878
003038
003030
007000
007000
007000
007000
007000
007000
007000
007000
007000
007000
007000
007000
007000
007000
007000
007000
007000
007000
007000
007000
0FFE00
007000
007000
007000
007000
607000
E06000
F04000
788000
1F0000
ENDCHAR
STARTCHAR 0285
ENCODING 645
SWIDTH 437 0
DWIDTH 17 0
BBX 21 27 -4 0
BITMAP
1F0000
788000
F04000
E06000
606000
007000
007000
007000
007000
007000
007000
007000
007000
007000
007000
007000
007000
007000
007000
007000
007000
007000
003030
003038
001878
0008F0
0007C0
ENDCHAR
STARTCHAR 0286
ENCODING 646
SWIDTH 334 0
DWIDTH 13 0
BBX 18 35 -1 -8
BITMAP
001E00
006780
0083C0
0181C0
018180
038000
038000
038000
038000
038000
038000
038000
038000
038000
038000
038000
038000
038000
038000
038000
038000
038000
038000
038000
038000
038000
038000
038000
3F8000
7F8000
438000
C3C000
C66000
466000
382000
ENDCHAR
STARTCHAR 0287
ENCODING 647
SWIDTH 282 0
DWIDTH 11 0
BBX 11 23 0 0
BITMAP
1E00
3F00
4F00
8700
0700
0700
0700
0700
0700
0700
0700
0700
0700
0700
0700
0700
0700
7FE0
0780
0700
0600
0400
0400
ENDCHAR
STARTCHAR 0288
ENCODING 648
SWIDTH 282 0
DWIDTH 11 0
BBX 13 32 0 -8
BITMAP
0400
0400
0400
0C00
1C00
3C00
FFC0
1C00
1C00
1C00
1C00
1C00
1C00
1C00
1C00
1C00
1C00
1C00
1C00
1C00
1C00
1C00
1C00
1C00
1C00
1C00
1C00
0C00
0E38
0678
03F8
01F0
ENDCHAR
STARTCHAR 0289
ENCODING 649
SWIDTH 514 0
DWIDTH 20 0
BBX 19 18 0 0
BITMAP
FC1F80
3C0780
1C0780
1C0780
1C0780
1C0780
1C0780
1C0780
7FFFE0
1C0780
1C0780
1C0780
1C0780
1C0780
1E0F80
0E17E0
0FE7C0
07C700
ENDCHAR
STARTCHAR 028A
ENCODING 650
SWIDTH 540 0
DWIDTH 21 0
BBX 19 18 1 0
BITMAP
FF0FE0
FF0FE0
FF0FE0
C10820
860E20
1C0300
380380
3801C0
7801C0
7001C0
7001C0
7001C0
7801C0
3801C0
380380
1C0700
0E0E00
03F800
ENDCHAR
STARTCHAR 028B
ENCODING 651
SWIDTH 462 0
DWIDTH 18 0
BBX 17 18 0 0
BITMAP
FC7C00
3CFF00
1CF300
1C6180
1C0180
1C0180
1C0080
1C0080
1C0180
1C0180
1C0180
1C0100
1C0100
1C0300
0C0200
0E0400
071800
03F000
ENDCHAR
STARTCHAR 028C
ENCODING 652
SWIDTH 514 0
DWIDTH 20 0
BBX 19 18 0 0
BITMAP
004000
00E000
00E000
00E000
01F000
017000
037800
023800
063C00
061C00
041C00
0C1E00
080E00
180F00
100700
100780
3007C0
FC1FE0
ENDCHAR
STARTCHAR 028D
ENCODING 653
SWIDTH 720 0
DWIDTH 28 0
BBX 28 18 0 0
BITMAP
00C03000
00C03000
00C03000
01E07800
01E07800
03E0FC00
02709C00
02719C00
06790E00
043B0E00
0C3A0F00
081E0700
081C0700
181E0780
100E0380
300E03C0
700F03C0
FC3FCFF0
ENDCHAR
STARTCHAR 028E
ENCODING 654
SWIDTH 514 0
DWIDTH 20 0
BBX 19 27 0 0
BITMAP
0003C0
000FC0
0019C0
003000
002000
006000
006000
004000
00C000
00C000
00E000
01E000
01F000
037000
037800
023800
063800
063C00
041C00
0C1E00
080E00
180F00
180700
100780
300780
7007C0
FC1FE0
ENDCHAR
STARTCHAR 028F
ENCODING 655
SWIDTH 488 0
DWIDTH 19 0
BBX 19 18 0 0
BITMAP
FF07E0
3C0180
1C0100
1E0300
0F0200
070400
078C00
038800
01D000
01F000
00E000
00E000
00E000
00E000
00E000
00E000
00F000
03FC00
ENDCHAR
STARTCHAR 0290
ENCODING 656
SWIDTH 437 0
DWIDTH 17 0
BBX 22 26 1 -8
BITMAP
7FFF00
601E00
403C00
403C00
407800
00F000
01F000
01E000
03C000
078000
078000
0F0000
1E0000
3E0200
3C0200
780200
F00600
FFFE00
000E00
000E00
000E00
000600
00070C
00073C
0003FC
0000F8
ENDCHAR
STARTCHAR 0291
ENCODING 657
SWIDTH 488 0
DWIDTH 19 0
BBX 18 21 1 -3
BITMAP
7FFF00
601E00
403C00
403C00
407800
00F000
01F000
01E000
03C000
078000
078000
0F0F80
1E30C0
3E6040
3CC040
7980C0
F10180
FFFF00
020000
060000
040000
ENDCHAR
STARTCHAR 0292
ENCODING 658
SWIDTH 437 0
DWIDTH 17 0
BBX 15 26 1 -8
BITMAP
FFFE
C03C
C03C
8078
80F0
00E0
01E0
03C0
0780
0700
0FC0
01E0
0070
0038
001C
001C
001C
001C
001C
801C
803C
C03C
60F8
3FF8
1FE0
0FC0
ENDCHAR
STARTCHAR 0293
ENCODING 659
SWIDTH 437 0
DWIDTH 17 0
BBX 15 26 1 -8
BITMAP
FFFE
C03C
C03C
8078
80F0
00E0
01E0
03C0
0780
0700
0FC0
01E0
0078
0038
001C
001C
001C
001C
3F1C
41DC
C07C
C07C
E0F8
7FF8
3FE8
0FC4
ENDCHAR
STARTCHAR 0294
ENCODING 660
SWIDTH 437 0
DWIDTH 17 0
BBX 14 27 2 0
BITMAP
1F80
78C0
F070
F030
E038
E018
001C
001C
001C
001C
003C
003C
003C
0078
01F8
0FF0
0FE0
0F80
0F00
0F00
0F00
0F00
0F00
0F00
0F00
0F00
3FE0
ENDCHAR
STARTCHAR 0295
ENCODING 661
SWIDTH 437 0
DWIDTH 17 0
BBX 15 27 1 0
BITMAP
03E0
0C38
183C
301C
701E
701C
6000
E000
E000
F000
F000
F000
7800
7C00
7E00
3FC0
1FC0
07C0
01C0
01C0
01C0
01C0
01C0
01C0
01C0
03E0
0FF8
ENDCHAR
STARTCHAR 0296
ENCODING 662
SWIDTH 437 0
DWIDTH 17 0
BBX 14 27 2 0
BITMAP
3FE0
0F00
0F00
0F00
0F00
0F00
0F00
0F00
0F00
0F80
0FE0
0FF0
01F8
0078
003C
003C
003C
001C
001C
001C
001C
E018
E038
F030
F070
78C0
1F80
ENDCHAR
STARTCHAR 0297
ENCODING 663
SWIDTH 437 0
DWIDTH 17 0
BBX 15 26 1 -8
BITMAP
07C0
1FF0
3FF8
7E1C
7804
7002
F002
F000
F000
F000
F000
F000
F000
F000
F000
F000
F000
F000
F000
F002
7002
7804
7E1C
3FF8
1FF0
07C0
ENDCHAR
STARTCHAR 0298
ENCODING 664
SWIDTH 720 0
DWIDTH 28 0
BBX 26 26 1 0
BITMAP
003F8000
01C0E000
07003800
0E001C00
1E001E00
1C000E00
3C000F00
78000780
78000780
78000780
78000780
F80C07C0
F81E07C0
F81E07C0
F80C07C0
78000780
78000780
78000780
78000780
3C000F00
3C000E00
1E001E00
0E001C00
07003800
01C0E000
007F8000
ENDCHAR
STARTCHAR 0299
ENCODING 665
SWIDTH 462 0
DWIDTH 18 0
BBX 16 18 1 0
BITMAP
FFF0
3C3C
3C1E
3C0E
3C0E
3C1E
3C1C
3C3C
3FE0
3C3C
3C1E
3C0F
3C0F
3C0F
3C0F
3C0E
3C3C
FFF0
ENDCHAR
STARTCHAR 029A
ENCODING 666
SWIDTH 437 0
DWIDTH 17 0
BBX 15 18 1 0
BITMAP
0F80
3FE0
7FF0
F038
C00C
C004
4006
3006
0FC2
3002
4006
C006
C004
C00C
7038
7FF0
3FE0
0F80
ENDCHAR
STARTCHAR 029B
ENCODING 667
SWIDTH 462 0
DWIDTH 18 0
BBX 21 23 1 0
BITMAP
0001E0
000278
000278
000278
000630
03E400
0E1C00
180C00
380400
700400
700400
700000
F00000
F00000
F00000
F03F80
701E00
700E00
780E00
380E00
1C0E00
0E0E00
03F800
ENDCHAR
STARTCHAR 029C
ENCODING 668
SWIDTH 540 0
DWIDTH 21 0
BBX 19 18 1 0
BITMAP
FF1FE0
3C0780
3C0700
3C0700
1C0700
1C0700
1C0700
1C0700
1FFF00
1C0700
1C0700
1C0700
1C0700
1C0700
3C0700
3C0700
3C0780
FF1FE0
ENDCHAR
STARTCHAR 029D
ENCODING 669
SWIDTH 282 0
DWIDTH 11 0
BBX 12 35 -2 -8
BITMAP
0380
03C0
03C0
0380
0000
0000
0000
0000
0000
0180
0780
1F80
0380
0380
0380
0380
0380
0380
0380
0380
0380
0380
0380
0380
0380
0380
0380
0380
0380
7FF0
8380
8380
8300
8600
7C00
ENDCHAR
STARTCHAR 029E
ENCODING 670
SWIDTH 514 0
DWIDTH 20 0
BBX 19 26 0 -8
BITMAP
FF3FE0
3E0F80
1E0700
0F0700
078700
03C700
03C700
01E700
00F700
007F00
007F00
002700
004700
008700
010700
060700
1E0700
7F0700
000700
000700
000700
000700
000780
0007E0
0007C0
000600
ENDCHAR
STARTCHAR 029F
ENCODING 671
SWIDTH 437 0
DWIDTH 17 0
BBX 16 18 1 0
BITMAP
FF80
3C00
3C00
1C00
1C00
1C00
1C00
1C00
1C00
1C00
1C00
1C00
1C00
1C01
1C02
3C02
3C0E
FFFC
ENDCHAR
STARTCHAR 02A0
ENCODING 672
SWIDTH 514 0
DWIDTH 20 0
BBX 25 35 1 -8
BITMAP
00007C00
00018F00
00030700
00030780
00070300
00070000
00070000
00070000
00070000
03F70000
0E1F0000
180F0000
380F0000
300F0000
70070000
70070000
F0070000
F0070000
F0070000
F0070000
F0070000
70070000
78070000
780F0000
3E170000
1FE70000
0F870000
00070000
00070000
00070000
00070000
000F0000
000F0000
000F0000
003FE000
ENDCHAR
STARTCHAR 02A1
ENCODING 673
SWIDTH 437 0
DWIDTH 17 0
BBX 14 27 2 0
BITMAP
1F80
78C0
F070
F030
E038
E018
001C
001C
001C
001C
003C
003C
003C
0078
01F8
0FF0
0FE0
0F80
0F00
FFF0
0F00
0F00
0F00
0F00
0F00
0F00
3FE0
ENDCHAR
STARTCHAR 02A2
ENCODING 674
SWIDTH 437 0
DWIDTH 17 0
BBX 15 27 1 0
BITMAP
03E0
0C38
183C
301C
701E
701C
6000
E000
E000
F000
F000
F000
7800
7C00
7E00
3FC0
1FC0
07C0
01C0
1FFC
01C0
01C0
01C0
01C0
01C0
03E0
0FF8
ENDCHAR
STARTCHAR 02A3
ENCODING 675
SWIDTH 797 0
DWIDTH 31 0
BBX 30 27 1 0
BITMAP
00030000
001F0000
003F0000
000F0000
000F0000
000F0000
00070000
00070000
00070000
03E7FFFC
0E3F8078
1C1F00F0
380F00F0
300F01E0
700703C0
700707C0
F0070780
F0070F00
F0071E00
F0071E00
F0073C00
78077800
78077008
3C0FF008
3E1FE008
1FF7C018
07C7FFF8
ENDCHAR
STARTCHAR 02A4
ENCODING 676
SWIDTH 848 0
DWIDTH 33 0
BBX 31 35 1 -8
BITMAP
00030000
001F0000
003F0000
000F0000
000F0000
000F0000
00070000
00070000
00070000
03E7FFFE
0E3F803C
1C1F0078
380F0078
300F00F0
700701E0
700703C0
F00703C0
F0070780
F0070F00
F0070F80
F00701E0
78070070
78070038
3C0F0038
3E1FE01C
1FF7801C
07C6001C
0000001C
0001003C
0000803C
0000C078
000060F8
00007FF0
00003FE0
00000F80
ENDCHAR
STARTCHAR 02A5
ENCODING 677
SWIDTH 848 0
DWIDTH 33 0
BBX 32 30 1 -3
BITMAP
00030000
001F0000
003F0000
000F0000
000F0000
000F0000
00070000
00070000
00070000
03E7FFFC
0E3F8078
1C1F00F0
380F00F0
300F01E0
700703C0
700707C0
F0070780
F0070F00
F0071E00
F0071E00
F0073C7E
780778C3
78077101
3C0FF301
3E1FE603
1FF7C406
07C7FFFC
00001800
00001000
00001000
ENDCHAR
STARTCHAR 02A6
ENCODING 678
SWIDTH 565 0
DWIDTH 22 0
BBX 21 24 0 0
BITMAP
040000
040000
040000
0C0000
1C0000
3C0000
FFFF20
1C30E0
1C6060
1C6020
1C6020
1C7020
1C7800
1C3F00
1C1FC0
1C07E0
1C01F0
1C00F0
1C0078
1C0038
1C0030
1C0030
0E0060
07FF80
ENDCHAR
STARTCHAR 02A7
ENCODING 679
SWIDTH 462 0
DWIDTH 18 0
BBX 22 35 0 -8
BITMAP
0003E0
000478
00083C
04181C
043818
043800
0C3800
1C3800
3C3800
FFF800
1C3800
1C3800
1C3800
1C3800
1C3800
1C3800
1C3800
1C3800
1C3800
1C3800
1C3800
1C3800
1C3800
1C3800
1E7800
0FF800
073800
003800
003800
003800
703000
703000
786000
3C4000
1F8000
ENDCHAR
STARTCHAR 02A8
ENCODING 680
SWIDTH 642 0
DWIDTH 25 0
BBX 24 24 0 0
BITMAP
040000
040000
040000
0C0000
1C0000
3C0000
FFC1F0
1C061C
1C0C1E
1C180E
1C380F
1C380E
1C3000
1C7000
1C7000
1C7800
1C78FC
1C3B06
1C3C02
1C3E03
1C1F06
1E7FFE
0FCFFC
0703F0
ENDCHAR
STARTCHAR 02A9
ENCODING 681
SWIDTH 797 0
DWIDTH 31 0
BBX 27 35 1 -8
BITMAP
00F80000
011E0000
020F0000
06070000
0E060000
0E000000
0E000000
0E000000
0E000000
FFFF8F80
0E079FC0
0E03A1C0
0E03C0E0
0E0380E0
0E0380E0
0E0380E0
0E0380E0
0E0380E0
0E0380E0
0E0380E0
0E0380E0
0E0380E0
0E0380E0
0E0380E0
0E0780E0
1F0780E0
7FDFF0E0
000000E0
000000E0
000000E0
000000C0
000060C0
00007080
00007980
00003E00
ENDCHAR
STARTCHAR 02AA
ENCODING 682
SWIDTH 565 0
DWIDTH 22 0
BBX 20 27 1 0
BITMAP
0C0000
7C0000
FC0000
1C0000
1C0000
1C0000
1C0000
1C0000
1C0000
1C1E40
1C61C0
1CC0C0
1CC040
1CC040
1CE040
1CF800
1C7E00
1C3F80
1C0FC0
1C03E0
1C00E0
1C00F0
1E0070
1E0060
1F00E0
3FC1C0
FEFF00
ENDCHAR
STARTCHAR 02AB
ENCODING 683
SWIDTH 565 0
DWIDTH 22 0
BBX 20 27 1 0
BITMAP
0C0000
7C0000
FC0000
1C0000
1C0000
1C0000
1C0000
1C0000
1C0000
1FFFF0
1E00F0
1E01E0
1C03C0
1C0780
1C0780
1C0F00
1C1E00
1C1E00
1C3C00
1C7800
1C7000
1CF000
1DE010
1FC010
1FC010
3F8030
FFFFF0
ENDCHAR
STARTCHAR 02AC
ENCODING 684
SWIDTH 514 0
DWIDTH 20 0
BBX 20 26 0 0
BITMAP
FDF8F0
307060
387040
1830C0
187080
0C5880
0C9900
0E9D00
070E00
070E00
020600
020400
000000
000000
FDF8F0
307060
387040
1830C0
187080
0C5880
0C9900
0E9D00
070E00
070E00
020600
020400
ENDCHAR
STARTCHAR 02AD
ENCODING 685
SWIDTH 488 0
DWIDTH 19 0
BBX 17 26 1 0
BITMAP
FFFF80
FFFF80
FFFF80
E00380
C00180
800080
800080
800080
000000
000000
000000
000000
000000
000000
000000
000000
000000
000000
FFFF80
FFFF80
FFFF80
E00380
C00180
800080
800080
800080
ENDCHAR
STARTCHAR 02AE
ENCODING 686
SWIDTH 617 0
DWIDTH 24 0
BBX 23 26 1 -8
BITMAP
7C03FE
FE00F8
F30070
E38070
018070
01C070
01C070
01C070
01C070
01C070
01C070
01C070
01C070
01C070
01C0F0
01E370
00FE70
007870
000070
000070
000070
000070
000070
00007E
00007C
000060
ENDCHAR
STARTCHAR 02AF
ENCODING 687
SWIDTH 617 0
DWIDTH 24 0
BBX 27 26 1 -8
BITMAP
7C03FE00
FE00F800
F3007000
E3807000
01807000
01C07000
01C07000
01C07000
01C07000
01C07000
01C07000
01C07000
01C07000
01C07000
01C0F000
01E37000
00FE7000
00787000
00007000
00007000
00007000
00003000
000030E0
000019E0
00000FE0
000007C0
ENDCHAR
STARTCHAR 02B0
ENCODING 688
SWIDTH 334 0
DWIDTH 13 0
BBX 11 16 1 11
BITMAP
6000
E000
6000
6000
6000
6000
6700
7980
6180
6180
6080
6080
6080
6180
61C0
FBE0
ENDCHAR
STARTCHAR 02B1
ENCODING 689
SWIDTH 334 0
DWIDTH 13 0
BBX 11 16 1 11
BITMAP
0E00
3300
2100
6000
6000
6000
6700
7980
6180
6180
6080
6080
6080
6180
61C0
FBE0
ENDCHAR
STARTCHAR 02B2
ENCODING 690
SWIDTH 154 0
DWIDTH 6 0
BBX 6 21 -1 6
BITMAP
0C
0C
00
00
00
00
0C
1C
0C
0C
0C
0C
0C
0C
0C
0C
0C
0C
0C
C8
F0
ENDCHAR
STARTCHAR 02B3
ENCODING 691
SWIDTH 205 0
DWIDTH 8 0
BBX 7 10 1 11
BITMAP
66
EE
70
60
60
60
60
60
70
F8
ENDCHAR
STARTCHAR 02B4
ENCODING 692
SWIDTH 205 0
DWIDTH 8 0
BBX 8 10 0 11
BITMAP
3F
0C
0C
0C
0C
0C
0C
1C
FF
EC
ENDCHAR
STARTCHAR 02B5
ENCODING 693
SWIDTH 205 0
DWIDTH 8 0
BBX 10 15 0 6
BITMAP
3F00
0C00
0C00
0C00
0C00
0C00
0C00
1C00
FC00
EC00
0C00
0C00
0400
04C0
03C0
ENDCHAR
STARTCHAR 02B6
ENCODING 694
SWIDTH 282 0
DWIDTH 11 0
BBX 10 10 1 11
BITMAP
F1C0
6380
6300
6600
6C00
7E00
6300
6300
6300
FE00
ENDCHAR
STARTCHAR 02B7
ENCODING 695
SWIDTH 437 0
DWIDTH 17 0
BBX 17 10 0 11
BITMAP
F3E780
71C300
30C200
30C200
196400
196400
0A3800
0E3800
0C1000
041000
ENDCHAR
STARTCHAR 02B8
ENCODING 696
SWIDTH 308 0
DWIDTH 12 0
BBX 12 15 0 6
BITMAP
F8F0
7040
3040
3080
1880
1880
0D00
0700
0600
0200
0400
0400
0800
7800
7000
ENDCHAR
STARTCHAR 02B9
ENCODING 697
SWIDTH 231 0
DWIDTH 9 0
BBX 5 11 3 15
BITMAP
30
78
70
F0
F0
E0
E0
C0
C0
80
80
ENDCHAR
STARTCHAR 02BA
ENCODING 698
SWIDTH 360 0
DWIDTH 14 0
BBX 10 11 3 15
BITMAP
31C0
79C0
73C0
F3C0
F380
E380
E300
C300
C200
8600
8400
ENDCHAR
STARTCHAR 02BB
ENCODING 699
SWIDTH 334 0
DWIDTH 13 0
BBX 5 9 4 17
BITMAP
10
30
40
C0
80
80
F8
F8
78
ENDCHAR
STARTCHAR 02BC
ENCODING 700
SWIDTH 334 0
DWIDTH 13 0
BBX 5 9 4 17
BITMAP
F0
F8
F8
08
08
18
10
60
40
ENDCHAR
STARTCHAR 02BD
ENCODING 701
SWIDTH 334 0
DWIDTH 13 0
BBX 6 9 3 17
BITMAP
3C
7C
7C
C0
40
60
20
18
08
ENDCHAR
STARTCHAR 02BE
ENCODING 702
SWIDTH 334 0
DWIDTH 13 0
BBX 3 6 5 20
BITMAP
C0
60
20
20
60
C0
ENDCHAR
STARTCHAR 02BF
ENCODING 703
SWIDTH 334 0
DWIDTH 13 0
BBX 3 6 5 20
BITMAP
60
C0
80
80
C0
60
ENDCHAR
STARTCHAR 02C0
ENCODING 704
SWIDTH 257 0
DWIDTH 10 0
BBX 8 16 1 11
BITMAP
78
C6
C2
03
03
03
03
07
07
3E
3C
30
30
30
30
30
ENDCHAR
STARTCHAR 02C1
ENCODING 705
SWIDTH 257 0
DWIDTH 10 0
BBX 8 16 1 11
BITMAP
3E
63
C3
C0
80
80
C0
C0
E0
78
38
18
18
18
18
18
ENDCHAR
STARTCHAR 02C2
ENCODING 706
SWIDTH 565 0
DWIDTH 22 0
BBX 20 19 1 4
BITMAP
000010
000070
0001E0
000F00
003C00
00F000
078000
1E0000
780000
E00000
780000
1E0000
07C000
00F000
003C00
000F00
0001E0
000070
000010
ENDCHAR
STARTCHAR 02C3
ENCODING 707
SWIDTH 565 0
DWIDTH 22 0
BBX 20 19 1 4
BITMAP
800000
E00000
780000
0F0000
03C000
00F000
003E00
000780
0001E0
000070
0001E0
000780
001E00
00F000
03C000
1F0000
780000
E00000
800000
ENDCHAR
STARTCHAR 02C4
ENCODING 708
SWIDTH 565 0
DWIDTH 22 0
BBX 18 20 2 3
BITMAP
00C000
00C000
01E000
01E000
032000
033000
021000
061800
041800
0C0C00
080C00
180600
180600
300200
300300
200100
600180
400080
C000C0
8000C0
ENDCHAR
STARTCHAR 02C5
ENCODING 709
SWIDTH 565 0
DWIDTH 22 0
BBX 18 20 2 3
BITMAP
8000C0
C000C0
400180
600180
200100
300300
300200
180600
180600
080C00
0C0C00
041800
061800
021000
033000
032000
01E000
01E000
00C000
00C000
ENDCHAR
STARTCHAR 02C6
ENCODING 710
SWIDTH 334 0
DWIDTH 13 0
BBX 11 6 1 21
BITMAP
1F00
1F00
3B80
2180
40C0
8020
ENDCHAR
STARTCHAR 02C7
ENCODING 711
SWIDTH 334 0
DWIDTH 13 0
BBX 11 6 1 20
BITMAP
8020
6040
3080
3B80
1F00
1F00
ENDCHAR
STARTCHAR 02C8
ENCODING 712
SWIDTH 334 0
DWIDTH 13 0
BBX 2 6 5 20
BITMAP
C0
C0
C0
C0
C0
C0
ENDCHAR
STARTCHAR 02C9
ENCODING 713
SWIDTH 334 0
DWIDTH 13 0
BBX 13 2 0 23
BITMAP
FFF8
FFF8
ENDCHAR
STARTCHAR 02CA
ENCODING 714
SWIDTH 334 0
DWIDTH 13 0
BBX 5 6 5 20
BITMAP
78
70
60
C0
C0
80
ENDCHAR
STARTCHAR 02CB
ENCODING 715
SWIDTH 334 0
DWIDTH 13 0
BBX 5 6 3 20
BITMAP
F0
70
30
18
18
08
ENDCHAR
STARTCHAR 02CC
ENCODING 716
SWIDTH 334 0
DWIDTH 13 0
BBX 2 6 5 -8
BITMAP
C0
C0
C0
C0
C0
C0
ENDCHAR
STARTCHAR 02CD
ENCODING 717
SWIDTH 334 0
DWIDTH 13 0
BBX 11 2 1 -5
BITMAP
FFE0
FFE0
ENDCHAR
STARTCHAR 02CE
ENCODING 718
SWIDTH 334 0
DWIDTH 13 0
BBX 5 6 3 -8
BITMAP
F0
70
30
18
18
08
ENDCHAR
STARTCHAR 02CF
ENCODING 719
SWIDTH 334 0
DWIDTH 13 0
BBX 5 6 5 -8
BITMAP
78
70
60
C0
C0
80
ENDCHAR
STARTCHAR 02D0
ENCODING 720
SWIDTH 282 0
DWIDTH 11 0
BBX 3 18 4 0
BITMAP
E0
E0
40
40
00
00
00
00
00
00
00
00
00
00
40
40
E0
E0
ENDCHAR
STARTCHAR 02D1
ENCODING 721
SWIDTH 282 0
DWIDTH 11 0
BBX 3 4 4 14
BITMAP
E0
E0
40
40
ENDCHAR
STARTCHAR 02D2
ENCODING 722
SWIDTH 334 0
DWIDTH 13 0
BBX 3 6 5 2
BITMAP
C0
60
20
20
60
C0
ENDCHAR
STARTCHAR 02D3
ENCODING 723
SWIDTH 334 0
DWIDTH 13 0
BBX 3 6 5 2
BITMAP
60
C0
80
80
C0
60
ENDCHAR
STARTCHAR 02D4
ENCODING 724
SWIDTH 334 0
DWIDTH 13 0
BBX 7 6 3 3
BITMAP
30
30
30
30
FE
FE
ENDCHAR
STARTCHAR 02D5
ENCODING 725
SWIDTH 334 0
DWIDTH 13 0
BBX 7 6 3 3
BITMAP
FE
FE
30
30
30
30
ENDCHAR
STARTCHAR 02D6
ENCODING 726
SWIDTH 334 0
DWIDTH 13 0
BBX 7 6 3 3
BITMAP
30
30
FE
FE
30
30
ENDCHAR
STARTCHAR 02D7
ENCODING 727
SWIDTH 334 0
DWIDTH 13 0
BBX 11 2 1 6
BITMAP
FFE0
FFE0
ENDCHAR
STARTCHAR 02D8
ENCODING 728
SWIDTH 334 0
DWIDTH 13 0
BBX 11 5 1 21
BITMAP
8020
E060
7FC0
3F80
1F00
ENDCHAR
STARTCHAR 02D9
ENCODING 729
SWIDTH 334 0
DWIDTH 13 0
BBX 5 3 4 22
BITMAP
70
F8
70
ENDCHAR
STARTCHAR 02DA
ENCODING 730
SWIDTH 334 0
DWIDTH 13 0
BBX 7 6 3 21
BITMAP
7C
C6
82
82
C6
7C
ENDCHAR
STARTCHAR 02DB
ENCODING 731
SWIDTH 334 0
DWIDTH 13 0
BBX 5 9 1 -8
BITMAP
08
10
60
60
C0
C0
C0
E0
78
ENDCHAR
STARTCHAR 02DC
ENCODING 732
SWIDTH 334 0
DWIDTH 13 0
BBX 13 5 0 22
BITMAP
3C08
7E08
4F90
87F0
81E0
ENDCHAR
STARTCHAR 02DD
ENCODING 733
SWIDTH 334 0
DWIDTH 13 0
BBX 11 6 1 20
BITMAP
38E0
71C0
71C0
6180
4100
8200
ENDCHAR
STARTCHAR 02DE
ENCODING 734
SWIDTH 334 0
DWIDTH 13 0
BBX 9 7 0 8
BITMAP
4000
C000
6000
6000
3080
3F80
1E00
ENDCHAR
STARTCHAR 02DF
ENCODING 735
SWIDTH 385 0
DWIDTH 15 0
BBX 13 13 1 13
BITMAP
4010
E038
7070
38E0
1DC0
0F80
0700
0F80
1DC0
38E0
7070
E038
4010
ENDCHAR
STARTCHAR 02E0
ENCODING 736
SWIDTH 282 0
DWIDTH 11 0
BBX 11 15 0 6
BITMAP
F8E0
7040
3040
3080
1880
1900
0D00
0E00
0600
0600
0700
0700
0980
0900
0700
ENDCHAR
STARTCHAR 02E1
ENCODING 737
SWIDTH 154 0
DWIDTH 6 0
BBX 5 16 1 11
BITMAP
60
E0
60
60
60
60
60
60
60
60
60
60
60
60
60
F8
ENDCHAR
STARTCHAR 02E2
ENCODING 738
SWIDTH 205 0
DWIDTH 8 0
BBX 7 10 1 11
BITMAP
7C
8C
84
C4
F0
3C
0E
86
84
F8
ENDCHAR
STARTCHAR 02E3
ENCODING 739
SWIDTH 282 0
DWIDTH 11 0
BBX 11 10 0 11
BITMAP
F9C0
7180
1900
1E00
0C00
0E00
1300
2180
61C0
F3E0
ENDCHAR
STARTCHAR 02E4
ENCODING 740
SWIDTH 257 0
DWIDTH 10 0
BBX 8 16 1 11
BITMAP
3E
63
C3
C0
80
80
C0
C0
E0
78
38
18
18
18
1C
3E
ENDCHAR
STARTCHAR 02E5
ENCODING 741
SWIDTH 385 0
DWIDTH 15 0
BBX 9 28 3 0
BITMAP
FF80
FF80
FF80
0380
0380
0380
0380
0380
0380
0380
0380
0380
0380
0380
0380
0380
0380
0380
0380
0380
0380
0380
0380
0380
0380
0380
0380
0380
ENDCHAR
STARTCHAR 02E6
ENCODING 742
SWIDTH 385 0
DWIDTH 15 0
BBX 9 28 3 0
BITMAP
0380
0380
0380
0380
0380
0380
FF80
FF80
FF80
0380
0380
0380
0380
0380
0380
0380
0380
0380
0380
0380
0380
0380
0380
0380
0380
0380
0380
0380
ENDCHAR
STARTCHAR 02E7
ENCODING 743
SWIDTH 385 0
DWIDTH 15 0
BBX 9 28 3 0
BITMAP
0380
0380
0380
0380
0380
0380
0380
0380
0380
0380
0380
0380
FF80
FF80
FF80
0380
0380
0380
0380
0380
0380
0380
0380
0380
0380
0380
0380
0380
ENDCHAR
STARTCHAR 02E8
ENCODING 744
SWIDTH 385 0
DWIDTH 15 0
BBX 9 28 3 0
BITMAP
0380
0380
0380
0380
0380
0380
0380
0380
0380
0380
0380
0380
0380
0380
0380
0380
0380
0380
0380
FF80
FF80
FF80
0380
0380
0380
0380
0380
0380
ENDCHAR
STARTCHAR 02E9
ENCODING 745
SWIDTH 385 0
DWIDTH 15 0
BBX 9 28 3 0
BITMAP
0380
0380
0380
0380
0380
0380
0380
0380
0380
0380
0380
0380
0380
0380
0380
0380
0380
0380
0380
0380
0380
0380
0380
0380
0380
FF80
FF80
FF80
ENDCHAR
STARTCHAR 02EA
ENCODING 746
SWIDTH 334 0
DWIDTH 13 0
BBX 9 17 2 0
BITMAP
C000
C000
C000
C000
C000
C000
C000
C000
C000
C000
C000
C000
C000
C000
C000
FF80
FF80
ENDCHAR
STARTCHAR 02EB
ENCODING 747
SWIDTH 334 0
DWIDTH 13 0
BBX 9 17 2 0
BITMAP
C000
C000
C000
C000
C000
C000
C000
FF80
FF80
C000
C000
C000
C000
C000
C000
C000
C000
ENDCHAR
STARTCHAR 02EC
ENCODING 748
SWIDTH 334 0
DWIDTH 13 0
BBX 11 6 1 -8
BITMAP
8020
60C0
3180
3B80
1F00
1F00
ENDCHAR
STARTCHAR 02ED
ENCODING 749
SWIDTH 334 0
DWIDTH 13 0
BBX 13 6 0 19
BITMAP
FFF8
FFF8
0000
0000
FFF8
FFF8
ENDCHAR
STARTCHAR 02EE
ENCODING 750
SWIDTH 437 0
DWIDTH 17 0
BBX 15 9 1 17
BITMAP
703C
F87E
7C3E
0C06
0C06
0C06
180C
3018
6030
ENDCHAR
STARTCHAR 02EF
ENCODING 751
SWIDTH 334 0
DWIDTH 13 0
BBX 7 5 3 -7
BITMAP
82
C6
6C
7C
38
ENDCHAR
STARTCHAR 02F0
ENCODING 752
SWIDTH 334 0
DWIDTH 13 0
BBX 7 5 3 -7
BITMAP
38
7C
6C
C6
82
ENDCHAR
STARTCHAR 02F1
ENCODING 753
SWIDTH 334 0
DWIDTH 13 0
BBX 5 7 4 -8
BITMAP
08
70
E0
C0
E0
70
08
ENDCHAR
STARTCHAR 02F2
ENCODING 754
SWIDTH 334 0
DWIDTH 13 0
BBX 5 7 4 -8
BITMAP
80
70
38
18
38
70
80
ENDCHAR
STARTCHAR 02F3
ENCODING 755
SWIDTH 334 0
DWIDTH 13 0
BBX 7 6 3 -7
BITMAP
7C
C6
82
82
C6
7C
ENDCHAR
STARTCHAR 02F4
ENCODING 756
SWIDTH 334 0
DWIDTH 13 0
BBX 5 6 3 3
BITMAP
F0
70
30
18
18
08
ENDCHAR
STARTCHAR 02F5
ENCODING 757
SWIDTH 334 0
DWIDTH 13 0
BBX 10 6 2 3
BITMAP
E380
6180
71C0
30C0
1040
1040
ENDCHAR
STARTCHAR 02F6
ENCODING 758
SWIDTH 334 0
DWIDTH 13 0
BBX 11 6 1 3
BITMAP
38E0
71C0
71C0
6180
4100
8200
ENDCHAR
STARTCHAR 02F7
ENCODING 759
SWIDTH 334 0
DWIDTH 13 0
BBX 13 5 0 -7
BITMAP
3C08
7E10
4F90
87F0
81E0
ENDCHAR
STARTCHAR 02F8
ENCODING 760
SWIDTH 282 0
DWIDTH 11 0
BBX 5 16 3 10
BITMAP
70
F8
70
00
00
00
00
00
00
00
00
00
00
70
F8
70
ENDCHAR
STARTCHAR 02F9
ENCODING 761
SWIDTH 334 0
DWIDTH 13 0
BBX 7 6 3 20
BITMAP
FE
FE
C0
C0
C0
C0
ENDCHAR
STARTCHAR 02FA
ENCODING 762
SWIDTH 334 0
DWIDTH 13 0
BBX 7 6 3 20
BITMAP
FE
FE
06
06
06
06
ENDCHAR
STARTCHAR 02FB
ENCODING 763
SWIDTH 334 0
DWIDTH 13 0
BBX 7 6 3 -8
BITMAP
C0
C0
C0
C0
FE
FE
ENDCHAR
STARTCHAR 02FC
ENCODING 764
SWIDTH 334 0
DWIDTH 13 0
BBX 7 6 3 -8
BITMAP
06
06
06
06
FE
FE
ENDCHAR
STARTCHAR 02FD
ENCODING 765
SWIDTH 411 0
DWIDTH 16 0
BBX 14 7 1 -8
BITMAP
E01C
E01C
E01C
E01C
FFFC
FFFC
FFFC
ENDCHAR
STARTCHAR 02FE
ENCODING 766
SWIDTH 411 0
DWIDTH 16 0
BBX 14 7 1 -8
BITMAP
E000
E000
E000
E000
FFFC
FFFC
FFFC
ENDCHAR
STARTCHAR 02FF
ENCODING 767
SWIDTH 334 0
DWIDTH 13 0
BBX 11 12 1 -8
BITMAP
0800
1800
3000
3000
6000
FFE0
FFE0
6000
2000
3000
1800
0800
ENDCHAR
STARTCHAR 0300
ENCODING 768
SWIDTH 0 0
DWIDTH 0 0
BBX 6 6 -9 28
BITMAP
F0
70
38
18
08
04
ENDCHAR
STARTCHAR 0301
ENCODING 769
SWIDTH 0 0
DWIDTH 0 0
BBX 5 6 -7 28
BITMAP
78
70
60
C0
80
80
ENDCHAR
STARTCHAR 0302
ENCODING 770
SWIDTH 0 0
DWIDTH 0 0
BBX 10 6 -5 20
BITMAP
1E00
3F00
3300
6180
4080
8040
ENDCHAR
STARTCHAR 0303
ENCODING 771
SWIDTH 0 0
DWIDTH 0 0
BBX 12 4 -15 29
BITMAP
3C10
7F10
4FF0
81E0
ENDCHAR
STARTCHAR 0304
ENCODING 772
SWIDTH 0 0
DWIDTH 0 0
BBX 12 2 -6 23
BITMAP
FFF0
FFF0
ENDCHAR
STARTCHAR 0305
ENCODING 773
SWIDTH 0 0
DWIDTH 0 0
BBX 20 2 -10 28
BITMAP
FFFFF0
FFFFF0
ENDCHAR
STARTCHAR 0306
ENCODING 774
SWIDTH 0 0
DWIDTH 0 0
BBX 10 5 -5 20
BITMAP
8040
C0C0
FFC0
7F80
1E00
ENDCHAR
STARTCHAR 0307
ENCODING 775
SWIDTH 0 0
DWIDTH 0 0
BBX 4 3 -2 21
BITMAP
F0
F0
F0
ENDCHAR
STARTCHAR 0308
ENCODING 776
SWIDTH 0 0
DWIDTH 0 0
BBX 10 3 -5 21
BITMAP
E1C0
F3C0
E1C0
ENDCHAR
STARTCHAR 0309
ENCODING 777
SWIDTH 0 0
DWIDTH 0 0
BBX 5 6 -8 28
BITMAP
78
88
C8
18
10
20
ENDCHAR
STARTCHAR 030A
ENCODING 778
SWIDTH 0 0
DWIDTH 0 0
BBX 8 6 -4 20
BITMAP
3C
62
C3
C3
62
3C
ENDCHAR
STARTCHAR 030B
ENCODING 779
SWIDTH 0 0
DWIDTH 0 0
BBX 10 6 -5 20
BITMAP
71C0
6380
E380
C300
8200
8200
ENDCHAR
STARTCHAR 030C
ENCODING 780
SWIDTH 0 0
DWIDTH 0 0
BBX 10 6 -5 20
BITMAP
8040
4080
6180
3300
3F00
1E00
ENDCHAR
STARTCHAR 030D
ENCODING 781
SWIDTH 0 0
DWIDTH 0 0
BBX 2 6 -1 20
BITMAP
C0
C0
C0
C0
C0
C0
ENDCHAR
STARTCHAR 030E
ENCODING 782
SWIDTH 0 0
DWIDTH 0 0
BBX 6 6 -3 20
BITMAP
CC
CC
CC
CC
CC
CC
ENDCHAR
STARTCHAR 030F
ENCODING 783
SWIDTH 0 0
DWIDTH 0 0
BBX 10 6 -5 20
BITMAP
E380
6180
71C0
30C0
1040
1040
ENDCHAR
STARTCHAR 0310
ENCODING 784
SWIDTH 0 0
DWIDTH 0 0
BBX 10 8 -5 20
BITMAP
1E00
1E00
1E00
8040
C0C0
FFC0
7F80
1E00
ENDCHAR
STARTCHAR 0311
ENCODING 785
SWIDTH 0 0
DWIDTH 0 0
BBX 10 5 -5 20
BITMAP
1E00
7F80
FFC0
C0C0
8040
ENDCHAR
STARTCHAR 0312
ENCODING 786
SWIDTH 0 0
DWIDTH 0 0
BBX 4 8 -2 20
BITMAP
10
60
C0
80
80
F0
F0
70
ENDCHAR
STARTCHAR 0313
ENCODING 787
SWIDTH 0 0
DWIDTH 0 0
BBX 4 8 -2 20
BITMAP
E0
F0
F0
10
10
30
60
80
ENDCHAR
STARTCHAR 0314
ENCODING 788
SWIDTH 0 0
DWIDTH 0 0
BBX 4 8 -2 20
BITMAP
70
F0
F0
80
80
C0
60
10
ENDCHAR
STARTCHAR 0315
ENCODING 789
SWIDTH 0 0
DWIDTH 0 0
BBX 5 8 0 20
BITMAP
E0
F0
F8
18
10
10
60
40
ENDCHAR
STARTCHAR 0316
ENCODING 790
SWIDTH 0 0
DWIDTH 0 0
BBX 6 6 -3 -8
BITMAP
F0
78
38
18
0C
04
ENDCHAR
STARTCHAR 0317
ENCODING 791
SWIDTH 0 0
DWIDTH 0 0
BBX 6 6 -3 -8
BITMAP
3C
78
70
60
C0
80
ENDCHAR
STARTCHAR 0318
ENCODING 792
SWIDTH 0 0
DWIDTH 0 0
BBX 7 6 -4 -8
BITMAP
06
06
FE
FE
06
06
ENDCHAR
STARTCHAR 0319
ENCODING 793
SWIDTH 0 0
DWIDTH 0 0
BBX 7 6 -3 -8
BITMAP
C0
C0
FE
FE
C0
C0
ENDCHAR
STARTCHAR 031A
ENCODING 794
SWIDTH 0 0
DWIDTH 0 0
BBX 14 9 -7 23
BITMAP
FFFC
FFFC
FFFC
001C
001C
001C
001C
001C
001C
ENDCHAR
STARTCHAR 031B
ENCODING 795
SWIDTH 0 0
DWIDTH 0 0
BBX 4 5 0 25
BITMAP
70
F0
70
30
C0
ENDCHAR
STARTCHAR 031C
ENCODING 796
SWIDTH 0 0
DWIDTH 0 0
BBX 4 6 -2 -7
BITMAP
30
40
C0
C0
40
30
ENDCHAR
STARTCHAR 031D
ENCODING 797
SWIDTH 0 0
DWIDTH 0 0
BBX 6 6 -3 -8
BITMAP
30
30
30
30
FC
FC
ENDCHAR
STARTCHAR 031E
ENCODING 798
SWIDTH 0 0
DWIDTH 0 0
BBX 6 6 -3 -8
BITMAP
FC
FC
30
30
30
30
ENDCHAR
STARTCHAR 031F
ENCODING 799
SWIDTH 0 0
DWIDTH 0 0
BBX 6 6 -3 -8
BITMAP
30
30
FC
FC
30
30
ENDCHAR
STARTCHAR 0320
ENCODING 800
SWIDTH 0 0
DWIDTH 0 0
BBX 12 2 -6 -5
BITMAP
FFF0
FFF0
ENDCHAR
STARTCHAR 0321
ENCODING 801
SWIDTH 0 0
DWIDTH 0 0
BBX 10 10 -7 -8
BITMAP
01C0
01C0
01C0
01C0
01C0
01C0
E180
E180
F300
7C00
ENDCHAR
STARTCHAR 0322
ENCODING 802
SWIDTH 0 0
DWIDTH 0 0
BBX 10 10 0 -8
BITMAP
E000
E000
E000
E000
E000
E000
61C0
73C0
3FC0
0F80
ENDCHAR
STARTCHAR 0323
ENCODING 803
SWIDTH 0 0
DWIDTH 0 0
BBX 4 3 -17 -5
BITMAP
E0
F0
E0
ENDCHAR
STARTCHAR 0324
ENCODING 804
SWIDTH 0 0
DWIDTH 0 0
BBX 10 3 -5 -6
BITMAP
E1C0
F3C0
E1C0
ENDCHAR
STARTCHAR 0325
ENCODING 805
SWIDTH 0 0
DWIDTH 0 0
BBX 8 6 -4 -7
BITMAP
3C
62
C3
C3
62
3C
ENDCHAR
STARTCHAR 0326
ENCODING 806
SWIDTH 0 0
DWIDTH 0 0
BBX 4 8 -2 -10
BITMAP
E0
F0
F0
10
10
30
60
80
ENDCHAR
STARTCHAR 0327
ENCODING 807
SWIDTH 0 0
DWIDTH 0 0
BBX 6 8 -3 -8
BITMAP
10
10
38
3C
1C
1C
18
F0
ENDCHAR
STARTCHAR 0328
ENCODING 808
SWIDTH 0 0
DWIDTH 0 0
BBX 6 9 -3 -8
BITMAP
08
10
20
60
C0
C0
C0
E0
7C
ENDCHAR
STARTCHAR 0329
ENCODING 809
SWIDTH 0 0
DWIDTH 0 0
BBX 2 6 -1 -8
BITMAP
C0
C0
C0
C0
C0
C0
ENDCHAR
STARTCHAR 032A
ENCODING 810
SWIDTH 0 0
DWIDTH 0 0
BBX 14 7 -7 -8
BITMAP
FFFC
FFFC
FFFC
E01C
E01C
E01C
E01C
ENDCHAR
STARTCHAR 032B
ENCODING 811
SWIDTH 0 0
DWIDTH 0 0
BBX 12 4 -6 -6
BITMAP
8610
C630
FFF0
79E0
ENDCHAR
STARTCHAR 032C
ENCODING 812
SWIDTH 0 0
DWIDTH 0 0
BBX 10 6 -5 -8
BITMAP
8040
4080
6180
3300
3F00
1E00
ENDCHAR
STARTCHAR 032D
ENCODING 813
SWIDTH 0 0
DWIDTH 0 0
BBX 10 6 -5 -8
BITMAP
1E00
3F00
3300
6180
4080
8040
ENDCHAR
STARTCHAR 032E
ENCODING 814
SWIDTH 0 0
DWIDTH 0 0
BBX 10 5 -5 -8
BITMAP
8040
C0C0
FFC0
7F80
1E00
ENDCHAR
STARTCHAR 032F
ENCODING 815
SWIDTH 0 0
DWIDTH 0 0
BBX 10 5 -5 -8
BITMAP
1E00
7F80
FFC0
C0C0
8040
ENDCHAR
STARTCHAR 0330
ENCODING 816
SWIDTH 0 0
DWIDTH 0 0
BBX 12 5 -6 -7
BITMAP
3810
7E10
8F10
87E0
81C0
ENDCHAR
STARTCHAR 0331
ENCODING 817
SWIDTH 0 0
DWIDTH 0 0
BBX 12 2 -6 -5
BITMAP
FFF0
FFF0
ENDCHAR
STARTCHAR 0332
ENCODING 818
SWIDTH 0 0
DWIDTH 0 0
BBX 20 2 -10 -5
BITMAP
FFFFF0
FFFFF0
ENDCHAR
STARTCHAR 0333
ENCODING 819
SWIDTH 0 0
DWIDTH 0 0
BBX 20 5 -10 -8
BITMAP
FFFFF0
FFFFF0
000000
FFFFF0
FFFFF0
ENDCHAR
STARTCHAR 0334
ENCODING 820
SWIDTH 0 0
DWIDTH 0 0
BBX 12 5 -6 11
BITMAP
3810
7E10
8F10
87E0
81C0
ENDCHAR
STARTCHAR 0335
ENCODING 821
SWIDTH 0 0
DWIDTH 0 0
BBX 12 2 -6 12
BITMAP
FFF0
FFF0
ENDCHAR
STARTCHAR 0336
ENCODING 822
SWIDTH 0 0
DWIDTH 0 0
BBX 20 2 -10 12
BITMAP
FFFFF0
FFFFF0
ENDCHAR
STARTCHAR 0337
ENCODING 823
SWIDTH 0 0
DWIDTH 0 0
BBX 18 19 -9 -1
BITMAP
000080
0001C0
0003C0
000780
000F00
001E00
003C00
007800
00F000
01E000
03C000
078000
0F0000
1E0000
3C0000
780000
F00000
E00000
400000
ENDCHAR
STARTCHAR 0338
ENCODING 824
SWIDTH 0 0
DWIDTH 0 0
BBX 12 28 -6 -1
BITMAP
0030
0070
0070
0060
00E0
00C0
00C0
01C0
0180
0380
0380
0300
0700
0600
0600
0E00
0C00
0C00
1C00
1800
3800
3800
3000
7000
6000
6000
E000
C000
ENDCHAR
STARTCHAR 0339
ENCODING 825
SWIDTH 0 0
DWIDTH 0 0
BBX 4 6 -2 -7
BITMAP
C0
20
30
30
20
C0
ENDCHAR
STARTCHAR 033A
ENCODING 826
SWIDTH 0 0
DWIDTH 0 0
BBX 14 7 -7 -8
BITMAP
E01C
E01C
E01C
E01C
FFFC
FFFC
FFFC
ENDCHAR
STARTCHAR 033B
ENCODING 827
SWIDTH 0 0
DWIDTH 0 0
BBX 8 7 -4 -8
BITMAP
FF
FF
C3
C3
C3
FF
FF
ENDCHAR
STARTCHAR 033C
ENCODING 828
SWIDTH 0 0
DWIDTH 0 0
BBX 12 4 -6 -6
BITMAP
79E0
FFF0
CF30
0600
ENDCHAR
STARTCHAR 033D
ENCODING 829
SWIDTH 0 0
DWIDTH 0 0
BBX 8 8 -4 20
BITMAP
42
E7
7E
3C
3C
7E
E7
42
ENDCHAR
STARTCHAR 033E
ENCODING 830
SWIDTH 0 0
DWIDTH 0 0
BBX 4 10 -2 20
BITMAP
30
F0
C0
C0
60
60
30
30
E0
C0
ENDCHAR
STARTCHAR 033F
ENCODING 831
SWIDTH 0 0
DWIDTH 0 0
BBX 20 5 -10 28
BITMAP
FFFFF0
FFFFF0
000000
FFFFF0
FFFFF0
ENDCHAR
STARTCHAR 0340
ENCODING 832
SWIDTH 0 0
DWIDTH 0 0
BBX 6 6 -6 20
BITMAP
F0
70
38
18
0C
04
ENDCHAR
STARTCHAR 0341
ENCODING 833
SWIDTH 0 0
DWIDTH 0 0
BBX 6 6 0 20
BITMAP
3C
38
70
60
C0
80
ENDCHAR
STARTCHAR 0342
ENCODING 834
SWIDTH 0 0
DWIDTH 0 0
BBX 12 5 -6 20
BITMAP
3810
7E10
8F10
87E0
81C0
ENDCHAR
STARTCHAR 0343
ENCODING 835
SWIDTH 0 0
DWIDTH 0 0
BBX 4 8 -2 20
BITMAP
E0
F0
F0
10
10
30
60
80
ENDCHAR
STARTCHAR 0344
ENCODING 836
SWIDTH 0 0
DWIDTH 0 0
BBX 14 6 -7 20
BITMAP
01E0
03C0
0380
7338
F63C
7438
ENDCHAR
STARTCHAR 0345
ENCODING 837
SWIDTH 0 0
DWIDTH 0 0
BBX 4 6 -2 -8
BITMAP
C0
C0
C0
C0
F0
F0
ENDCHAR
STARTCHAR 0346
ENCODING 838
SWIDTH 0 0
DWIDTH 0 0
BBX 14 7 -7 23
BITMAP
FFFC
FFFC
FFFC
E01C
E01C
E01C
E01C
ENDCHAR
STARTCHAR 0347
ENCODING 839
SWIDTH 0 0
DWIDTH 0 0
BBX 20 5 -10 -8
BITMAP
FFFFF0
FFFFF0
000000
FFFFF0
FFFFF0
ENDCHAR
STARTCHAR 0348
ENCODING 840
SWIDTH 0 0
DWIDTH 0 0
BBX 6 6 -3 -8
BITMAP
CC
CC
CC
CC
CC
CC
ENDCHAR
STARTCHAR 0349
ENCODING 841
SWIDTH 0 0
DWIDTH 0 0
BBX 7 6 -4 -8
BITMAP
FE
FE
06
06
06
06
ENDCHAR
STARTCHAR 034A
ENCODING 842
SWIDTH 0 0
DWIDTH 0 0
BBX 12 7 -6 19
BITMAP
0100
3B10
7F10
8F10
8FE0
8DC0
0800
ENDCHAR
STARTCHAR 034B
ENCODING 843
SWIDTH 0 0
DWIDTH 0 0
BBX 12 11 -6 20
BITMAP
0600
0F00
0600
3810
7E10
8F10
87E0
81C0
0600
0F00
0600
ENDCHAR
STARTCHAR 034C
ENCODING 844
SWIDTH 0 0
DWIDTH 0 0
BBX 12 10 -6 20
BITMAP
3810
7E10
8F10
87E0
81C0
3810
7E10
8F10
87E0
81C0
ENDCHAR
STARTCHAR 034D
ENCODING 845
SWIDTH 0 0
DWIDTH 0 0
BBX 8 6 -4 -7
BITMAP
42
C3
FF
FF
C3
42
ENDCHAR
STARTCHAR 034E
ENCODING 846
SWIDTH 0 0
DWIDTH 0 0
BBX 5 7 -2 -8
BITMAP
60
F8
60
60
60
60
60
ENDCHAR
STARTCHAR 034F
ENCODING 847
SWIDTH 0 0
DWIDTH 0 0
BBX 28 28 -14 0
BITMAP
FC1F83F0
FC1F83F0
C0000030
C0000030
C0000030
C0060030
0036C000
01B0D800
01801800
00000000
06000600
C6000630
C0000030
CC000330
CC000330
C0000030
C6000630
06000600
00000000
01801800
01801800
0030C000
C036C030
C0060030
C0000030
C0000030
FC1F83F0
FC1F83F0
ENDCHAR
STARTCHAR 0350
ENCODING 848
SWIDTH 0 0
DWIDTH 0 0
BBX 6 7 -3 20
BITMAP
C0
70
1C
0C
3C
70
C0
ENDCHAR
STARTCHAR 0351
ENCODING 849
SWIDTH 0 0
DWIDTH 0 0
BBX 4 7 -2 20
BITMAP
30
40
C0
80
C0
40
30
ENDCHAR
STARTCHAR 0352
ENCODING 850
SWIDTH 0 0
DWIDTH 0 0
BBX 10 8 -5 21
BITMAP
1E00
7F80
FFC0
C0C0
8040
1E00
1E00
1E00
ENDCHAR
STARTCHAR 0353
ENCODING 851
SWIDTH 0 0
DWIDTH 0 0
BBX 8 8 -4 -8
BITMAP
42
E7
7E
3C
3C
7E
E7
42
ENDCHAR
STARTCHAR 0354
ENCODING 852
SWIDTH 0 0
DWIDTH 0 0
BBX 6 7 -3 -8
BITMAP
0C
38
E0
C0
E0
38
0C
ENDCHAR
STARTCHAR 0355
ENCODING 853
SWIDTH 0 0
DWIDTH 0 0
BBX 6 7 -3 -8
BITMAP
C0
70
1C
0C
3C
70
C0
ENDCHAR
STARTCHAR 0356
ENCODING 854
SWIDTH 0 0
DWIDTH 0 0
BBX 12 7 -6 -8
BITMAP
8000
E1C0
39E0
1B60
3A30
E410
8000
ENDCHAR
STARTCHAR 0357
ENCODING 855
SWIDTH 0 0
DWIDTH 0 0
BBX 4 7 -2 20
BITMAP
C0
20
30
30
30
20
C0
ENDCHAR
STARTCHAR 0358
ENCODING 856
SWIDTH 0 0
DWIDTH 0 0
BBX 3 3 5 23
BITMAP
E0
E0
E0
ENDCHAR
STARTCHAR 0359
ENCODING 857
SWIDTH 0 0
DWIDTH 0 0
BBX 8 7 -4 -8
BITMAP
18
5A
FF
3C
3C
24
24
ENDCHAR
STARTCHAR 035A
ENCODING 858
SWIDTH 0 0
DWIDTH 0 0
BBX 14 7 -7 -8
BITMAP
3CF0
6798
C308
C30C
4308
6798
3CF0
ENDCHAR
STARTCHAR 035B
ENCODING 859
SWIDTH 0 0
DWIDTH 0 0
BBX 8 10 -4 21
BITMAP
30
30
60
60
7F
FE
06
06
0C
0C
ENDCHAR
STARTCHAR 035C
ENCODING 860
SWIDTH 0 0
DWIDTH 0 0
BBX 25 6 -1 -8
BITMAP
80000080
70000300
3E003E00
1FFFFC00
07FFF000
00FF8000
ENDCHAR
STARTCHAR 035D
ENCODING 861
SWIDTH 0 0
DWIDTH 0 0
BBX 25 5 -1 21
BITMAP
C0000080
7C000F00
1FFFFE00
07FFF800
00FFC000
ENDCHAR
STARTCHAR 035E
ENCODING 862
SWIDTH 0 0
DWIDTH 0 0
BBX 24 2 -1 24
BITMAP
FFFFFF
FFFFFF
ENDCHAR
STARTCHAR 035F
ENCODING 863
SWIDTH 0 0
DWIDTH 0 0
BBX 24 2 -1 -5
BITMAP
FFFFFF
FFFFFF
ENDCHAR
STARTCHAR 0360
ENCODING 864
SWIDTH 0 0
DWIDTH 0 0
BBX 26 5 -1 20
BITMAP
1F800040
7FF80040
407F8180
8007FF00
80007E00
ENDCHAR
STARTCHAR 0361
ENCODING 865
SWIDTH 0 0
DWIDTH 0 0
BBX 25 5 -1 20
BITMAP
00FFC000
07FFF800
1FFFFE00
7C000F00
C0000080
ENDCHAR
STARTCHAR 0362
ENCODING 866
SWIDTH 0 0
DWIDTH 0 0
BBX 21 6 -3 -7
BITMAP
000010
000010
FFFFF8
FFFFF8
000010
000010
ENDCHAR
STARTCHAR 0363
ENCODING 867
SWIDTH 0 0
DWIDTH 0 0
BBX 10 10 -5 11
BITMAP
3E00
6300
6300
0700
3B00
6300
C300
C300
E740
7B80
ENDCHAR
STARTCHAR 0364
ENCODING 868
SWIDTH 0 0
DWIDTH 0 0
BBX 8 10 -4 11
BITMAP
3C
47
83
FF
80
80
C1
E1
7E
3C
ENDCHAR
STARTCHAR 0365
ENCODING 869
SWIDTH 0 0
DWIDTH 0 0
BBX 6 16 -3 11
BITMAP
30
30
00
00
00
00
30
F0
30
30
30
30
30
30
30
7C
ENDCHAR
STARTCHAR 0366
ENCODING 870
SWIDTH 0 0
DWIDTH 0 0
BBX 10 10 -5 11
BITMAP
1E00
6380
4180
C0C0
C0C0
C0C0
C0C0
6080
7180
1E00
ENDCHAR
STARTCHAR 0367
ENCODING 871
SWIDTH 0 0
DWIDTH 0 0
BBX 12 10 -6 11
BITMAP
F1C0
30C0
30C0
30C0
30C0
30C0
30C0
30C0
31F0
1EC0
ENDCHAR
STARTCHAR 0368
ENCODING 872
SWIDTH 0 0
DWIDTH 0 0
BBX 8 10 -4 11
BITMAP
3E
63
C3
C0
80
C0
C1
E1
7E
3C
ENDCHAR
STARTCHAR 0369
ENCODING 873
SWIDTH 0 0
DWIDTH 0 0
BBX 11 16 -6 11
BITMAP
00C0
03C0
00C0
00C0
00C0
00C0
1EC0
31C0
60C0
60C0
60C0
E0C0
60C0
60C0
31E0
1EC0
ENDCHAR
STARTCHAR 036A
ENCODING 874
SWIDTH 0 0
DWIDTH 0 0
BBX 12 16 -6 11
BITMAP
3000
F000
3000
3000
3000
3000
3380
3CC0
30C0
30C0
30C0
30C0
30C0
30C0
30C0
FDF0
ENDCHAR
STARTCHAR 036B
ENCODING 875
SWIDTH 0 0
DWIDTH 0 0
BBX 18 10 -9 11
BITMAP
338E00
FCF300
30C300
30C300
30C300
30C300
30C300
30C300
30C380
FBF7C0
ENDCHAR
STARTCHAR 036C
ENCODING 876
SWIDTH 0 0
DWIDTH 0 0
BBX 8 10 -4 11
BITMAP
37
FF
38
30
30
30
30
30
30
FC
ENDCHAR
STARTCHAR 036D
ENCODING 877
SWIDTH 0 0
DWIDTH 0 0
BBX 6 13 -3 11
BITMAP
20
20
60
FC
20
20
20
20
20
20
20
34
38
ENDCHAR
STARTCHAR 036E
ENCODING 878
SWIDTH 0 0
DWIDTH 0 0
BBX 12 10 -6 11
BITMAP
F8F0
3060
3040
1840
1880
0C80
0D00
0700
0600
0200
ENDCHAR
STARTCHAR 036F
ENCODING 879
SWIDTH 0 0
DWIDTH 0 0
BBX 12 10 -6 11
BITMAP
F9C0
3880
1900
0E00
0600
0F00
1300
1180
20C0
71F0
ENDCHAR
STARTCHAR 0374
ENCODING 884
SWIDTH 334 0
DWIDTH 13 0
BBX 5 6 5 20
BITMAP
78
70
60
C0
C0
80
ENDCHAR
STARTCHAR 0375
ENCODING 885
SWIDTH 334 0
DWIDTH 13 0
BBX 5 6 3 -8
BITMAP
08
18
18
30
70
F0
ENDCHAR
STARTCHAR 037A
ENCODING 890
SWIDTH 334 0
DWIDTH 13 0
BBX 5 6 4 -8
BITMAP
C0
C0
C0
C0
F8
70
ENDCHAR
STARTCHAR 037B
ENCODING 891
SWIDTH 437 0
DWIDTH 17 0
BBX 15 18 1 0
BITMAP
0FC0
1060
2038
4018
001C
000C
000E
000E
000E
000E
001E
801E
403C
403C
30FC
3FF8
1FF0
07C0
ENDCHAR
STARTCHAR 037C
ENCODING 892
SWIDTH 437 0
DWIDTH 17 0
BBX 15 18 1 0
BITMAP
03E0
0C18
180C
3004
7000
7000
6000
E0E0
E1E0
F0E0
F000
7002
7802
7C04
3E1C
3FF8
1FF0
07C0
ENDCHAR
STARTCHAR 037D
ENCODING 893
SWIDTH 437 0
DWIDTH 17 0
BBX 15 18 1 0
BITMAP
0FC0
1060
2038
4018
001C
000C
000E
0E0E
0F0E
0E0E
001E
801E
403C
403C
30FC
3FF8
1FF0
07C0
ENDCHAR
STARTCHAR 037E
ENCODING 894
SWIDTH 282 0
DWIDTH 11 0
BBX 5 24 3 -6
BITMAP
70
F0
70
00
00
00
00
00
00
00
00
00
00
00
00
F0
F8
F8
08
08
18
10
60
80
ENDCHAR
STARTCHAR 0384
ENCODING 900
SWIDTH 334 0
DWIDTH 13 0
BBX 5 6 5 20
BITMAP
78
70
60
C0
C0
80
ENDCHAR
STARTCHAR 0385
ENCODING 901
SWIDTH 334 0
DWIDTH 13 0
BBX 13 6 0 20
BITMAP
03C0
0380
0300
E638
F478
E838
ENDCHAR
STARTCHAR 0386
ENCODING 902
SWIDTH 720 0
DWIDTH 28 0
BBX 28 26 0 0
BITMAP
07860000
07060000
0E060000
0C0F0000
080F0000
101F8000
001F8000
0033C000
0033C000
0061C000
0061E000
0041E000
00C0F000
00C0F000
01807000
01807800
03FFF800
03003C00
02003C00
06001E00
04001E00
0C000E00
0C000F00
18000F80
3C000FC0
FF003FF0
ENDCHAR
STARTCHAR 0387
ENCODING 903
SWIDTH 282 0
DWIDTH 11 0
BBX 5 4 3 14
BITMAP
70
F8
F8
70
ENDCHAR
STARTCHAR 0388
ENCODING 904
SWIDTH 694 0
DWIDTH 27 0
BBX 29 26 -3 0
BITMAP
3DFFFFE0
783C00E0
703C0060
601C0020
C01C0020
801C0020
001C0000
001C0000
001C0080
001C0080
001C0080
001C0180
001FFF80
001C0180
001C0080
001C0080
001C0080
001C0000
001C0000
001C0008
001C0008
001C0010
001C0030
001C0030
003E00E0
01FFFFE0
ENDCHAR
STARTCHAR 0389
ENCODING 905
SWIDTH 822 0
DWIDTH 32 0
BBX 34 26 -3 0
BITMAP
3DFFC1FFC0
783E007E00
701E003C00
601C003C00
C01C003C00
801C003C00
001C003C00
001C003C00
001C003C00
001C003C00
001C003C00
001C003C00
001FFFFC00
001C003C00
001C003C00
001C003C00
001C003C00
001C003C00
001C003C00
001C003C00
001C003C00
001C003C00
001C003C00
001E003C00
003E007E00
01FFC1FFC0
ENDCHAR
STARTCHAR 038A
ENCODING 906
SWIDTH 411 0
DWIDTH 16 0
BBX 18 26 -3 0
BITMAP
3DFFC0
783E00
701E00
601C00
C01C00
801C00
001C00
001C00
001C00
001C00
001C00
001C00
001C00
001C00
001C00
001C00
001C00
001C00
001C00
001C00
001C00
001C00
001C00
001E00
003E00
01FFC0
ENDCHAR
STARTCHAR 038C
ENCODING 908
SWIDTH 720 0
DWIDTH 28 0
BBX 28 26 -1 0
BITMAP
780FE000
70703800
71C00E00
E3800700
C7800780
87000380
0F0003C0
1E0001E0
1E0001E0
1E0001E0
1E0001E0
3E0001F0
3E0001F0
3E0001F0
3E0001F0
1E0001E0
1E0001E0
1E0001E0
1E0001E0
0F0003C0
0F000380
07800780
03800700
01C00E00
00703800
001FE000
ENDCHAR
STARTCHAR 038E
ENCODING 910
SWIDTH 822 0
DWIDTH 32 0
BBX 34 26 -3 0
BITMAP
3DFFC07FC0
787F001F00
703E000E00
601E000C00
C00F001800
800F001800
0007803000
0003C06000
0003C06000
0001E0C000
0000F08000
0000F18000
00007B0000
00003E0000
00003E0000
00001C0000
00001C0000
00001C0000
00001C0000
00001C0000
00001C0000
00001C0000
00001C0000
00003E0000
00003E0000
0001FFC000
ENDCHAR
STARTCHAR 038F
ENCODING 911
SWIDTH 745 0
DWIDTH 29 0
BBX 29 26 -1 0
BITMAP
780FF000
70783C00
60E00F00
E3C00780
C78003C0
878003C0
0F0001E0
0F0001E0
1F0001F0
1F0001F0
1F0000F0
1F0000F0
1F0000F0
1F0001F0
1F0001F0
0F0001E0
0F0001E0
078001C0
03800380
03C00780
00E00E00
20701808
30181018
3FF83FF8
3FF83FF8
3FF83FF8
ENDCHAR
STARTCHAR 0390
ENCODING 912
SWIDTH 282 0
DWIDTH 11 0
BBX 14 26 -2 0
BITMAP
01E0
01C0
0380
731C
FA3C
741C
0000
0000
0180
0F80
1F80
0780
0380
0380
0380
0380
0380
0380
0380
0380
0380
0388
0390
0390
03F0
01E0
ENDCHAR
STARTCHAR 0391
ENCODING 913
SWIDTH 720 0
DWIDTH 28 0
BBX 28 26 0 0
BITMAP
00060000
00060000
00060000
000F0000
000F0000
001F8000
001F8000
0033C000
0033C000
0061C000
0061E000
0041E000
00C0F000
00C0F000
01807000
01807800
03FFF800
03003C00
02003C00
06001E00
04001E00
0C000E00
0C000F00
18000F80
3C000FC0
FF003FF0
ENDCHAR
STARTCHAR 0392
ENCODING 914
SWIDTH 668 0
DWIDTH 26 0
BBX 23 26 1 0
BITMAP
FFFF00
3E03E0
1E00F0
1E0078
1E0078
1E003C
1E003C
1E003C
1E0078
1E0078
1E00F0
1E03E0
1FFF80
1E03F0
1E00F8
1E007C
1E003C
1E003E
1E003E
1E003E
1E003E
1E003C
1E007C
1E00F8
3E01F0
FFFF80
ENDCHAR
STARTCHAR 0393
ENCODING 915
SWIDTH 591 0
DWIDTH 23 0
BBX 21 26 1 0
BITMAP
FFFFF0
3E0030
1E0010
1E0010
1E0008
1E0008
1E0000
1E0000
1E0000
1E0000
1E0000
1E0000
1E0000
1E0000
1E0000
1E0000
1E0000
1E0000
1E0000
1E0000
1E0000
1E0000
1E0000
1E0000
3F0000
FFE000
ENDCHAR
STARTCHAR 0394
ENCODING 916
SWIDTH 642 0
DWIDTH 25 0
BBX 23 26 1 0
BITMAP
001000
001800
003800
003C00
003C00
007C00
005E00
00CE00
00CF00
018700
018780
030780
030380
0203C0
0601C0
0401E0
0C01E0
0800F0
1800F0
180070
300078
300038
60003C
60003C
7FFFFC
FFFFFE
ENDCHAR
STARTCHAR 0395
ENCODING 917
SWIDTH 617 0
DWIDTH 24 0
BBX 22 26 1 0
BITMAP
FFFFF0
1E0070
1E0030
1E0010
1E0010
1E0010
1E0000
1E0000
1E0040
1E0040
1E00C0
1E01C0
1FFFC0
1E01C0
1E00C0
1E0040
1E0040
1E0000
1E0000
1E0004
1E0008
1E0008
1E0018
1E0038
3F0070
FFFFF0
ENDCHAR
STARTCHAR 0396
ENCODING 918
SWIDTH 617 0
DWIDTH 24 0
BBX 22 26 1 0
BITMAP
3FFFF8
3800F0
3001F0
2003E0
2003C0
2007C0
000F80
000F00
001F00
003E00
003C00
007C00
00F800
00F000
01F000
03E000
03C000
07C000
0F8000
0F0004
1F0004
3E0008
3C0008
780018
F80038
FFFFF8
ENDCHAR
STARTCHAR 0397
ENCODING 919
SWIDTH 720 0
DWIDTH 28 0
BBX 26 26 1 0
BITMAP
FFE1FFC0
3F003F00
1E001E00
1E001E00
1E001E00
1E001E00
1E001E00
1E001E00
1E001E00
1E001E00
1E001E00
1E001E00
1FFFFE00
1E001E00
1E001E00
1E001E00
1E001E00
1E001E00
1E001E00
1E001E00
1E001E00
1E001E00
1E001E00
1E001E00
3F003F00
FFE1FFC0
ENDCHAR
STARTCHAR 0398
ENCODING 920
SWIDTH 720 0
DWIDTH 28 0
BBX 26 26 1 0
BITMAP
003F8000
01C0E000
03003800
0E001C00
1E001E00
1C000F00
3C000F00
78000780
78804780
78804780
78C0C7C0
F8FFC7C0
F8FFC7C0
F8FFC7C0
78C0C7C0
788047C0
78804780
78000780
3C000780
3C000F00
1C000F00
1E001E00
0F001C00
07803800
01C0E000
007F8000
ENDCHAR
STARTCHAR 0399
ENCODING 921
SWIDTH 334 0
DWIDTH 13 0
BBX 11 26 1 0
BITMAP
FFE0
1F00
1F00
0E00
0E00
0E00
0E00
0E00
0E00
0E00
0E00
0E00
0E00
0E00
0E00
0E00
0E00
0E00
0E00
0E00
0E00
0E00
0E00
1F00
1F00
FFE0
ENDCHAR
STARTCHAR 039A
ENCODING 922
SWIDTH 720 0
DWIDTH 28 0
BBX 27 26 1 0
BITMAP
FFE1FF00
3F007C00
1E007000
1E00E000
1E00C000
1E018000
1E030000
1E060000
1E1C0000
1E380000
1E700000
1EE00000
1FE00000
1EF00000
1E780000
1E3C0000
1E1E0000
1E0F0000
1E078000
1E03C000
1E01F000
1E00F800
1E007C00
1E007E00
3F007F80
FFE1FFE0
ENDCHAR
STARTCHAR 039B
ENCODING 923
SWIDTH 720 0
DWIDTH 28 0
BBX 27 26 1 0
BITMAP
00080000
000C0000
001C0000
001E0000
001E0000
003F0000
002F0000
00670000
00678000
00C78000
00C3C000
0083C000
0181E000
0181E000
0300F000
0300F000
06007000
06007800
04003800
0C003C00
0C003C00
18001E00
18001E00
38001F00
78003F80
FF00FFE0
ENDCHAR
STARTCHAR 039C
ENCODING 924
SWIDTH 900 0
DWIDTH 35 0
BBX 33 26 1 0
BITMAP
FE00007F80
3F00007C00
1F0000F800
1F8000F800
1F8000B800
1B8001B800
1BC0013800
19C0033800
19E0033800
19E0063800
18F0063800
18F00C3800
18780C3800
1878083800
1838183800
183C103800
181C303800
181E203800
180E603800
180F603800
180F403800
1807C03800
1807807800
1803807800
3C03007C00
FF8103FF80
ENDCHAR
STARTCHAR 039D
ENCODING 925
SWIDTH 720 0
DWIDTH 28 0
BBX 29 26 -1 0
BITMAP
FF000FF8
1F8003C0
07800180
03C00180
03E00180
02F00180
02F80180
02780180
023C0180
021E0180
020F0180
020F0180
02078180
0203C180
0201E180
0200F180
0200F180
02007980
02003D80
02001F80
02000F80
02000F80
06000780
06000380
07000180
3FE00080
ENDCHAR
ENDFONT
